<mxfile host="app.diagrams.net" modified="2023-11-29T10:37:52.646Z" agent="Mozilla/5.0 (Windows NT 10.0; Win64; x64) AppleWebKit/537.36 (KHTML, like Gecko) Chrome/119.0.0.0 Safari/537.36" etag="dJYAdXTUiGX5ebn_QWgI" version="22.1.4" type="github">
  <diagram name="Page-1" id="sKJEA5jZcG_b2QvjX5cS">
    <mxGraphModel dx="3854" dy="4238" grid="1" gridSize="10" guides="1" tooltips="1" connect="1" arrows="1" fold="1" page="1" pageScale="1" pageWidth="827" pageHeight="1169" math="0" shadow="0">
      <root>
        <mxCell id="0" />
        <mxCell id="1" parent="0" />
        <mxCell id="M8zQa_Ylqo-KHK09IEU5-93" value="" style="group" parent="1" vertex="1" connectable="0">
          <mxGeometry x="-510" y="2930" width="490" height="220" as="geometry" />
        </mxCell>
        <mxCell id="M8zQa_Ylqo-KHK09IEU5-94" value="" style="shape=folder;fontStyle=1;spacingTop=10;tabWidth=130;tabHeight=40;tabPosition=left;html=1;" parent="M8zQa_Ylqo-KHK09IEU5-93" vertex="1">
          <mxGeometry width="490" height="220" as="geometry" />
        </mxCell>
        <mxCell id="M8zQa_Ylqo-KHK09IEU5-95" value="Data Layer" style="text;html=1;strokeColor=none;fillColor=none;align=center;verticalAlign=middle;whiteSpace=wrap;rounded=0;" parent="M8zQa_Ylqo-KHK09IEU5-93" vertex="1">
          <mxGeometry width="130" height="40" as="geometry" />
        </mxCell>
        <mxCell id="M8zQa_Ylqo-KHK09IEU5-96" value="&lt;p style=&quot;margin: 0px ; margin-top: 6px ; text-align: center&quot;&gt;&lt;b&gt;Storage&lt;/b&gt;&lt;/p&gt;&lt;hr&gt;&lt;p style=&quot;margin: 0px ; margin-left: 8px&quot;&gt;&lt;br&gt;&lt;/p&gt;" style="align=left;overflow=fill;html=1;dropTarget=0;" parent="M8zQa_Ylqo-KHK09IEU5-93" vertex="1">
          <mxGeometry x="20" y="60" width="380" height="90" as="geometry" />
        </mxCell>
        <mxCell id="M8zQa_Ylqo-KHK09IEU5-97" value="" style="shape=component;jettyWidth=8;jettyHeight=4;" parent="M8zQa_Ylqo-KHK09IEU5-96" vertex="1">
          <mxGeometry x="1" width="20" height="20" relative="1" as="geometry">
            <mxPoint x="-24" y="4" as="offset" />
          </mxGeometry>
        </mxCell>
        <mxCell id="TtmFSg_aWq5ySA_oG-eG-89" value="" style="group" parent="1" vertex="1" connectable="0">
          <mxGeometry x="-1400" y="-1010" width="2400" height="1870.0000000000005" as="geometry" />
        </mxCell>
        <mxCell id="TtmFSg_aWq5ySA_oG-eG-25" value="" style="shape=folder;fontStyle=1;spacingTop=10;tabWidth=280;tabHeight=80;tabPosition=left;html=1;" parent="TtmFSg_aWq5ySA_oG-eG-89" vertex="1">
          <mxGeometry width="2400" height="1870.0000000000005" as="geometry" />
        </mxCell>
        <UserObject label="" plantUmlData="{&quot;data&quot;:&quot;@startuml\n\n&#39; Hide the Attributeicons for classes and interfaces\nskinparam classAttributeIconSize 0\nskinparam classStereotypeIconSize 0\n\n&#39; Hide the icons for classes and interfaces\nhide circle\n\n&#39; Customize the style\nskinparam class {\n    BackgroundColor White\n    BorderColor Black\n    FontName Helvetica\n    FontSize 16\n    AttributeFontSize 14\n}\n\nskinparam interface {\n    BackgroundColor White\n    BorderColor Black\n    FontName Helvetica\n    FontSize 16\n    AttributeFontSize 14\n}\nclass DisplayController {\n    + renderPlot\n    + handleInteraction\n    + updateSetting\n    + notifyMessage\n}\n\ninterface IDisplayService &lt;&lt;interface&gt;&gt;{\n\n}\n\nclass DataProcessService{\n\n}\n\nclass VisualizationSettingService{\n\n}\n\nclass InteractionHandleService{\n\n}\n\nclass NotificationService{\n\n}\n\nDisplayController -down..&gt; IDisplayService : uses\nDataProcessService -up..|&gt; IDisplayService\nVisualizationSettingService -up..|&gt; IDisplayService \nInteractionHandleService -up..|&gt; IDisplayService \nNotificationService -up..|&gt; IDisplayService\n\nclass ComputaionController{\n   + executeComuptation\n   + getResults\n   + manageError\n   + manageComputationState\n   + handleTasks\n}\n\ninterface IComputationService &lt;&lt;interface&gt;&gt;{\n\n}\n\nclass ComputationExecutionService{\n\n}\n\nclass ResultsRetrievalService{\n\n}\n\nclass ErrorHandlingService{\n\n}\n\nclass StateManagementService{\n\n}\n\nclass TaskQueuingService{\n\n}\n\nComputaionController -down..&gt; IComputationService : uses\nComputationExecutionService -up..|&gt; IComputationService \nResultsRetrievalService-up..|&gt; IComputationService \nErrorHandlingService -up..|&gt; IComputationService \nStateManagementService -up..|&gt; IComputationService\nTaskQueuingService -up..|&gt; IComputationService \n\n\n@enduml&quot;,&quot;format&quot;:&quot;svg&quot;}" id="TtmFSg_aWq5ySA_oG-eG-21">
          <mxCell style="shape=image;noLabel=1;verticalAlign=top;aspect=fixed;imageAspect=0;image=data:image/svg+xml,PD94bWwgdmVyc2lvbj0iMS4wIiBlbmNvZGluZz0idXMtYXNjaWkiIHN0YW5kYWxvbmU9Im5vIj8+PHN2ZyB4bWxucz0iaHR0cDovL3d3dy53My5vcmcvMjAwMC9zdmciIHhtbG5zOnhsaW5rPSJodHRwOi8vd3d3LnczLm9yZy8xOTk5L3hsaW5rIiBjb250ZW50U3R5bGVUeXBlPSJ0ZXh0L2NzcyIgaGVpZ2h0PSI0ODRweCIgcHJlc2VydmVBc3BlY3RSYXRpbz0ibm9uZSIgc3R5bGU9IndpZHRoOjE3MzlweDtoZWlnaHQ6NDg0cHg7YmFja2dyb3VuZDojRkZGRkZGOyIgdmVyc2lvbj0iMS4xIiB2aWV3Qm94PSIwIDAgMTczOSA0ODQiIHdpZHRoPSIxNzM5cHgiIHpvb21BbmRQYW49Im1hZ25pZnkiPjxkZWZzLz48Zz48IS0tY2xhc3MgRGlzcGxheUNvbnRyb2xsZXItLT48ZyBpZD0iZWxlbV9EaXNwbGF5Q29udHJvbGxlciI+PHJlY3QgY29kZUxpbmU9IjI0IiBmaWxsPSIjRkZGRkZGIiBoZWlnaHQ9IjEwMC45MjE5IiBpZD0iRGlzcGxheUNvbnRyb2xsZXIiIHJ4PSIyLjUiIHJ5PSIyLjUiIHN0eWxlPSJzdHJva2U6IzAwMDAwMDtzdHJva2Utd2lkdGg6MC41OyIgd2lkdGg9IjEzOCIgeD0iMTI5MiIgeT0iMTQuNSIvPjx0ZXh0IGZpbGw9IiMwMDAwMDAiIGZvbnQtZmFtaWx5PSJIZWx2ZXRpY2EiIGZvbnQtc2l6ZT0iMTQiIGxlbmd0aEFkanVzdD0ic3BhY2luZyIgdGV4dExlbmd0aD0iMTE5IiB4PSIxMzAxLjUiIHk9IjMyLjczNDQiPkRpc3BsYXlDb250cm9sbGVyPC90ZXh0PjxsaW5lIHN0eWxlPSJzdHJva2U6IzAwMDAwMDtzdHJva2Utd2lkdGg6MC41OyIgeDE9IjEyOTMiIHgyPSIxNDI5IiB5MT0iMzkuNDg0NCIgeTI9IjM5LjQ4NDQiLz48dGV4dCBmaWxsPSIjMDAwMDAwIiBmb250LWZhbWlseT0ic2Fucy1zZXJpZiIgZm9udC1zaXplPSIxNCIgbGVuZ3RoQWRqdXN0PSJzcGFjaW5nIiB0ZXh0TGVuZ3RoPSI3NyIgeD0iMTI5OCIgeT0iNTYuNzE4OCI+K3JlbmRlclBsb3Q8L3RleHQ+PHRleHQgZmlsbD0iIzAwMDAwMCIgZm9udC1mYW1pbHk9InNhbnMtc2VyaWYiIGZvbnQtc2l6ZT0iMTQiIGxlbmd0aEFkanVzdD0ic3BhY2luZyIgdGV4dExlbmd0aD0iMTI2IiB4PSIxMjk4IiB5PSI3MS43MDMxIj4raGFuZGxlSW50ZXJhY3Rpb248L3RleHQ+PHRleHQgZmlsbD0iIzAwMDAwMCIgZm9udC1mYW1pbHk9InNhbnMtc2VyaWYiIGZvbnQtc2l6ZT0iMTQiIGxlbmd0aEFkanVzdD0ic3BhY2luZyIgdGV4dExlbmd0aD0iOTgiIHg9IjEyOTgiIHk9Ijg2LjY4NzUiPit1cGRhdGVTZXR0aW5nPC90ZXh0Pjx0ZXh0IGZpbGw9IiMwMDAwMDAiIGZvbnQtZmFtaWx5PSJzYW5zLXNlcmlmIiBmb250LXNpemU9IjE0IiBsZW5ndGhBZGp1c3Q9InNwYWNpbmciIHRleHRMZW5ndGg9Ijk4IiB4PSIxMjk4IiB5PSIxMDEuNjcxOSI+K25vdGlmeU1lc3NhZ2U8L3RleHQ+PGxpbmUgc3R5bGU9InN0cm9rZTojMDAwMDAwO3N0cm9rZS13aWR0aDowLjU7IiB4MT0iMTI5MyIgeDI9IjE0MjkiIHkxPSIxMDcuNDIxOSIgeTI9IjEwNy40MjE5Ii8+PC9nPjwhLS1jbGFzcyBJRGlzcGxheVNlcnZpY2UtLT48ZyBpZD0iZWxlbV9JRGlzcGxheVNlcnZpY2UiPjxyZWN0IGNvZGVMaW5lPSIzMSIgZmlsbD0iI0ZGRkZGRiIgaGVpZ2h0PSI1My44MjgxIiBpZD0iSURpc3BsYXlTZXJ2aWNlIiByeD0iMi41IiByeT0iMi41IiBzdHlsZT0ic3Ryb2tlOiMwMDAwMDA7c3Ryb2tlLXdpZHRoOjAuNTsiIHdpZHRoPSIxMTEiIHg9IjEzMDUuNSIgeT0iMjYwIi8+PHRleHQgZmlsbD0iIzAwMDAwMCIgZm9udC1mYW1pbHk9InNhbnMtc2VyaWYiIGZvbnQtc2l6ZT0iMTIiIGZvbnQtc3R5bGU9Iml0YWxpYyIgbGVuZ3RoQWRqdXN0PSJzcGFjaW5nIiB0ZXh0TGVuZ3RoPSI3MSIgeD0iMTMyNS41IiB5PSIyNzYuMzQzOCI+JiMxNzE7aW50ZXJmYWNlJiMxODc7PC90ZXh0Pjx0ZXh0IGZpbGw9IiMwMDAwMDAiIGZvbnQtZmFtaWx5PSJIZWx2ZXRpY2EiIGZvbnQtc2l6ZT0iMTQiIGZvbnQtc3R5bGU9Iml0YWxpYyIgbGVuZ3RoQWRqdXN0PSJzcGFjaW5nIiB0ZXh0TGVuZ3RoPSIxMDUiIHg9IjEzMDguNSIgeT0iMjkxLjA3ODEiPklEaXNwbGF5U2VydmljZTwvdGV4dD48bGluZSBzdHlsZT0ic3Ryb2tlOiMwMDAwMDA7c3Ryb2tlLXdpZHRoOjAuNTsiIHgxPSIxMzA2LjUiIHgyPSIxNDE1LjUiIHkxPSIyOTcuODI4MSIgeTI9IjI5Ny44MjgxIi8+PGxpbmUgc3R5bGU9InN0cm9rZTojMDAwMDAwO3N0cm9rZS13aWR0aDowLjU7IiB4MT0iMTMwNi41IiB4Mj0iMTQxNS41IiB5MT0iMzA1LjgyODEiIHkyPSIzMDUuODI4MSIvPjwvZz48IS0tY2xhc3MgRGF0YVByb2Nlc3NTZXJ2aWNlLS0+PGcgaWQ9ImVsZW1fRGF0YVByb2Nlc3NTZXJ2aWNlIj48cmVjdCBjb2RlTGluZT0iMzUiIGZpbGw9IiNGRkZGRkYiIGhlaWdodD0iNDAuOTg0NCIgaWQ9IkRhdGFQcm9jZXNzU2VydmljZSIgcng9IjIuNSIgcnk9IjIuNSIgc3R5bGU9InN0cm9rZTojMDAwMDAwO3N0cm9rZS13aWR0aDowLjU7IiB3aWR0aD0iMTMyIiB4PSI5ODYiIHk9IjQzNyIvPjx0ZXh0IGZpbGw9IiMwMDAwMDAiIGZvbnQtZmFtaWx5PSJIZWx2ZXRpY2EiIGZvbnQtc2l6ZT0iMTQiIGxlbmd0aEFkanVzdD0ic3BhY2luZyIgdGV4dExlbmd0aD0iMTI2IiB4PSI5ODkiIHk9IjQ1NS4yMzQ0Ij5EYXRhUHJvY2Vzc1NlcnZpY2U8L3RleHQ+PGxpbmUgc3R5bGU9InN0cm9rZTojMDAwMDAwO3N0cm9rZS13aWR0aDowLjU7IiB4MT0iOTg3IiB4Mj0iMTExNyIgeTE9IjQ2MS45ODQ0IiB5Mj0iNDYxLjk4NDQiLz48bGluZSBzdHlsZT0ic3Ryb2tlOiMwMDAwMDA7c3Ryb2tlLXdpZHRoOjAuNTsiIHgxPSI5ODciIHgyPSIxMTE3IiB5MT0iNDY5Ljk4NDQiIHkyPSI0NjkuOTg0NCIvPjwvZz48IS0tY2xhc3MgVmlzdWFsaXphdGlvblNldHRpbmdTZXJ2aWNlLS0+PGcgaWQ9ImVsZW1fVmlzdWFsaXphdGlvblNldHRpbmdTZXJ2aWNlIj48cmVjdCBjb2RlTGluZT0iMzkiIGZpbGw9IiNGRkZGRkYiIGhlaWdodD0iNDAuOTg0NCIgaWQ9IlZpc3VhbGl6YXRpb25TZXR0aW5nU2VydmljZSIgcng9IjIuNSIgcnk9IjIuNSIgc3R5bGU9InN0cm9rZTojMDAwMDAwO3N0cm9rZS13aWR0aDowLjU7IiB3aWR0aD0iMTk1IiB4PSIxMTUzLjUiIHk9IjQzNyIvPjx0ZXh0IGZpbGw9IiMwMDAwMDAiIGZvbnQtZmFtaWx5PSJIZWx2ZXRpY2EiIGZvbnQtc2l6ZT0iMTQiIGxlbmd0aEFkanVzdD0ic3BhY2luZyIgdGV4dExlbmd0aD0iMTg5IiB4PSIxMTU2LjUiIHk9IjQ1NS4yMzQ0Ij5WaXN1YWxpemF0aW9uU2V0dGluZ1NlcnZpY2U8L3RleHQ+PGxpbmUgc3R5bGU9InN0cm9rZTojMDAwMDAwO3N0cm9rZS13aWR0aDowLjU7IiB4MT0iMTE1NC41IiB4Mj0iMTM0Ny41IiB5MT0iNDYxLjk4NDQiIHkyPSI0NjEuOTg0NCIvPjxsaW5lIHN0eWxlPSJzdHJva2U6IzAwMDAwMDtzdHJva2Utd2lkdGg6MC41OyIgeDE9IjExNTQuNSIgeDI9IjEzNDcuNSIgeTE9IjQ2OS45ODQ0IiB5Mj0iNDY5Ljk4NDQiLz48L2c+PCEtLWNsYXNzIEludGVyYWN0aW9uSGFuZGxlU2VydmljZS0tPjxnIGlkPSJlbGVtX0ludGVyYWN0aW9uSGFuZGxlU2VydmljZSI+PHJlY3QgY29kZUxpbmU9IjQzIiBmaWxsPSIjRkZGRkZGIiBoZWlnaHQ9IjQwLjk4NDQiIGlkPSJJbnRlcmFjdGlvbkhhbmRsZVNlcnZpY2UiIHJ4PSIyLjUiIHJ5PSIyLjUiIHN0eWxlPSJzdHJva2U6IzAwMDAwMDtzdHJva2Utd2lkdGg6MC41OyIgd2lkdGg9IjE3NCIgeD0iMTM4NCIgeT0iNDM3Ii8+PHRleHQgZmlsbD0iIzAwMDAwMCIgZm9udC1mYW1pbHk9IkhlbHZldGljYSIgZm9udC1zaXplPSIxNCIgbGVuZ3RoQWRqdXN0PSJzcGFjaW5nIiB0ZXh0TGVuZ3RoPSIxNjgiIHg9IjEzODciIHk9IjQ1NS4yMzQ0Ij5JbnRlcmFjdGlvbkhhbmRsZVNlcnZpY2U8L3RleHQ+PGxpbmUgc3R5bGU9InN0cm9rZTojMDAwMDAwO3N0cm9rZS13aWR0aDowLjU7IiB4MT0iMTM4NSIgeDI9IjE1NTciIHkxPSI0NjEuOTg0NCIgeTI9IjQ2MS45ODQ0Ii8+PGxpbmUgc3R5bGU9InN0cm9rZTojMDAwMDAwO3N0cm9rZS13aWR0aDowLjU7IiB4MT0iMTM4NSIgeDI9IjE1NTciIHkxPSI0NjkuOTg0NCIgeTI9IjQ2OS45ODQ0Ii8+PC9nPjwhLS1jbGFzcyBOb3RpZmljYXRpb25TZXJ2aWNlLS0+PGcgaWQ9ImVsZW1fTm90aWZpY2F0aW9uU2VydmljZSI+PHJlY3QgY29kZUxpbmU9IjQ3IiBmaWxsPSIjRkZGRkZGIiBoZWlnaHQ9IjQwLjk4NDQiIGlkPSJOb3RpZmljYXRpb25TZXJ2aWNlIiByeD0iMi41IiByeT0iMi41IiBzdHlsZT0ic3Ryb2tlOiMwMDAwMDA7c3Ryb2tlLXdpZHRoOjAuNTsiIHdpZHRoPSIxMzkiIHg9IjE1OTMuNSIgeT0iNDM3Ii8+PHRleHQgZmlsbD0iIzAwMDAwMCIgZm9udC1mYW1pbHk9IkhlbHZldGljYSIgZm9udC1zaXplPSIxNCIgbGVuZ3RoQWRqdXN0PSJzcGFjaW5nIiB0ZXh0TGVuZ3RoPSIxMzMiIHg9IjE1OTYuNSIgeT0iNDU1LjIzNDQiPk5vdGlmaWNhdGlvblNlcnZpY2U8L3RleHQ+PGxpbmUgc3R5bGU9InN0cm9rZTojMDAwMDAwO3N0cm9rZS13aWR0aDowLjU7IiB4MT0iMTU5NC41IiB4Mj0iMTczMS41IiB5MT0iNDYxLjk4NDQiIHkyPSI0NjEuOTg0NCIvPjxsaW5lIHN0eWxlPSJzdHJva2U6IzAwMDAwMDtzdHJva2Utd2lkdGg6MC41OyIgeDE9IjE1OTQuNSIgeDI9IjE3MzEuNSIgeTE9IjQ2OS45ODQ0IiB5Mj0iNDY5Ljk4NDQiLz48L2c+PCEtLWNsYXNzIENvbXB1dGFpb25Db250cm9sbGVyLS0+PGcgaWQ9ImVsZW1fQ29tcHV0YWlvbkNvbnRyb2xsZXIiPjxyZWN0IGNvZGVMaW5lPSI1NyIgZmlsbD0iI0ZGRkZGRiIgaGVpZ2h0PSIxMTUuOTA2MyIgaWQ9IkNvbXB1dGFpb25Db250cm9sbGVyIiByeD0iMi41IiByeT0iMi41IiBzdHlsZT0ic3Ryb2tlOiMwMDAwMDA7c3Ryb2tlLXdpZHRoOjAuNTsiIHdpZHRoPSIxNzUiIHg9IjQyNi41IiB5PSI3Ii8+PHRleHQgZmlsbD0iIzAwMDAwMCIgZm9udC1mYW1pbHk9IkhlbHZldGljYSIgZm9udC1zaXplPSIxNCIgbGVuZ3RoQWRqdXN0PSJzcGFjaW5nIiB0ZXh0TGVuZ3RoPSIxNDEiIHg9IjQ0My41IiB5PSIyNS4yMzQ0Ij5Db21wdXRhaW9uQ29udHJvbGxlcjwvdGV4dD48bGluZSBzdHlsZT0ic3Ryb2tlOiMwMDAwMDA7c3Ryb2tlLXdpZHRoOjAuNTsiIHgxPSI0MjcuNSIgeDI9IjYwMC41IiB5MT0iMzEuOTg0NCIgeTI9IjMxLjk4NDQiLz48dGV4dCBmaWxsPSIjMDAwMDAwIiBmb250LWZhbWlseT0ic2Fucy1zZXJpZiIgZm9udC1zaXplPSIxNCIgbGVuZ3RoQWRqdXN0PSJzcGFjaW5nIiB0ZXh0TGVuZ3RoPSIxMzQiIHg9IjQzMi41IiB5PSI0OS4yMTg4Ij4rZXhlY3V0ZUNvbXVwdGF0aW9uPC90ZXh0Pjx0ZXh0IGZpbGw9IiMwMDAwMDAiIGZvbnQtZmFtaWx5PSJzYW5zLXNlcmlmIiBmb250LXNpemU9IjE0IiBsZW5ndGhBZGp1c3Q9InNwYWNpbmciIHRleHRMZW5ndGg9Ijc3IiB4PSI0MzIuNSIgeT0iNjQuMjAzMSI+K2dldFJlc3VsdHM8L3RleHQ+PHRleHQgZmlsbD0iIzAwMDAwMCIgZm9udC1mYW1pbHk9InNhbnMtc2VyaWYiIGZvbnQtc2l6ZT0iMTQiIGxlbmd0aEFkanVzdD0ic3BhY2luZyIgdGV4dExlbmd0aD0iODUiIHg9IjQzMi41IiB5PSI3OS4xODc1Ij4rbWFuYWdlRXJyb3I8L3RleHQ+PHRleHQgZmlsbD0iIzAwMDAwMCIgZm9udC1mYW1pbHk9InNhbnMtc2VyaWYiIGZvbnQtc2l6ZT0iMTQiIGxlbmd0aEFkanVzdD0ic3BhY2luZyIgdGV4dExlbmd0aD0iMTYzIiB4PSI0MzIuNSIgeT0iOTQuMTcxOSI+K21hbmFnZUNvbXB1dGF0aW9uU3RhdGU8L3RleHQ+PHRleHQgZmlsbD0iIzAwMDAwMCIgZm9udC1mYW1pbHk9InNhbnMtc2VyaWYiIGZvbnQtc2l6ZT0iMTQiIGxlbmd0aEFkanVzdD0ic3BhY2luZyIgdGV4dExlbmd0aD0iODQiIHg9IjQzMi41IiB5PSIxMDkuMTU2MyI+K2hhbmRsZVRhc2tzPC90ZXh0PjxsaW5lIHN0eWxlPSJzdHJva2U6IzAwMDAwMDtzdHJva2Utd2lkdGg6MC41OyIgeDE9IjQyNy41IiB4Mj0iNjAwLjUiIHkxPSIxMTQuOTA2MyIgeTI9IjExNC45MDYzIi8+PC9nPjwhLS1jbGFzcyBJQ29tcHV0YXRpb25TZXJ2aWNlLS0+PGcgaWQ9ImVsZW1fSUNvbXB1dGF0aW9uU2VydmljZSI+PHJlY3QgY29kZUxpbmU9IjY1IiBmaWxsPSIjRkZGRkZGIiBoZWlnaHQ9IjUzLjgyODEiIGlkPSJJQ29tcHV0YXRpb25TZXJ2aWNlIiByeD0iMi41IiByeT0iMi41IiBzdHlsZT0ic3Ryb2tlOiMwMDAwMDA7c3Ryb2tlLXdpZHRoOjAuNTsiIHdpZHRoPSIxNDAiIHg9IjQ0NCIgeT0iMjYwIi8+PHRleHQgZmlsbD0iIzAwMDAwMCIgZm9udC1mYW1pbHk9InNhbnMtc2VyaWYiIGZvbnQtc2l6ZT0iMTIiIGZvbnQtc3R5bGU9Iml0YWxpYyIgbGVuZ3RoQWRqdXN0PSJzcGFjaW5nIiB0ZXh0TGVuZ3RoPSI3MSIgeD0iNDc4LjUiIHk9IjI3Ni4zNDM4Ij4mIzE3MTtpbnRlcmZhY2UmIzE4Nzs8L3RleHQ+PHRleHQgZmlsbD0iIzAwMDAwMCIgZm9udC1mYW1pbHk9IkhlbHZldGljYSIgZm9udC1zaXplPSIxNCIgZm9udC1zdHlsZT0iaXRhbGljIiBsZW5ndGhBZGp1c3Q9InNwYWNpbmciIHRleHRMZW5ndGg9IjEzNCIgeD0iNDQ3IiB5PSIyOTEuMDc4MSI+SUNvbXB1dGF0aW9uU2VydmljZTwvdGV4dD48bGluZSBzdHlsZT0ic3Ryb2tlOiMwMDAwMDA7c3Ryb2tlLXdpZHRoOjAuNTsiIHgxPSI0NDUiIHgyPSI1ODMiIHkxPSIyOTcuODI4MSIgeTI9IjI5Ny44MjgxIi8+PGxpbmUgc3R5bGU9InN0cm9rZTojMDAwMDAwO3N0cm9rZS13aWR0aDowLjU7IiB4MT0iNDQ1IiB4Mj0iNTgzIiB5MT0iMzA1LjgyODEiIHkyPSIzMDUuODI4MSIvPjwvZz48IS0tY2xhc3MgQ29tcHV0YXRpb25FeGVjdXRpb25TZXJ2aWNlLS0+PGcgaWQ9ImVsZW1fQ29tcHV0YXRpb25FeGVjdXRpb25TZXJ2aWNlIj48cmVjdCBjb2RlTGluZT0iNjkiIGZpbGw9IiNGRkZGRkYiIGhlaWdodD0iNDAuOTg0NCIgaWQ9IkNvbXB1dGF0aW9uRXhlY3V0aW9uU2VydmljZSIgcng9IjIuNSIgcnk9IjIuNSIgc3R5bGU9InN0cm9rZTojMDAwMDAwO3N0cm9rZS13aWR0aDowLjU7IiB3aWR0aD0iMTk2IiB4PSI3IiB5PSI0MzciLz48dGV4dCBmaWxsPSIjMDAwMDAwIiBmb250LWZhbWlseT0iSGVsdmV0aWNhIiBmb250LXNpemU9IjE0IiBsZW5ndGhBZGp1c3Q9InNwYWNpbmciIHRleHRMZW5ndGg9IjE5MCIgeD0iMTAiIHk9IjQ1NS4yMzQ0Ij5Db21wdXRhdGlvbkV4ZWN1dGlvblNlcnZpY2U8L3RleHQ+PGxpbmUgc3R5bGU9InN0cm9rZTojMDAwMDAwO3N0cm9rZS13aWR0aDowLjU7IiB4MT0iOCIgeDI9IjIwMiIgeTE9IjQ2MS45ODQ0IiB5Mj0iNDYxLjk4NDQiLz48bGluZSBzdHlsZT0ic3Ryb2tlOiMwMDAwMDA7c3Ryb2tlLXdpZHRoOjAuNTsiIHgxPSI4IiB4Mj0iMjAyIiB5MT0iNDY5Ljk4NDQiIHkyPSI0NjkuOTg0NCIvPjwvZz48IS0tY2xhc3MgUmVzdWx0c1JldHJpZXZhbFNlcnZpY2UtLT48ZyBpZD0iZWxlbV9SZXN1bHRzUmV0cmlldmFsU2VydmljZSI+PHJlY3QgY29kZUxpbmU9IjczIiBmaWxsPSIjRkZGRkZGIiBoZWlnaHQ9IjQwLjk4NDQiIGlkPSJSZXN1bHRzUmV0cmlldmFsU2VydmljZSIgcng9IjIuNSIgcnk9IjIuNSIgc3R5bGU9InN0cm9rZTojMDAwMDAwO3N0cm9rZS13aWR0aDowLjU7IiB3aWR0aD0iMTY3IiB4PSIyMzguNSIgeT0iNDM3Ii8+PHRleHQgZmlsbD0iIzAwMDAwMCIgZm9udC1mYW1pbHk9IkhlbHZldGljYSIgZm9udC1zaXplPSIxNCIgbGVuZ3RoQWRqdXN0PSJzcGFjaW5nIiB0ZXh0TGVuZ3RoPSIxNjEiIHg9IjI0MS41IiB5PSI0NTUuMjM0NCI+UmVzdWx0c1JldHJpZXZhbFNlcnZpY2U8L3RleHQ+PGxpbmUgc3R5bGU9InN0cm9rZTojMDAwMDAwO3N0cm9rZS13aWR0aDowLjU7IiB4MT0iMjM5LjUiIHgyPSI0MDQuNSIgeTE9IjQ2MS45ODQ0IiB5Mj0iNDYxLjk4NDQiLz48bGluZSBzdHlsZT0ic3Ryb2tlOiMwMDAwMDA7c3Ryb2tlLXdpZHRoOjAuNTsiIHgxPSIyMzkuNSIgeDI9IjQwNC41IiB5MT0iNDY5Ljk4NDQiIHkyPSI0NjkuOTg0NCIvPjwvZz48IS0tY2xhc3MgRXJyb3JIYW5kbGluZ1NlcnZpY2UtLT48ZyBpZD0iZWxlbV9FcnJvckhhbmRsaW5nU2VydmljZSI+PHJlY3QgY29kZUxpbmU9Ijc3IiBmaWxsPSIjRkZGRkZGIiBoZWlnaHQ9IjQwLjk4NDQiIGlkPSJFcnJvckhhbmRsaW5nU2VydmljZSIgcng9IjIuNSIgcnk9IjIuNSIgc3R5bGU9InN0cm9rZTojMDAwMDAwO3N0cm9rZS13aWR0aDowLjU7IiB3aWR0aD0iMTQ2IiB4PSI0NDEiIHk9IjQzNyIvPjx0ZXh0IGZpbGw9IiMwMDAwMDAiIGZvbnQtZmFtaWx5PSJIZWx2ZXRpY2EiIGZvbnQtc2l6ZT0iMTQiIGxlbmd0aEFkanVzdD0ic3BhY2luZyIgdGV4dExlbmd0aD0iMTQwIiB4PSI0NDQiIHk9IjQ1NS4yMzQ0Ij5FcnJvckhhbmRsaW5nU2VydmljZTwvdGV4dD48bGluZSBzdHlsZT0ic3Ryb2tlOiMwMDAwMDA7c3Ryb2tlLXdpZHRoOjAuNTsiIHgxPSI0NDIiIHgyPSI1ODYiIHkxPSI0NjEuOTg0NCIgeTI9IjQ2MS45ODQ0Ii8+PGxpbmUgc3R5bGU9InN0cm9rZTojMDAwMDAwO3N0cm9rZS13aWR0aDowLjU7IiB4MT0iNDQyIiB4Mj0iNTg2IiB5MT0iNDY5Ljk4NDQiIHkyPSI0NjkuOTg0NCIvPjwvZz48IS0tY2xhc3MgU3RhdGVNYW5hZ2VtZW50U2VydmljZS0tPjxnIGlkPSJlbGVtX1N0YXRlTWFuYWdlbWVudFNlcnZpY2UiPjxyZWN0IGNvZGVMaW5lPSI4MSIgZmlsbD0iI0ZGRkZGRiIgaGVpZ2h0PSI0MC45ODQ0IiBpZD0iU3RhdGVNYW5hZ2VtZW50U2VydmljZSIgcng9IjIuNSIgcnk9IjIuNSIgc3R5bGU9InN0cm9rZTojMDAwMDAwO3N0cm9rZS13aWR0aDowLjU7IiB3aWR0aD0iMTYxIiB4PSI2MjIuNSIgeT0iNDM3Ii8+PHRleHQgZmlsbD0iIzAwMDAwMCIgZm9udC1mYW1pbHk9IkhlbHZldGljYSIgZm9udC1zaXplPSIxNCIgbGVuZ3RoQWRqdXN0PSJzcGFjaW5nIiB0ZXh0TGVuZ3RoPSIxNTUiIHg9IjYyNS41IiB5PSI0NTUuMjM0NCI+U3RhdGVNYW5hZ2VtZW50U2VydmljZTwvdGV4dD48bGluZSBzdHlsZT0ic3Ryb2tlOiMwMDAwMDA7c3Ryb2tlLXdpZHRoOjAuNTsiIHgxPSI2MjMuNSIgeDI9Ijc4Mi41IiB5MT0iNDYxLjk4NDQiIHkyPSI0NjEuOTg0NCIvPjxsaW5lIHN0eWxlPSJzdHJva2U6IzAwMDAwMDtzdHJva2Utd2lkdGg6MC41OyIgeDE9IjYyMy41IiB4Mj0iNzgyLjUiIHkxPSI0NjkuOTg0NCIgeTI9IjQ2OS45ODQ0Ii8+PC9nPjwhLS1jbGFzcyBUYXNrUXVldWluZ1NlcnZpY2UtLT48ZyBpZD0iZWxlbV9UYXNrUXVldWluZ1NlcnZpY2UiPjxyZWN0IGNvZGVMaW5lPSI4NSIgZmlsbD0iI0ZGRkZGRiIgaGVpZ2h0PSI0MC45ODQ0IiBpZD0iVGFza1F1ZXVpbmdTZXJ2aWNlIiByeD0iMi41IiByeT0iMi41IiBzdHlsZT0ic3Ryb2tlOiMwMDAwMDA7c3Ryb2tlLXdpZHRoOjAuNTsiIHdpZHRoPSIxMzIiIHg9IjgxOSIgeT0iNDM3Ii8+PHRleHQgZmlsbD0iIzAwMDAwMCIgZm9udC1mYW1pbHk9IkhlbHZldGljYSIgZm9udC1zaXplPSIxNCIgbGVuZ3RoQWRqdXN0PSJzcGFjaW5nIiB0ZXh0TGVuZ3RoPSIxMjYiIHg9IjgyMiIgeT0iNDU1LjIzNDQiPlRhc2tRdWV1aW5nU2VydmljZTwvdGV4dD48bGluZSBzdHlsZT0ic3Ryb2tlOiMwMDAwMDA7c3Ryb2tlLXdpZHRoOjAuNTsiIHgxPSI4MjAiIHgyPSI5NTAiIHkxPSI0NjEuOTg0NCIgeTI9IjQ2MS45ODQ0Ii8+PGxpbmUgc3R5bGU9InN0cm9rZTojMDAwMDAwO3N0cm9rZS13aWR0aDowLjU7IiB4MT0iODIwIiB4Mj0iOTUwIiB5MT0iNDY5Ljk4NDQiIHkyPSI0NjkuOTg0NCIvPjwvZz48IS0tbGluayBEaXNwbGF5Q29udHJvbGxlciB0byBJRGlzcGxheVNlcnZpY2UtLT48ZyBpZD0ibGlua19EaXNwbGF5Q29udHJvbGxlcl9JRGlzcGxheVNlcnZpY2UiPjxwYXRoIGNvZGVMaW5lPSI1MSIgZD0iTTEzNjEsMTE1LjY1IEMxMzYxLDE1OC4yOSAxMzYxLDIxOC40NSAxMzYxLDI1NC42OSAiIGZpbGw9Im5vbmUiIGlkPSJEaXNwbGF5Q29udHJvbGxlci10by1JRGlzcGxheVNlcnZpY2UiIHN0eWxlPSJzdHJva2U6IzE4MTgxODtzdHJva2Utd2lkdGg6MS4wO3N0cm9rZS1kYXNoYXJyYXk6Ny4wLDcuMDsiLz48cG9seWdvbiBmaWxsPSIjMTgxODE4IiBwb2ludHM9IjEzNjEsMjU5Ljg2LDEzNjUsMjUwLjg2LDEzNjEsMjU0Ljg2LDEzNTcsMjUwLjg2LDEzNjEsMjU5Ljg2IiBzdHlsZT0ic3Ryb2tlOiMxODE4MTg7c3Ryb2tlLXdpZHRoOjEuMDsiLz48dGV4dCBmaWxsPSIjMDAwMDAwIiBmb250LWZhbWlseT0ic2Fucy1zZXJpZiIgZm9udC1zaXplPSIxMyIgbGVuZ3RoQWRqdXN0PSJzcGFjaW5nIiB0ZXh0TGVuZ3RoPSIyOCIgeD0iMTM2MiIgeT0iMTk3LjI4OTEiPnVzZXM8L3RleHQ+PC9nPjwhLS1yZXZlcnNlIGxpbmsgSURpc3BsYXlTZXJ2aWNlIHRvIERhdGFQcm9jZXNzU2VydmljZS0tPjxnIGlkPSJsaW5rX0lEaXNwbGF5U2VydmljZV9EYXRhUHJvY2Vzc1NlcnZpY2UiPjxwYXRoIGNvZGVMaW5lPSI1MiIgZD0iTTEyOTUuMjcsMzIzLjg0IEMxMjMyLjAxLDM1OC4zNCAxMTM4LjY4LDQwOS4yMyAxMDg3Ljk5LDQzNi44OCAiIGZpbGw9Im5vbmUiIGlkPSJJRGlzcGxheVNlcnZpY2UtYmFja3RvLURhdGFQcm9jZXNzU2VydmljZSIgc3R5bGU9InN0cm9rZTojMTgxODE4O3N0cm9rZS13aWR0aDoxLjA7c3Ryb2tlLWRhc2hhcnJheTo3LjAsNy4wOyIvPjxwb2x5Z29uIGZpbGw9Im5vbmUiIHBvaW50cz0iMTI5Mi4xNSwzMTcuNTcsMTMxMy4wNiwzMTQuMTQsMTI5OC44NSwzMjkuODYsMTI5Mi4xNSwzMTcuNTciIHN0eWxlPSJzdHJva2U6IzE4MTgxODtzdHJva2Utd2lkdGg6MS4wOyIvPjwvZz48IS0tcmV2ZXJzZSBsaW5rIElEaXNwbGF5U2VydmljZSB0byBWaXN1YWxpemF0aW9uU2V0dGluZ1NlcnZpY2UtLT48ZyBpZD0ibGlua19JRGlzcGxheVNlcnZpY2VfVmlzdWFsaXphdGlvblNldHRpbmdTZXJ2aWNlIj48cGF0aCBjb2RlTGluZT0iNTMiIGQ9Ik0xMzMyLjY5LDMzMS4zNiBDMTMxMC40NiwzNjUuNDIgMTI4MC41NSw0MTEuMjMgMTI2My43OCw0MzYuOTIgIiBmaWxsPSJub25lIiBpZD0iSURpc3BsYXlTZXJ2aWNlLWJhY2t0by1WaXN1YWxpemF0aW9uU2V0dGluZ1NlcnZpY2UiIHN0eWxlPSJzdHJva2U6IzE4MTgxODtzdHJva2Utd2lkdGg6MS4wO3N0cm9rZS1kYXNoYXJyYXk6Ny4wLDcuMDsiLz48cG9seWdvbiBmaWxsPSJub25lIiBwb2ludHM9IjEzMjcuMDIsMzI3LjI1LDEzNDMuODEsMzE0LjMzLDEzMzguNzQsMzM0LjksMTMyNy4wMiwzMjcuMjUiIHN0eWxlPSJzdHJva2U6IzE4MTgxODtzdHJva2Utd2lkdGg6MS4wOyIvPjwvZz48IS0tcmV2ZXJzZSBsaW5rIElEaXNwbGF5U2VydmljZSB0byBJbnRlcmFjdGlvbkhhbmRsZVNlcnZpY2UtLT48ZyBpZD0ibGlua19JRGlzcGxheVNlcnZpY2VfSW50ZXJhY3Rpb25IYW5kbGVTZXJ2aWNlIj48cGF0aCBjb2RlTGluZT0iNTQiIGQ9Ik0xMzg5LjMxLDMzMS4zNiBDMTQxMS41NCwzNjUuNDIgMTQ0MS40NSw0MTEuMjMgMTQ1OC4yMiw0MzYuOTIgIiBmaWxsPSJub25lIiBpZD0iSURpc3BsYXlTZXJ2aWNlLWJhY2t0by1JbnRlcmFjdGlvbkhhbmRsZVNlcnZpY2UiIHN0eWxlPSJzdHJva2U6IzE4MTgxODtzdHJva2Utd2lkdGg6MS4wO3N0cm9rZS1kYXNoYXJyYXk6Ny4wLDcuMDsiLz48cG9seWdvbiBmaWxsPSJub25lIiBwb2ludHM9IjEzODMuMjYsMzM0LjksMTM3OC4xOSwzMTQuMzMsMTM5NC45OCwzMjcuMjUsMTM4My4yNiwzMzQuOSIgc3R5bGU9InN0cm9rZTojMTgxODE4O3N0cm9rZS13aWR0aDoxLjA7Ii8+PC9nPjwhLS1yZXZlcnNlIGxpbmsgSURpc3BsYXlTZXJ2aWNlIHRvIE5vdGlmaWNhdGlvblNlcnZpY2UtLT48ZyBpZD0ibGlua19JRGlzcGxheVNlcnZpY2VfTm90aWZpY2F0aW9uU2VydmljZSI+PHBhdGggY29kZUxpbmU9IjU1IiBkPSJNMTQyNS42NCwzMjQuMDYgQzE0ODcuNDYsMzU4LjU2IDE1NzguMzksNDA5LjI5IDE2MjcuODMsNDM2Ljg4ICIgZmlsbD0ibm9uZSIgaWQ9IklEaXNwbGF5U2VydmljZS1iYWNrdG8tTm90aWZpY2F0aW9uU2VydmljZSIgc3R5bGU9InN0cm9rZTojMTgxODE4O3N0cm9rZS13aWR0aDoxLjA7c3Ryb2tlLWRhc2hhcnJheTo3LjAsNy4wOyIvPjxwb2x5Z29uIGZpbGw9Im5vbmUiIHBvaW50cz0iMTQyMS45MSwzMzAsMTQwNy44NiwzMTQuMTQsMTQyOC43MywzMTcuNzgsMTQyMS45MSwzMzAiIHN0eWxlPSJzdHJva2U6IzE4MTgxODtzdHJva2Utd2lkdGg6MS4wOyIvPjwvZz48IS0tbGluayBDb21wdXRhaW9uQ29udHJvbGxlciB0byBJQ29tcHV0YXRpb25TZXJ2aWNlLS0+PGcgaWQ9ImxpbmtfQ29tcHV0YWlvbkNvbnRyb2xsZXJfSUNvbXB1dGF0aW9uU2VydmljZSI+PHBhdGggY29kZUxpbmU9Ijg5IiBkPSJNNTE0LDEyMy4yMyBDNTE0LDE2NS4xNiA1MTQsMjIwLjUxIDUxNCwyNTQuNjUgIiBmaWxsPSJub25lIiBpZD0iQ29tcHV0YWlvbkNvbnRyb2xsZXItdG8tSUNvbXB1dGF0aW9uU2VydmljZSIgc3R5bGU9InN0cm9rZTojMTgxODE4O3N0cm9rZS13aWR0aDoxLjA7c3Ryb2tlLWRhc2hhcnJheTo3LjAsNy4wOyIvPjxwb2x5Z29uIGZpbGw9IiMxODE4MTgiIHBvaW50cz0iNTE0LDI1OS45NSw1MTgsMjUwLjk1LDUxNCwyNTQuOTUsNTEwLDI1MC45NSw1MTQsMjU5Ljk1IiBzdHlsZT0ic3Ryb2tlOiMxODE4MTg7c3Ryb2tlLXdpZHRoOjEuMDsiLz48dGV4dCBmaWxsPSIjMDAwMDAwIiBmb250LWZhbWlseT0ic2Fucy1zZXJpZiIgZm9udC1zaXplPSIxMyIgbGVuZ3RoQWRqdXN0PSJzcGFjaW5nIiB0ZXh0TGVuZ3RoPSIyOCIgeD0iNTE1IiB5PSIxOTcuMjg5MSI+dXNlczwvdGV4dD48L2c+PCEtLXJldmVyc2UgbGluayBJQ29tcHV0YXRpb25TZXJ2aWNlIHRvIENvbXB1dGF0aW9uRXhlY3V0aW9uU2VydmljZS0tPjxnIGlkPSJsaW5rX0lDb21wdXRhdGlvblNlcnZpY2VfQ29tcHV0YXRpb25FeGVjdXRpb25TZXJ2aWNlIj48cGF0aCBjb2RlTGluZT0iOTAiIGQ9Ik00MzEuODEsMzIxLjg2IEMzNDguMDUsMzU2LjM3IDIyMS4wMyw0MDguNyAxNTIuNjMsNDM2Ljg4ICIgZmlsbD0ibm9uZSIgaWQ9IklDb21wdXRhdGlvblNlcnZpY2UtYmFja3RvLUNvbXB1dGF0aW9uRXhlY3V0aW9uU2VydmljZSIgc3R5bGU9InN0cm9rZTojMTgxODE4O3N0cm9rZS13aWR0aDoxLjA7c3Ryb2tlLWRhc2hhcnJheTo3LjAsNy4wOyIvPjxwb2x5Z29uIGZpbGw9Im5vbmUiIHBvaW50cz0iNDI5LjM4LDMxNS4yOSw0NTAuNTQsMzE0LjE0LDQzNC43MiwzMjguMjMsNDI5LjM4LDMxNS4yOSIgc3R5bGU9InN0cm9rZTojMTgxODE4O3N0cm9rZS13aWR0aDoxLjA7Ii8+PC9nPjwhLS1yZXZlcnNlIGxpbmsgSUNvbXB1dGF0aW9uU2VydmljZSB0byBSZXN1bHRzUmV0cmlldmFsU2VydmljZS0tPjxnIGlkPSJsaW5rX0lDb21wdXRhdGlvblNlcnZpY2VfUmVzdWx0c1JldHJpZXZhbFNlcnZpY2UiPjxwYXRoIGNvZGVMaW5lPSI5MSIgZD0iTTQ2OC44MiwzMjcuNjUgQzQyOS42NywzNjIuMDEgMzc0LjY2LDQxMC4yOSAzNDQuMzEsNDM2LjkyICIgZmlsbD0ibm9uZSIgaWQ9IklDb21wdXRhdGlvblNlcnZpY2UtYmFja3RvLVJlc3VsdHNSZXRyaWV2YWxTZXJ2aWNlIiBzdHlsZT0ic3Ryb2tlOiMxODE4MTg7c3Ryb2tlLXdpZHRoOjEuMDtzdHJva2UtZGFzaGFycmF5OjcuMCw3LjA7Ii8+PHBvbHlnb24gZmlsbD0ibm9uZSIgcG9pbnRzPSI0NjQuMzUsMzIyLjI2LDQ4NCwzMTQuMzMsNDczLjU5LDMzMi43OCw0NjQuMzUsMzIyLjI2IiBzdHlsZT0ic3Ryb2tlOiMxODE4MTg7c3Ryb2tlLXdpZHRoOjEuMDsiLz48L2c+PCEtLXJldmVyc2UgbGluayBJQ29tcHV0YXRpb25TZXJ2aWNlIHRvIEVycm9ySGFuZGxpbmdTZXJ2aWNlLS0+PGcgaWQ9ImxpbmtfSUNvbXB1dGF0aW9uU2VydmljZV9FcnJvckhhbmRsaW5nU2VydmljZSI+PHBhdGggY29kZUxpbmU9IjkyIiBkPSJNNTE0LDMzNC42OSBDNTE0LDM2OC4zNSA1MTQsNDEyLjA2IDUxNCw0MzYuOTIgIiBmaWxsPSJub25lIiBpZD0iSUNvbXB1dGF0aW9uU2VydmljZS1iYWNrdG8tRXJyb3JIYW5kbGluZ1NlcnZpY2UiIHN0eWxlPSJzdHJva2U6IzE4MTgxODtzdHJva2Utd2lkdGg6MS4wO3N0cm9rZS1kYXNoYXJyYXk6Ny4wLDcuMDsiLz48cG9seWdvbiBmaWxsPSJub25lIiBwb2ludHM9IjUwNywzMzQuMzMsNTE0LDMxNC4zMyw1MjEsMzM0LjMzLDUwNywzMzQuMzMiIHN0eWxlPSJzdHJva2U6IzE4MTgxODtzdHJva2Utd2lkdGg6MS4wOyIvPjwvZz48IS0tcmV2ZXJzZSBsaW5rIElDb21wdXRhdGlvblNlcnZpY2UgdG8gU3RhdGVNYW5hZ2VtZW50U2VydmljZS0tPjxnIGlkPSJsaW5rX0lDb21wdXRhdGlvblNlcnZpY2VfU3RhdGVNYW5hZ2VtZW50U2VydmljZSI+PHBhdGggY29kZUxpbmU9IjkzIiBkPSJNNTU4LjQ3LDMyNy42NSBDNTk3LjAyLDM2Mi4wMSA2NTEuMTYsNDEwLjI5IDY4MS4wNCw0MzYuOTIgIiBmaWxsPSJub25lIiBpZD0iSUNvbXB1dGF0aW9uU2VydmljZS1iYWNrdG8tU3RhdGVNYW5hZ2VtZW50U2VydmljZSIgc3R5bGU9InN0cm9rZTojMTgxODE4O3N0cm9rZS13aWR0aDoxLjA7c3Ryb2tlLWRhc2hhcnJheTo3LjAsNy4wOyIvPjxwb2x5Z29uIGZpbGw9Im5vbmUiIHBvaW50cz0iNTUzLjgsMzMyLjg2LDU0My41MywzMTQuMzMsNTYzLjEyLDMyMi40MSw1NTMuOCwzMzIuODYiIHN0eWxlPSJzdHJva2U6IzE4MTgxODtzdHJva2Utd2lkdGg6MS4wOyIvPjwvZz48IS0tcmV2ZXJzZSBsaW5rIElDb21wdXRhdGlvblNlcnZpY2UgdG8gVGFza1F1ZXVpbmdTZXJ2aWNlLS0+PGcgaWQ9ImxpbmtfSUNvbXB1dGF0aW9uU2VydmljZV9UYXNrUXVldWluZ1NlcnZpY2UiPjxwYXRoIGNvZGVMaW5lPSI5NCIgZD0iTTU5MCwzMjIuNTIgQzY2NS45OCwzNTcuMDMgNzgwLjE0LDQwOC44NyA4NDEuNzksNDM2Ljg4ICIgZmlsbD0ibm9uZSIgaWQ9IklDb21wdXRhdGlvblNlcnZpY2UtYmFja3RvLVRhc2tRdWV1aW5nU2VydmljZSIgc3R5bGU9InN0cm9rZTojMTgxODE4O3N0cm9rZS13aWR0aDoxLjA7c3Ryb2tlLWRhc2hhcnJheTo3LjAsNy4wOyIvPjxwb2x5Z29uIGZpbGw9Im5vbmUiIHBvaW50cz0iNTg2Ljg4LDMyOC43OSw1NzEuNTYsMzE0LjE0LDU5Mi42NywzMTYuMDQsNTg2Ljg4LDMyOC43OSIgc3R5bGU9InN0cm9rZTojMTgxODE4O3N0cm9rZS13aWR0aDoxLjA7Ii8+PC9nPjwhLS1TUkM9W25MRW5SamltNER0djVUbW82MzVRZUVYRzEwT1FEdUt6OTRaWmVmc2xxamFjSjk0MlVOSmhmRnR0YVhHaDJIQWJaRkxZeUV1enRkbDdmb2stNElMb0VZQl9JNko0M3FTZTJncWl0c2wzMm1kTWVrTVdJWXVLZVRiM1dQUlBhcjByNkFXUUc0bFNVazlFRjJEX0N1SmlGMVNyTlVlLVhicnJtci1UVUdwOEdmWDJPWTJrZElMVFhOaTJzekI1Ym1TcC1HbFpfZFNCblViV2o1RmJNYWpfX19VWjg2bXdzZkhlY2tnanpCMU9fUW1MRksyNVY4Rm9aMkdBUUNqSHp6bHR5VG9ReFhobHMxX000ejZBX296MmNYTHk0aFFNUzVkeGJqNUllYWJRNWpvV3laQ1ZmUVBLRUZnNUl6bTZxTDJHcTJoTE5McTJ1R3c5WDNnYWNqOGF6ZlR4ajFPRTY1bnROaFRmdjB4RE1WWnBwS3RSTXdyVU0wMGRRSzNtUUJIX012a21fVXV0T0hyOHlHbjFJSGdVV1ZOYVJnQi0zRU9YWUZOUlFzeGdqU1ZCa0l4ckp4TFNoYU9rRmQzZEN5ZDZjbGNyZ3ZWQnRvQzZjcDRtblU1aW9pdXE4c0RrS2JCUW5yZk5qSUZtWEN2dkpDTTJ1b3lpVjk4eW1qSzRfcUFtdTBVYTl4SEVhY3RFNUlaX3k3VjZRRENsZjlrWjVsLTdoMVVpaHMxRlRYMkxGbHdya0ZJbVRyN2J5M0tSTTlCdlhGd1ptM0Y4MzJKQVprbERQb2ZBbHUtNkFsSVZyMVdIbDdubnc4Unl0NlB4Y1NoT0pSY1FDVFV6UGVSRTlrcEVTZEItdndWYURwQjdPVUNMcFM3XzBXMDBdLS0+PC9nPjwvc3ZnPg==;" parent="TtmFSg_aWq5ySA_oG-eG-89" vertex="1">
            <mxGeometry x="310" y="212.95000000000005" width="1739" height="484" as="geometry" />
          </mxCell>
        </UserObject>
        <UserObject label="" plantUmlData="{&quot;data&quot;:&quot;@startuml\n\n&#39; Hide the Attributeicons for classes and interfaces\nskinparam classAttributeIconSize 0\nskinparam classStereotypeIconSize 0\n\n&#39; Hide the icons for classes and interfaces\nhide circle\n\n&#39; Customize the style\nskinparam class {\n    BackgroundColor White\n    BorderColor Black\n    FontName Helvetica\n    FontSize 16\n    AttributeFontSize 14\n}\n\nskinparam interface {\n    BackgroundColor White\n    BorderColor Black\n    FontName Helvetica\n    FontSize 16\n    AttributeFontSize 14\n}\n\nclass FileManagementController{\n    + loadFile\n    + saveFile\n    + manageStorage\n    + manageFileVersion\n}\n\ninterface IFileManagementService &lt;&lt;interface&gt;&gt;{\n\n}\n\nclass FileReadWriteService{\n\n}\n\nclass FileFormatConversionService{\n\n}\n\nclass StorageManagementService{\n\n}\n\nclass FileMetadataService{\n\n}\n\nclass FileErrorHandlingService{\n\n}\n\nFileManagementController -down..&gt; IFileManagementService : uses\nFileReadWriteService -up..|&gt; IFileManagementService \nFileFormatConversionService -up..|&gt; IFileManagementService \nStorageManagementService -up..|&gt; IFileManagementService \nFileMetadataService -up..|&gt; IFileManagementService\nFileErrorHandlingService -up..|&gt; IFileManagementService \n\n\n\nclass SnapshotController{\n   + createSnapshot\n   + applySnapshot\n   + manageSnapshot\n}\n\ninterface ISnapshotService &lt;&lt;interface&gt;&gt;{\n\n}\n\nclass SnapshotCreationService{\n\n}\n\nclass SnapshotRetrievalService{\n\n}\n\nclass SnapshotManagementService{\n\n}\n\nclass SnapshotMetadataService{\n\n}\n\nSnapshotController -down..&gt; ISnapshotService : uses\nSnapshotCreationService -up..|&gt; ISnapshotService \nSnapshotRetrievalService -up..|&gt; ISnapshotService \nSnapshotManagementService -up..|&gt; ISnapshotService \nSnapshotMetadataService -up..|&gt; ISnapshotService \n\n\n@enduml&quot;,&quot;format&quot;:&quot;svg&quot;}" id="TtmFSg_aWq5ySA_oG-eG-22">
          <mxCell style="shape=image;noLabel=1;verticalAlign=top;aspect=fixed;imageAspect=0;image=data:image/svg+xml,PD94bWwgdmVyc2lvbj0iMS4wIiBlbmNvZGluZz0idXMtYXNjaWkiIHN0YW5kYWxvbmU9Im5vIj8+PHN2ZyB4bWxucz0iaHR0cDovL3d3dy53My5vcmcvMjAwMC9zdmciIHhtbG5zOnhsaW5rPSJodHRwOi8vd3d3LnczLm9yZy8xOTk5L3hsaW5rIiBjb250ZW50U3R5bGVUeXBlPSJ0ZXh0L2NzcyIgaGVpZ2h0PSI0NjlweCIgcHJlc2VydmVBc3BlY3RSYXRpbz0ibm9uZSIgc3R5bGU9IndpZHRoOjE4MTZweDtoZWlnaHQ6NDY5cHg7YmFja2dyb3VuZDojRkZGRkZGOyIgdmVyc2lvbj0iMS4xIiB2aWV3Qm94PSIwIDAgMTgxNiA0NjkiIHdpZHRoPSIxODE2cHgiIHpvb21BbmRQYW49Im1hZ25pZnkiPjxkZWZzLz48Zz48IS0tY2xhc3MgRmlsZU1hbmFnZW1lbnRDb250cm9sbGVyLS0+PGcgaWQ9ImVsZW1fRmlsZU1hbmFnZW1lbnRDb250cm9sbGVyIj48cmVjdCBjb2RlTGluZT0iMjUiIGZpbGw9IiNGRkZGRkYiIGhlaWdodD0iMTAwLjkyMTkiIGlkPSJGaWxlTWFuYWdlbWVudENvbnRyb2xsZXIiIHJ4PSIyLjUiIHJ5PSIyLjUiIHN0eWxlPSJzdHJva2U6IzAwMDAwMDtzdHJva2Utd2lkdGg6MC41OyIgd2lkdGg9IjE3NSIgeD0iMTI1MSIgeT0iNyIvPjx0ZXh0IGZpbGw9IiMwMDAwMDAiIGZvbnQtZmFtaWx5PSJIZWx2ZXRpY2EiIGZvbnQtc2l6ZT0iMTQiIGxlbmd0aEFkanVzdD0ic3BhY2luZyIgdGV4dExlbmd0aD0iMTY5IiB4PSIxMjU0IiB5PSIyNS4yMzQ0Ij5GaWxlTWFuYWdlbWVudENvbnRyb2xsZXI8L3RleHQ+PGxpbmUgc3R5bGU9InN0cm9rZTojMDAwMDAwO3N0cm9rZS13aWR0aDowLjU7IiB4MT0iMTI1MiIgeDI9IjE0MjUiIHkxPSIzMS45ODQ0IiB5Mj0iMzEuOTg0NCIvPjx0ZXh0IGZpbGw9IiMwMDAwMDAiIGZvbnQtZmFtaWx5PSJzYW5zLXNlcmlmIiBmb250LXNpemU9IjE0IiBsZW5ndGhBZGp1c3Q9InNwYWNpbmciIHRleHRMZW5ndGg9IjYzIiB4PSIxMjU3IiB5PSI0OS4yMTg4Ij4rbG9hZEZpbGU8L3RleHQ+PHRleHQgZmlsbD0iIzAwMDAwMCIgZm9udC1mYW1pbHk9InNhbnMtc2VyaWYiIGZvbnQtc2l6ZT0iMTQiIGxlbmd0aEFkanVzdD0ic3BhY2luZyIgdGV4dExlbmd0aD0iNjMiIHg9IjEyNTciIHk9IjY0LjIwMzEiPitzYXZlRmlsZTwvdGV4dD48dGV4dCBmaWxsPSIjMDAwMDAwIiBmb250LWZhbWlseT0ic2Fucy1zZXJpZiIgZm9udC1zaXplPSIxNCIgbGVuZ3RoQWRqdXN0PSJzcGFjaW5nIiB0ZXh0TGVuZ3RoPSI5OSIgeD0iMTI1NyIgeT0iNzkuMTg3NSI+K21hbmFnZVN0b3JhZ2U8L3RleHQ+PHRleHQgZmlsbD0iIzAwMDAwMCIgZm9udC1mYW1pbHk9InNhbnMtc2VyaWYiIGZvbnQtc2l6ZT0iMTQiIGxlbmd0aEFkanVzdD0ic3BhY2luZyIgdGV4dExlbmd0aD0iMTI3IiB4PSIxMjU3IiB5PSI5NC4xNzE5Ij4rbWFuYWdlRmlsZVZlcnNpb248L3RleHQ+PGxpbmUgc3R5bGU9InN0cm9rZTojMDAwMDAwO3N0cm9rZS13aWR0aDowLjU7IiB4MT0iMTI1MiIgeDI9IjE0MjUiIHkxPSI5OS45MjE5IiB5Mj0iOTkuOTIxOSIvPjwvZz48IS0tY2xhc3MgSUZpbGVNYW5hZ2VtZW50U2VydmljZS0tPjxnIGlkPSJlbGVtX0lGaWxlTWFuYWdlbWVudFNlcnZpY2UiPjxyZWN0IGNvZGVMaW5lPSIzMiIgZmlsbD0iI0ZGRkZGRiIgaGVpZ2h0PSI1My44MjgxIiBpZD0iSUZpbGVNYW5hZ2VtZW50U2VydmljZSIgcng9IjIuNSIgcnk9IjIuNSIgc3R5bGU9InN0cm9rZTojMDAwMDAwO3N0cm9rZS13aWR0aDowLjU7IiB3aWR0aD0iMTYxIiB4PSIxMjU4IiB5PSIyNDUiLz48dGV4dCBmaWxsPSIjMDAwMDAwIiBmb250LWZhbWlseT0ic2Fucy1zZXJpZiIgZm9udC1zaXplPSIxMiIgZm9udC1zdHlsZT0iaXRhbGljIiBsZW5ndGhBZGp1c3Q9InNwYWNpbmciIHRleHRMZW5ndGg9IjcxIiB4PSIxMzAzIiB5PSIyNjEuMzQzOCI+JiMxNzE7aW50ZXJmYWNlJiMxODc7PC90ZXh0Pjx0ZXh0IGZpbGw9IiMwMDAwMDAiIGZvbnQtZmFtaWx5PSJIZWx2ZXRpY2EiIGZvbnQtc2l6ZT0iMTQiIGZvbnQtc3R5bGU9Iml0YWxpYyIgbGVuZ3RoQWRqdXN0PSJzcGFjaW5nIiB0ZXh0TGVuZ3RoPSIxNTUiIHg9IjEyNjEiIHk9IjI3Ni4wNzgxIj5JRmlsZU1hbmFnZW1lbnRTZXJ2aWNlPC90ZXh0PjxsaW5lIHN0eWxlPSJzdHJva2U6IzAwMDAwMDtzdHJva2Utd2lkdGg6MC41OyIgeDE9IjEyNTkiIHgyPSIxNDE4IiB5MT0iMjgyLjgyODEiIHkyPSIyODIuODI4MSIvPjxsaW5lIHN0eWxlPSJzdHJva2U6IzAwMDAwMDtzdHJva2Utd2lkdGg6MC41OyIgeDE9IjEyNTkiIHgyPSIxNDE4IiB5MT0iMjkwLjgyODEiIHkyPSIyOTAuODI4MSIvPjwvZz48IS0tY2xhc3MgRmlsZVJlYWRXcml0ZVNlcnZpY2UtLT48ZyBpZD0iZWxlbV9GaWxlUmVhZFdyaXRlU2VydmljZSI+PHJlY3QgY29kZUxpbmU9IjM2IiBmaWxsPSIjRkZGRkZGIiBoZWlnaHQ9IjQwLjk4NDQiIGlkPSJGaWxlUmVhZFdyaXRlU2VydmljZSIgcng9IjIuNSIgcnk9IjIuNSIgc3R5bGU9InN0cm9rZTojMDAwMDAwO3N0cm9rZS13aWR0aDowLjU7IiB3aWR0aD0iMTQ2IiB4PSI4MzguNSIgeT0iNDIyIi8+PHRleHQgZmlsbD0iIzAwMDAwMCIgZm9udC1mYW1pbHk9IkhlbHZldGljYSIgZm9udC1zaXplPSIxNCIgbGVuZ3RoQWRqdXN0PSJzcGFjaW5nIiB0ZXh0TGVuZ3RoPSIxNDAiIHg9Ijg0MS41IiB5PSI0NDAuMjM0NCI+RmlsZVJlYWRXcml0ZVNlcnZpY2U8L3RleHQ+PGxpbmUgc3R5bGU9InN0cm9rZTojMDAwMDAwO3N0cm9rZS13aWR0aDowLjU7IiB4MT0iODM5LjUiIHgyPSI5ODMuNSIgeTE9IjQ0Ni45ODQ0IiB5Mj0iNDQ2Ljk4NDQiLz48bGluZSBzdHlsZT0ic3Ryb2tlOiMwMDAwMDA7c3Ryb2tlLXdpZHRoOjAuNTsiIHgxPSI4MzkuNSIgeDI9Ijk4My41IiB5MT0iNDU0Ljk4NDQiIHkyPSI0NTQuOTg0NCIvPjwvZz48IS0tY2xhc3MgRmlsZUZvcm1hdENvbnZlcnNpb25TZXJ2aWNlLS0+PGcgaWQ9ImVsZW1fRmlsZUZvcm1hdENvbnZlcnNpb25TZXJ2aWNlIj48cmVjdCBjb2RlTGluZT0iNDAiIGZpbGw9IiNGRkZGRkYiIGhlaWdodD0iNDAuOTg0NCIgaWQ9IkZpbGVGb3JtYXRDb252ZXJzaW9uU2VydmljZSIgcng9IjIuNSIgcnk9IjIuNSIgc3R5bGU9InN0cm9rZTojMDAwMDAwO3N0cm9rZS13aWR0aDowLjU7IiB3aWR0aD0iMTk2IiB4PSIxMDE5LjUiIHk9IjQyMiIvPjx0ZXh0IGZpbGw9IiMwMDAwMDAiIGZvbnQtZmFtaWx5PSJIZWx2ZXRpY2EiIGZvbnQtc2l6ZT0iMTQiIGxlbmd0aEFkanVzdD0ic3BhY2luZyIgdGV4dExlbmd0aD0iMTkwIiB4PSIxMDIyLjUiIHk9IjQ0MC4yMzQ0Ij5GaWxlRm9ybWF0Q29udmVyc2lvblNlcnZpY2U8L3RleHQ+PGxpbmUgc3R5bGU9InN0cm9rZTojMDAwMDAwO3N0cm9rZS13aWR0aDowLjU7IiB4MT0iMTAyMC41IiB4Mj0iMTIxNC41IiB5MT0iNDQ2Ljk4NDQiIHkyPSI0NDYuOTg0NCIvPjxsaW5lIHN0eWxlPSJzdHJva2U6IzAwMDAwMDtzdHJva2Utd2lkdGg6MC41OyIgeDE9IjEwMjAuNSIgeDI9IjEyMTQuNSIgeTE9IjQ1NC45ODQ0IiB5Mj0iNDU0Ljk4NDQiLz48L2c+PCEtLWNsYXNzIFN0b3JhZ2VNYW5hZ2VtZW50U2VydmljZS0tPjxnIGlkPSJlbGVtX1N0b3JhZ2VNYW5hZ2VtZW50U2VydmljZSI+PHJlY3QgY29kZUxpbmU9IjQ0IiBmaWxsPSIjRkZGRkZGIiBoZWlnaHQ9IjQwLjk4NDQiIGlkPSJTdG9yYWdlTWFuYWdlbWVudFNlcnZpY2UiIHJ4PSIyLjUiIHJ5PSIyLjUiIHN0eWxlPSJzdHJva2U6IzAwMDAwMDtzdHJva2Utd2lkdGg6MC41OyIgd2lkdGg9IjE3NSIgeD0iMTI1MSIgeT0iNDIyIi8+PHRleHQgZmlsbD0iIzAwMDAwMCIgZm9udC1mYW1pbHk9IkhlbHZldGljYSIgZm9udC1zaXplPSIxNCIgbGVuZ3RoQWRqdXN0PSJzcGFjaW5nIiB0ZXh0TGVuZ3RoPSIxNjkiIHg9IjEyNTQiIHk9IjQ0MC4yMzQ0Ij5TdG9yYWdlTWFuYWdlbWVudFNlcnZpY2U8L3RleHQ+PGxpbmUgc3R5bGU9InN0cm9rZTojMDAwMDAwO3N0cm9rZS13aWR0aDowLjU7IiB4MT0iMTI1MiIgeDI9IjE0MjUiIHkxPSI0NDYuOTg0NCIgeTI9IjQ0Ni45ODQ0Ii8+PGxpbmUgc3R5bGU9InN0cm9rZTojMDAwMDAwO3N0cm9rZS13aWR0aDowLjU7IiB4MT0iMTI1MiIgeDI9IjE0MjUiIHkxPSI0NTQuOTg0NCIgeTI9IjQ1NC45ODQ0Ii8+PC9nPjwhLS1jbGFzcyBGaWxlTWV0YWRhdGFTZXJ2aWNlLS0+PGcgaWQ9ImVsZW1fRmlsZU1ldGFkYXRhU2VydmljZSI+PHJlY3QgY29kZUxpbmU9IjQ4IiBmaWxsPSIjRkZGRkZGIiBoZWlnaHQ9IjQwLjk4NDQiIGlkPSJGaWxlTWV0YWRhdGFTZXJ2aWNlIiByeD0iMi41IiByeT0iMi41IiBzdHlsZT0ic3Ryb2tlOiMwMDAwMDA7c3Ryb2tlLXdpZHRoOjAuNTsiIHdpZHRoPSIxMzkiIHg9IjE0NjEiIHk9IjQyMiIvPjx0ZXh0IGZpbGw9IiMwMDAwMDAiIGZvbnQtZmFtaWx5PSJIZWx2ZXRpY2EiIGZvbnQtc2l6ZT0iMTQiIGxlbmd0aEFkanVzdD0ic3BhY2luZyIgdGV4dExlbmd0aD0iMTMzIiB4PSIxNDY0IiB5PSI0NDAuMjM0NCI+RmlsZU1ldGFkYXRhU2VydmljZTwvdGV4dD48bGluZSBzdHlsZT0ic3Ryb2tlOiMwMDAwMDA7c3Ryb2tlLXdpZHRoOjAuNTsiIHgxPSIxNDYyIiB4Mj0iMTU5OSIgeTE9IjQ0Ni45ODQ0IiB5Mj0iNDQ2Ljk4NDQiLz48bGluZSBzdHlsZT0ic3Ryb2tlOiMwMDAwMDA7c3Ryb2tlLXdpZHRoOjAuNTsiIHgxPSIxNDYyIiB4Mj0iMTU5OSIgeTE9IjQ1NC45ODQ0IiB5Mj0iNDU0Ljk4NDQiLz48L2c+PCEtLWNsYXNzIEZpbGVFcnJvckhhbmRsaW5nU2VydmljZS0tPjxnIGlkPSJlbGVtX0ZpbGVFcnJvckhhbmRsaW5nU2VydmljZSI+PHJlY3QgY29kZUxpbmU9IjUyIiBmaWxsPSIjRkZGRkZGIiBoZWlnaHQ9IjQwLjk4NDQiIGlkPSJGaWxlRXJyb3JIYW5kbGluZ1NlcnZpY2UiIHJ4PSIyLjUiIHJ5PSIyLjUiIHN0eWxlPSJzdHJva2U6IzAwMDAwMDtzdHJva2Utd2lkdGg6MC41OyIgd2lkdGg9IjE3NCIgeD0iMTYzNS41IiB5PSI0MjIiLz48dGV4dCBmaWxsPSIjMDAwMDAwIiBmb250LWZhbWlseT0iSGVsdmV0aWNhIiBmb250LXNpemU9IjE0IiBsZW5ndGhBZGp1c3Q9InNwYWNpbmciIHRleHRMZW5ndGg9IjE2OCIgeD0iMTYzOC41IiB5PSI0NDAuMjM0NCI+RmlsZUVycm9ySGFuZGxpbmdTZXJ2aWNlPC90ZXh0PjxsaW5lIHN0eWxlPSJzdHJva2U6IzAwMDAwMDtzdHJva2Utd2lkdGg6MC41OyIgeDE9IjE2MzYuNSIgeDI9IjE4MDguNSIgeTE9IjQ0Ni45ODQ0IiB5Mj0iNDQ2Ljk4NDQiLz48bGluZSBzdHlsZT0ic3Ryb2tlOiMwMDAwMDA7c3Ryb2tlLXdpZHRoOjAuNTsiIHgxPSIxNjM2LjUiIHgyPSIxODA4LjUiIHkxPSI0NTQuOTg0NCIgeTI9IjQ1NC45ODQ0Ii8+PC9nPjwhLS1jbGFzcyBTbmFwc2hvdENvbnRyb2xsZXItLT48ZyBpZD0iZWxlbV9TbmFwc2hvdENvbnRyb2xsZXIiPjxyZWN0IGNvZGVMaW5lPSI2NSIgZmlsbD0iI0ZGRkZGRiIgaGVpZ2h0PSI4NS45Mzc1IiBpZD0iU25hcHNob3RDb250cm9sbGVyIiByeD0iMi41IiByeT0iMi41IiBzdHlsZT0ic3Ryb2tlOiMwMDAwMDA7c3Ryb2tlLXdpZHRoOjAuNTsiIHdpZHRoPSIxMzIiIHg9IjMzNy41IiB5PSIxNC41Ii8+PHRleHQgZmlsbD0iIzAwMDAwMCIgZm9udC1mYW1pbHk9IkhlbHZldGljYSIgZm9udC1zaXplPSIxNCIgbGVuZ3RoQWRqdXN0PSJzcGFjaW5nIiB0ZXh0TGVuZ3RoPSIxMjYiIHg9IjM0MC41IiB5PSIzMi43MzQ0Ij5TbmFwc2hvdENvbnRyb2xsZXI8L3RleHQ+PGxpbmUgc3R5bGU9InN0cm9rZTojMDAwMDAwO3N0cm9rZS13aWR0aDowLjU7IiB4MT0iMzM4LjUiIHgyPSI0NjguNSIgeTE9IjM5LjQ4NDQiIHkyPSIzOS40ODQ0Ii8+PHRleHQgZmlsbD0iIzAwMDAwMCIgZm9udC1mYW1pbHk9InNhbnMtc2VyaWYiIGZvbnQtc2l6ZT0iMTQiIGxlbmd0aEFkanVzdD0ic3BhY2luZyIgdGV4dExlbmd0aD0iMTA1IiB4PSIzNDMuNSIgeT0iNTYuNzE4OCI+K2NyZWF0ZVNuYXBzaG90PC90ZXh0Pjx0ZXh0IGZpbGw9IiMwMDAwMDAiIGZvbnQtZmFtaWx5PSJzYW5zLXNlcmlmIiBmb250LXNpemU9IjE0IiBsZW5ndGhBZGp1c3Q9InNwYWNpbmciIHRleHRMZW5ndGg9Ijk4IiB4PSIzNDMuNSIgeT0iNzEuNzAzMSI+K2FwcGx5U25hcHNob3Q8L3RleHQ+PHRleHQgZmlsbD0iIzAwMDAwMCIgZm9udC1mYW1pbHk9InNhbnMtc2VyaWYiIGZvbnQtc2l6ZT0iMTQiIGxlbmd0aEFkanVzdD0ic3BhY2luZyIgdGV4dExlbmd0aD0iMTA2IiB4PSIzNDMuNSIgeT0iODYuNjg3NSI+K21hbmFnZVNuYXBzaG90PC90ZXh0PjxsaW5lIHN0eWxlPSJzdHJva2U6IzAwMDAwMDtzdHJva2Utd2lkdGg6MC41OyIgeDE9IjMzOC41IiB4Mj0iNDY4LjUiIHkxPSI5Mi40Mzc1IiB5Mj0iOTIuNDM3NSIvPjwvZz48IS0tY2xhc3MgSVNuYXBzaG90U2VydmljZS0tPjxnIGlkPSJlbGVtX0lTbmFwc2hvdFNlcnZpY2UiPjxyZWN0IGNvZGVMaW5lPSI3MSIgZmlsbD0iI0ZGRkZGRiIgaGVpZ2h0PSI1My44MjgxIiBpZD0iSVNuYXBzaG90U2VydmljZSIgcng9IjIuNSIgcnk9IjIuNSIgc3R5bGU9InN0cm9rZTojMDAwMDAwO3N0cm9rZS13aWR0aDowLjU7IiB3aWR0aD0iMTE4IiB4PSIzNDQuNSIgeT0iMjQ1Ii8+PHRleHQgZmlsbD0iIzAwMDAwMCIgZm9udC1mYW1pbHk9InNhbnMtc2VyaWYiIGZvbnQtc2l6ZT0iMTIiIGZvbnQtc3R5bGU9Iml0YWxpYyIgbGVuZ3RoQWRqdXN0PSJzcGFjaW5nIiB0ZXh0TGVuZ3RoPSI3MSIgeD0iMzY4IiB5PSIyNjEuMzQzOCI+JiMxNzE7aW50ZXJmYWNlJiMxODc7PC90ZXh0Pjx0ZXh0IGZpbGw9IiMwMDAwMDAiIGZvbnQtZmFtaWx5PSJIZWx2ZXRpY2EiIGZvbnQtc2l6ZT0iMTQiIGZvbnQtc3R5bGU9Iml0YWxpYyIgbGVuZ3RoQWRqdXN0PSJzcGFjaW5nIiB0ZXh0TGVuZ3RoPSIxMTIiIHg9IjM0Ny41IiB5PSIyNzYuMDc4MSI+SVNuYXBzaG90U2VydmljZTwvdGV4dD48bGluZSBzdHlsZT0ic3Ryb2tlOiMwMDAwMDA7c3Ryb2tlLXdpZHRoOjAuNTsiIHgxPSIzNDUuNSIgeDI9IjQ2MS41IiB5MT0iMjgyLjgyODEiIHkyPSIyODIuODI4MSIvPjxsaW5lIHN0eWxlPSJzdHJva2U6IzAwMDAwMDtzdHJva2Utd2lkdGg6MC41OyIgeDE9IjM0NS41IiB4Mj0iNDYxLjUiIHkxPSIyOTAuODI4MSIgeTI9IjI5MC44MjgxIi8+PC9nPjwhLS1jbGFzcyBTbmFwc2hvdENyZWF0aW9uU2VydmljZS0tPjxnIGlkPSJlbGVtX1NuYXBzaG90Q3JlYXRpb25TZXJ2aWNlIj48cmVjdCBjb2RlTGluZT0iNzUiIGZpbGw9IiNGRkZGRkYiIGhlaWdodD0iNDAuOTg0NCIgaWQ9IlNuYXBzaG90Q3JlYXRpb25TZXJ2aWNlIiByeD0iMi41IiByeT0iMi41IiBzdHlsZT0ic3Ryb2tlOiMwMDAwMDA7c3Ryb2tlLXdpZHRoOjAuNTsiIHdpZHRoPSIxNjciIHg9IjciIHk9IjQyMiIvPjx0ZXh0IGZpbGw9IiMwMDAwMDAiIGZvbnQtZmFtaWx5PSJIZWx2ZXRpY2EiIGZvbnQtc2l6ZT0iMTQiIGxlbmd0aEFkanVzdD0ic3BhY2luZyIgdGV4dExlbmd0aD0iMTYxIiB4PSIxMCIgeT0iNDQwLjIzNDQiPlNuYXBzaG90Q3JlYXRpb25TZXJ2aWNlPC90ZXh0PjxsaW5lIHN0eWxlPSJzdHJva2U6IzAwMDAwMDtzdHJva2Utd2lkdGg6MC41OyIgeDE9IjgiIHgyPSIxNzMiIHkxPSI0NDYuOTg0NCIgeTI9IjQ0Ni45ODQ0Ii8+PGxpbmUgc3R5bGU9InN0cm9rZTojMDAwMDAwO3N0cm9rZS13aWR0aDowLjU7IiB4MT0iOCIgeDI9IjE3MyIgeTE9IjQ1NC45ODQ0IiB5Mj0iNDU0Ljk4NDQiLz48L2c+PCEtLWNsYXNzIFNuYXBzaG90UmV0cmlldmFsU2VydmljZS0tPjxnIGlkPSJlbGVtX1NuYXBzaG90UmV0cmlldmFsU2VydmljZSI+PHJlY3QgY29kZUxpbmU9Ijc5IiBmaWxsPSIjRkZGRkZGIiBoZWlnaHQ9IjQwLjk4NDQiIGlkPSJTbmFwc2hvdFJldHJpZXZhbFNlcnZpY2UiIHJ4PSIyLjUiIHJ5PSIyLjUiIHN0eWxlPSJzdHJva2U6IzAwMDAwMDtzdHJva2Utd2lkdGg6MC41OyIgd2lkdGg9IjE3NCIgeD0iMjA5LjUiIHk9IjQyMiIvPjx0ZXh0IGZpbGw9IiMwMDAwMDAiIGZvbnQtZmFtaWx5PSJIZWx2ZXRpY2EiIGZvbnQtc2l6ZT0iMTQiIGxlbmd0aEFkanVzdD0ic3BhY2luZyIgdGV4dExlbmd0aD0iMTY4IiB4PSIyMTIuNSIgeT0iNDQwLjIzNDQiPlNuYXBzaG90UmV0cmlldmFsU2VydmljZTwvdGV4dD48bGluZSBzdHlsZT0ic3Ryb2tlOiMwMDAwMDA7c3Ryb2tlLXdpZHRoOjAuNTsiIHgxPSIyMTAuNSIgeDI9IjM4Mi41IiB5MT0iNDQ2Ljk4NDQiIHkyPSI0NDYuOTg0NCIvPjxsaW5lIHN0eWxlPSJzdHJva2U6IzAwMDAwMDtzdHJva2Utd2lkdGg6MC41OyIgeDE9IjIxMC41IiB4Mj0iMzgyLjUiIHkxPSI0NTQuOTg0NCIgeTI9IjQ1NC45ODQ0Ii8+PC9nPjwhLS1jbGFzcyBTbmFwc2hvdE1hbmFnZW1lbnRTZXJ2aWNlLS0+PGcgaWQ9ImVsZW1fU25hcHNob3RNYW5hZ2VtZW50U2VydmljZSI+PHJlY3QgY29kZUxpbmU9IjgzIiBmaWxsPSIjRkZGRkZGIiBoZWlnaHQ9IjQwLjk4NDQiIGlkPSJTbmFwc2hvdE1hbmFnZW1lbnRTZXJ2aWNlIiByeD0iMi41IiByeT0iMi41IiBzdHlsZT0ic3Ryb2tlOiMwMDAwMDA7c3Ryb2tlLXdpZHRoOjAuNTsiIHdpZHRoPSIxODIiIHg9IjQxOC41IiB5PSI0MjIiLz48dGV4dCBmaWxsPSIjMDAwMDAwIiBmb250LWZhbWlseT0iSGVsdmV0aWNhIiBmb250LXNpemU9IjE0IiBsZW5ndGhBZGp1c3Q9InNwYWNpbmciIHRleHRMZW5ndGg9IjE3NiIgeD0iNDIxLjUiIHk9IjQ0MC4yMzQ0Ij5TbmFwc2hvdE1hbmFnZW1lbnRTZXJ2aWNlPC90ZXh0PjxsaW5lIHN0eWxlPSJzdHJva2U6IzAwMDAwMDtzdHJva2Utd2lkdGg6MC41OyIgeDE9IjQxOS41IiB4Mj0iNTk5LjUiIHkxPSI0NDYuOTg0NCIgeTI9IjQ0Ni45ODQ0Ii8+PGxpbmUgc3R5bGU9InN0cm9rZTojMDAwMDAwO3N0cm9rZS13aWR0aDowLjU7IiB4MT0iNDE5LjUiIHgyPSI1OTkuNSIgeTE9IjQ1NC45ODQ0IiB5Mj0iNDU0Ljk4NDQiLz48L2c+PCEtLWNsYXNzIFNuYXBzaG90TWV0YWRhdGFTZXJ2aWNlLS0+PGcgaWQ9ImVsZW1fU25hcHNob3RNZXRhZGF0YVNlcnZpY2UiPjxyZWN0IGNvZGVMaW5lPSI4NyIgZmlsbD0iI0ZGRkZGRiIgaGVpZ2h0PSI0MC45ODQ0IiBpZD0iU25hcHNob3RNZXRhZGF0YVNlcnZpY2UiIHJ4PSIyLjUiIHJ5PSIyLjUiIHN0eWxlPSJzdHJva2U6IzAwMDAwMDtzdHJva2Utd2lkdGg6MC41OyIgd2lkdGg9IjE2NyIgeD0iNjM2IiB5PSI0MjIiLz48dGV4dCBmaWxsPSIjMDAwMDAwIiBmb250LWZhbWlseT0iSGVsdmV0aWNhIiBmb250LXNpemU9IjE0IiBsZW5ndGhBZGp1c3Q9InNwYWNpbmciIHRleHRMZW5ndGg9IjE2MSIgeD0iNjM5IiB5PSI0NDAuMjM0NCI+U25hcHNob3RNZXRhZGF0YVNlcnZpY2U8L3RleHQ+PGxpbmUgc3R5bGU9InN0cm9rZTojMDAwMDAwO3N0cm9rZS13aWR0aDowLjU7IiB4MT0iNjM3IiB4Mj0iODAyIiB5MT0iNDQ2Ljk4NDQiIHkyPSI0NDYuOTg0NCIvPjxsaW5lIHN0eWxlPSJzdHJva2U6IzAwMDAwMDtzdHJva2Utd2lkdGg6MC41OyIgeDE9IjYzNyIgeDI9IjgwMiIgeTE9IjQ1NC45ODQ0IiB5Mj0iNDU0Ljk4NDQiLz48L2c+PCEtLWxpbmsgRmlsZU1hbmFnZW1lbnRDb250cm9sbGVyIHRvIElGaWxlTWFuYWdlbWVudFNlcnZpY2UtLT48ZyBpZD0ibGlua19GaWxlTWFuYWdlbWVudENvbnRyb2xsZXJfSUZpbGVNYW5hZ2VtZW50U2VydmljZSI+PHBhdGggY29kZUxpbmU9IjU2IiBkPSJNMTMzOC41LDEwOC4wNSBDMTMzOC41LDE0OC42OCAxMzM4LjUsMjA0Ljk1IDEzMzguNSwyMzkuNjEgIiBmaWxsPSJub25lIiBpZD0iRmlsZU1hbmFnZW1lbnRDb250cm9sbGVyLXRvLUlGaWxlTWFuYWdlbWVudFNlcnZpY2UiIHN0eWxlPSJzdHJva2U6IzE4MTgxODtzdHJva2Utd2lkdGg6MS4wO3N0cm9rZS1kYXNoYXJyYXk6Ny4wLDcuMDsiLz48cG9seWdvbiBmaWxsPSIjMTgxODE4IiBwb2ludHM9IjEzMzguNSwyNDQuOTgsMTM0Mi41LDIzNS45OCwxMzM4LjUsMjM5Ljk4LDEzMzQuNSwyMzUuOTgsMTMzOC41LDI0NC45OCIgc3R5bGU9InN0cm9rZTojMTgxODE4O3N0cm9rZS13aWR0aDoxLjA7Ii8+PHRleHQgZmlsbD0iIzAwMDAwMCIgZm9udC1mYW1pbHk9InNhbnMtc2VyaWYiIGZvbnQtc2l6ZT0iMTMiIGxlbmd0aEFkanVzdD0ic3BhY2luZyIgdGV4dExlbmd0aD0iMjgiIHg9IjEzMzkuNSIgeT0iMTgyLjI4OTEiPnVzZXM8L3RleHQ+PC9nPjwhLS1yZXZlcnNlIGxpbmsgSUZpbGVNYW5hZ2VtZW50U2VydmljZSB0byBGaWxlUmVhZFdyaXRlU2VydmljZS0tPjxnIGlkPSJsaW5rX0lGaWxlTWFuYWdlbWVudFNlcnZpY2VfRmlsZVJlYWRXcml0ZVNlcnZpY2UiPjxwYXRoIGNvZGVMaW5lPSI1NyIgZD0iTTEyNTMuNTIsMzA2LjU0IEMxMTY2LjA5LDM0MS4wNCAxMDMyLjg3LDM5My42MSA5NjEuMjMsNDIxLjg4ICIgZmlsbD0ibm9uZSIgaWQ9IklGaWxlTWFuYWdlbWVudFNlcnZpY2UtYmFja3RvLUZpbGVSZWFkV3JpdGVTZXJ2aWNlIiBzdHlsZT0ic3Ryb2tlOiMxODE4MTg7c3Ryb2tlLXdpZHRoOjEuMDtzdHJva2UtZGFzaGFycmF5OjcuMCw3LjA7Ii8+PHBvbHlnb24gZmlsbD0ibm9uZSIgcG9pbnRzPSIxMjUxLjA4LDI5OS45NywxMjcyLjI1LDI5OS4xNCwxMjU2LjIyLDMxMywxMjUxLjA4LDI5OS45NyIgc3R5bGU9InN0cm9rZTojMTgxODE4O3N0cm9rZS13aWR0aDoxLjA7Ii8+PC9nPjwhLS1yZXZlcnNlIGxpbmsgSUZpbGVNYW5hZ2VtZW50U2VydmljZSB0byBGaWxlRm9ybWF0Q29udmVyc2lvblNlcnZpY2UtLT48ZyBpZD0ibGlua19JRmlsZU1hbmFnZW1lbnRTZXJ2aWNlX0ZpbGVGb3JtYXRDb252ZXJzaW9uU2VydmljZSI+PHBhdGggY29kZUxpbmU9IjU4IiBkPSJNMTI4OCwzMTEuNTEgQzEyNDIuODQsMzQ1Ljk0IDExNzguNSwzOTQuOTkgMTE0My4xOCw0MjEuOTIgIiBmaWxsPSJub25lIiBpZD0iSUZpbGVNYW5hZ2VtZW50U2VydmljZS1iYWNrdG8tRmlsZUZvcm1hdENvbnZlcnNpb25TZXJ2aWNlIiBzdHlsZT0ic3Ryb2tlOiMxODE4MTg7c3Ryb2tlLXdpZHRoOjEuMDtzdHJva2UtZGFzaGFycmF5OjcuMCw3LjA7Ii8+PHBvbHlnb24gZmlsbD0ibm9uZSIgcG9pbnRzPSIxMjgzLjgyLDMwNS44OSwxMzAzLjk3LDI5OS4zMywxMjkyLjMxLDMxNy4wMiwxMjgzLjgyLDMwNS44OSIgc3R5bGU9InN0cm9rZTojMTgxODE4O3N0cm9rZS13aWR0aDoxLjA7Ii8+PC9nPjwhLS1yZXZlcnNlIGxpbmsgSUZpbGVNYW5hZ2VtZW50U2VydmljZSB0byBTdG9yYWdlTWFuYWdlbWVudFNlcnZpY2UtLT48ZyBpZD0ibGlua19JRmlsZU1hbmFnZW1lbnRTZXJ2aWNlX1N0b3JhZ2VNYW5hZ2VtZW50U2VydmljZSI+PHBhdGggY29kZUxpbmU9IjU5IiBkPSJNMTMzOC41LDMxOS42OSBDMTMzOC41LDM1My4zNSAxMzM4LjUsMzk3LjA2IDEzMzguNSw0MjEuOTIgIiBmaWxsPSJub25lIiBpZD0iSUZpbGVNYW5hZ2VtZW50U2VydmljZS1iYWNrdG8tU3RvcmFnZU1hbmFnZW1lbnRTZXJ2aWNlIiBzdHlsZT0ic3Ryb2tlOiMxODE4MTg7c3Ryb2tlLXdpZHRoOjEuMDtzdHJva2UtZGFzaGFycmF5OjcuMCw3LjA7Ii8+PHBvbHlnb24gZmlsbD0ibm9uZSIgcG9pbnRzPSIxMzMxLjUsMzE5LjMzLDEzMzguNSwyOTkuMzMsMTM0NS41LDMxOS4zMywxMzMxLjUsMzE5LjMzIiBzdHlsZT0ic3Ryb2tlOiMxODE4MTg7c3Ryb2tlLXdpZHRoOjEuMDsiLz48L2c+PCEtLXJldmVyc2UgbGluayBJRmlsZU1hbmFnZW1lbnRTZXJ2aWNlIHRvIEZpbGVNZXRhZGF0YVNlcnZpY2UtLT48ZyBpZD0ibGlua19JRmlsZU1hbmFnZW1lbnRTZXJ2aWNlX0ZpbGVNZXRhZGF0YVNlcnZpY2UiPjxwYXRoIGNvZGVMaW5lPSI2MCIgZD0iTTEzODMuNjgsMzEyLjY1IEMxNDIyLjgzLDM0Ny4wMSAxNDc3Ljg0LDM5NS4yOSAxNTA4LjE5LDQyMS45MiAiIGZpbGw9Im5vbmUiIGlkPSJJRmlsZU1hbmFnZW1lbnRTZXJ2aWNlLWJhY2t0by1GaWxlTWV0YWRhdGFTZXJ2aWNlIiBzdHlsZT0ic3Ryb2tlOiMxODE4MTg7c3Ryb2tlLXdpZHRoOjEuMDtzdHJva2UtZGFzaGFycmF5OjcuMCw3LjA7Ii8+PHBvbHlnb24gZmlsbD0ibm9uZSIgcG9pbnRzPSIxMzc4LjkxLDMxNy43OCwxMzY4LjUsMjk5LjMzLDEzODguMTUsMzA3LjI2LDEzNzguOTEsMzE3Ljc4IiBzdHlsZT0ic3Ryb2tlOiMxODE4MTg7c3Ryb2tlLXdpZHRoOjEuMDsiLz48L2c+PCEtLXJldmVyc2UgbGluayBJRmlsZU1hbmFnZW1lbnRTZXJ2aWNlIHRvIEZpbGVFcnJvckhhbmRsaW5nU2VydmljZS0tPjxnIGlkPSJsaW5rX0lGaWxlTWFuYWdlbWVudFNlcnZpY2VfRmlsZUVycm9ySGFuZGxpbmdTZXJ2aWNlIj48cGF0aCBjb2RlTGluZT0iNjEiIGQ9Ik0xNDE2LjY3LDMwNy4zIEMxNDk1LjMxLDM0MS44MSAxNjEzLjgzLDM5My44MSAxNjc3Ljc4LDQyMS44OCAiIGZpbGw9Im5vbmUiIGlkPSJJRmlsZU1hbmFnZW1lbnRTZXJ2aWNlLWJhY2t0by1GaWxlRXJyb3JIYW5kbGluZ1NlcnZpY2UiIHN0eWxlPSJzdHJva2U6IzE4MTgxODtzdHJva2Utd2lkdGg6MS4wO3N0cm9rZS1kYXNoYXJyYXk6Ny4wLDcuMDsiLz48cG9seWdvbiBmaWxsPSJub25lIiBwb2ludHM9IjE0MTMuNTgsMzEzLjU5LDEzOTguMDgsMjk5LjE0LDE0MTkuMjEsMzAwLjc3LDE0MTMuNTgsMzEzLjU5IiBzdHlsZT0ic3Ryb2tlOiMxODE4MTg7c3Ryb2tlLXdpZHRoOjEuMDsiLz48L2c+PCEtLWxpbmsgU25hcHNob3RDb250cm9sbGVyIHRvIElTbmFwc2hvdFNlcnZpY2UtLT48ZyBpZD0ibGlua19TbmFwc2hvdENvbnRyb2xsZXJfSVNuYXBzaG90U2VydmljZSI+PHBhdGggY29kZUxpbmU9IjkxIiBkPSJNNDAzLjUsMTAwLjc0IEM0MDMuNSwxNDEuNjkgNDAzLjUsMjAyLjg4IDQwMy41LDIzOS42NiAiIGZpbGw9Im5vbmUiIGlkPSJTbmFwc2hvdENvbnRyb2xsZXItdG8tSVNuYXBzaG90U2VydmljZSIgc3R5bGU9InN0cm9rZTojMTgxODE4O3N0cm9rZS13aWR0aDoxLjA7c3Ryb2tlLWRhc2hhcnJheTo3LjAsNy4wOyIvPjxwb2x5Z29uIGZpbGw9IiMxODE4MTgiIHBvaW50cz0iNDAzLjUsMjQ0LjkxLDQwNy41LDIzNS45MSw0MDMuNSwyMzkuOTEsMzk5LjUsMjM1LjkxLDQwMy41LDI0NC45MSIgc3R5bGU9InN0cm9rZTojMTgxODE4O3N0cm9rZS13aWR0aDoxLjA7Ii8+PHRleHQgZmlsbD0iIzAwMDAwMCIgZm9udC1mYW1pbHk9InNhbnMtc2VyaWYiIGZvbnQtc2l6ZT0iMTMiIGxlbmd0aEFkanVzdD0ic3BhY2luZyIgdGV4dExlbmd0aD0iMjgiIHg9IjQwNC41IiB5PSIxODIuMjg5MSI+dXNlczwvdGV4dD48L2c+PCEtLXJldmVyc2UgbGluayBJU25hcHNob3RTZXJ2aWNlIHRvIFNuYXBzaG90Q3JlYXRpb25TZXJ2aWNlLS0+PGcgaWQ9ImxpbmtfSVNuYXBzaG90U2VydmljZV9TbmFwc2hvdENyZWF0aW9uU2VydmljZSI+PHBhdGggY29kZUxpbmU9IjkyIiBkPSJNMzM2LjkyLDMwOC44NCBDMjcyLjg0LDM0My4zNCAxNzguMzEsMzk0LjIzIDEyNi45NSw0MjEuODggIiBmaWxsPSJub25lIiBpZD0iSVNuYXBzaG90U2VydmljZS1iYWNrdG8tU25hcHNob3RDcmVhdGlvblNlcnZpY2UiIHN0eWxlPSJzdHJva2U6IzE4MTgxODtzdHJva2Utd2lkdGg6MS4wO3N0cm9rZS1kYXNoYXJyYXk6Ny4wLDcuMDsiLz48cG9seWdvbiBmaWxsPSJub25lIiBwb2ludHM9IjMzNC4wMSwzMDIuNDYsMzU0Ljk0LDI5OS4xNCwzNDAuNjQsMzE0Ljc5LDMzNC4wMSwzMDIuNDYiIHN0eWxlPSJzdHJva2U6IzE4MTgxODtzdHJva2Utd2lkdGg6MS4wOyIvPjwvZz48IS0tcmV2ZXJzZSBsaW5rIElTbmFwc2hvdFNlcnZpY2UgdG8gU25hcHNob3RSZXRyaWV2YWxTZXJ2aWNlLS0+PGcgaWQ9ImxpbmtfSVNuYXBzaG90U2VydmljZV9TbmFwc2hvdFJldHJpZXZhbFNlcnZpY2UiPjxwYXRoIGNvZGVMaW5lPSI5MyIgZD0iTTM3NS45NiwzMTYuMzYgQzM1NC4zNCwzNTAuNDIgMzI1LjI0LDM5Ni4yMyAzMDguOTMsNDIxLjkyICIgZmlsbD0ibm9uZSIgaWQ9IklTbmFwc2hvdFNlcnZpY2UtYmFja3RvLVNuYXBzaG90UmV0cmlldmFsU2VydmljZSIgc3R5bGU9InN0cm9rZTojMTgxODE4O3N0cm9rZS13aWR0aDoxLjA7c3Ryb2tlLWRhc2hhcnJheTo3LjAsNy4wOyIvPjxwb2x5Z29uIGZpbGw9Im5vbmUiIHBvaW50cz0iMzcwLjE1LDMxMi40NiwzODYuNzgsMjk5LjMzLDM4MS45NywzMTkuOTYsMzcwLjE1LDMxMi40NiIgc3R5bGU9InN0cm9rZTojMTgxODE4O3N0cm9rZS13aWR0aDoxLjA7Ii8+PC9nPjwhLS1yZXZlcnNlIGxpbmsgSVNuYXBzaG90U2VydmljZSB0byBTbmFwc2hvdE1hbmFnZW1lbnRTZXJ2aWNlLS0+PGcgaWQ9ImxpbmtfSVNuYXBzaG90U2VydmljZV9TbmFwc2hvdE1hbmFnZW1lbnRTZXJ2aWNlIj48cGF0aCBjb2RlTGluZT0iOTQiIGQ9Ik00MzAuNzgsMzE2LjM2IEM0NTIuMiwzNTAuNDIgNDgxLjAyLDM5Ni4yMyA0OTcuMTgsNDIxLjkyICIgZmlsbD0ibm9uZSIgaWQ9IklTbmFwc2hvdFNlcnZpY2UtYmFja3RvLVNuYXBzaG90TWFuYWdlbWVudFNlcnZpY2UiIHN0eWxlPSJzdHJva2U6IzE4MTgxODtzdHJva2Utd2lkdGg6MS4wO3N0cm9rZS1kYXNoYXJyYXk6Ny4wLDcuMDsiLz48cG9seWdvbiBmaWxsPSJub25lIiBwb2ludHM9IjQyNC43OSwzMTkuOTgsNDIwLjA2LDI5OS4zMyw0MzYuNjQsMzEyLjUzLDQyNC43OSwzMTkuOTgiIHN0eWxlPSJzdHJva2U6IzE4MTgxODtzdHJva2Utd2lkdGg6MS4wOyIvPjwvZz48IS0tcmV2ZXJzZSBsaW5rIElTbmFwc2hvdFNlcnZpY2UgdG8gU25hcHNob3RNZXRhZGF0YVNlcnZpY2UtLT48ZyBpZD0ibGlua19JU25hcHNob3RTZXJ2aWNlX1NuYXBzaG90TWV0YWRhdGFTZXJ2aWNlIj48cGF0aCBjb2RlTGluZT0iOTUiIGQ9Ik00NzAuMywzMDguNjIgQzUzNS4wMSwzNDMuMTIgNjMwLjc0LDM5NC4xNyA2ODIuNyw0MjEuODggIiBmaWxsPSJub25lIiBpZD0iSVNuYXBzaG90U2VydmljZS1iYWNrdG8tU25hcHNob3RNZXRhZGF0YVNlcnZpY2UiIHN0eWxlPSJzdHJva2U6IzE4MTgxODtzdHJva2Utd2lkdGg6MS4wO3N0cm9rZS1kYXNoYXJyYXk6Ny4wLDcuMDsiLz48cG9seWdvbiBmaWxsPSJub25lIiBwb2ludHM9IjQ2Ni44OCwzMTQuNzMsNDUyLjUzLDI5OS4xNCw0NzMuNDcsMzAyLjM4LDQ2Ni44OCwzMTQuNzMiIHN0eWxlPSJzdHJva2U6IzE4MTgxODtzdHJva2Utd2lkdGg6MS4wOyIvPjwvZz48IS0tU1JDPVtuTEVuUmk4bTREdHo1VHVPQWIwaExIc2cyZ2NXOFpncUd2N0FWNHFFaTczaXdFb2FlaEpfTmZrNEcwbWN0UGVieWhsdF9FdWtCcHEtNUlib2txQi1RMnM5WnlBWUlCR29WQTY5OW5BQ0dTRDFmTG1lWXhJMDEwcXBRdzVvOENXZ0dZRHlUaUFQLTQ5LTdMOWNKZWxRUmw5WjNraVRwM2l6THZ3UDI0ZWFVazZ1QzVQZF9Yd2xEZFJadUMySlJuYnRwbVlJelA5cWVUQW5ia3gtIC1LZk9oMmdRS2dHQTdLYjdzdzRKaFVtaFBDWWRBNGtxOGU0NnRsTHpTeFN4RHFDVjJoVmlYbnFycUpKX0Z1cktFdlc4WUktV084YVBBWmpzNUQ5SThiS2pOTjZmOFZNUy1jWVduQURaamJGRWgyUnRRYzZVejh2YVg1UlV4MzNoU3pqblhiR0ExcHl5RDlKWFNDbFEzUnVYZjdEb3N3WlBPTnNZQUdGVlY1YXZkZzdMRlB1T1hyVXplOEtLQjRKQUpxSVFmWXZ3S2dYYlluRFI5RS1kLWJDRDFpRk92RlV5Uzc1Y3YtUmFfSThWM0J3WktkUFgtNHZqUjJEX0NXdE1yQTVYaVRMclVoN2Mtb2Q4cEtnNzJSdFkySTZ1WFROYjJlQ3lidmlzTDJUclp4S1prT1N4bXpYcXVLcVpHUWlmUi1YLUVvbjFOazFTSjZEM0VmVjhxdEtTdkltU2Zxdk9mRmQzRG1YckIzUkI3b0dOT1hOTm40OExBN3UxXS0tPjwvZz48L3N2Zz4=;" parent="TtmFSg_aWq5ySA_oG-eG-89" vertex="1">
            <mxGeometry x="300" y="900" width="1816" height="469" as="geometry" />
          </mxCell>
        </UserObject>
        <UserObject label="" plantUmlData="{&quot;data&quot;:&quot;@startuml\n\n&#39; Hide the Attributeicons for classes and interfaces\nskinparam classAttributeIconSize 0\nskinparam classStereotypeIconSize 0\n\n&#39; Hide the icons for classes and interfaces\nhide circle\n\n&#39; Customize the style\nskinparam class {\n    BackgroundColor White\n    BorderColor Black\n    FontName Helvetica\n    FontSize 16\n    AttributeFontSize 14\n}\n\nskinparam interface {\n    BackgroundColor White\n    BorderColor Black\n    FontName Helvetica\n    FontSize 16\n    AttributeFontSize 14\n}\n\nclass CustomizationController{\n   + addCustomFunction\n   + removeCustomFunction\n   + triggerEvent\n   + managePluginCofig\n}\n\ninterface ICustomPlugin &lt;&lt;interface&gt;&gt;{\n   + initialize\n   + enable\n   + disable\n   + destory\n}\n\nclass EventBus{\n   + emit\n   + on\n   + off\n}\n\nclass PluginRegistry{\n   + registerPlugin\n   + removePlugin\n   + getPlugin\n}\n\nclass PluginManager{\n   + saveConfig\n   + getConfig\n   + updateConfig\n}\n\nCustomizationController -down..&gt; ICustomPlugin : uses\nCustomizationController -down..&gt; EventBus: uses\nCustomizationController -down..&gt; PluginRegistry : uses\nCustomizationController -down..&gt; PluginManager : uses\n\nEventBus -left..&gt; ICustomPlugin : uses\n\n@enduml&quot;,&quot;format&quot;:&quot;svg&quot;}" id="TtmFSg_aWq5ySA_oG-eG-23">
          <mxCell style="shape=image;noLabel=1;verticalAlign=top;aspect=fixed;imageAspect=0;image=data:image/svg+xml,PD94bWwgdmVyc2lvbj0iMS4wIiBlbmNvZGluZz0idXMtYXNjaWkiIHN0YW5kYWxvbmU9Im5vIj8+PHN2ZyB4bWxucz0iaHR0cDovL3d3dy53My5vcmcvMjAwMC9zdmciIHhtbG5zOnhsaW5rPSJodHRwOi8vd3d3LnczLm9yZy8xOTk5L3hsaW5rIiBjb250ZW50U3R5bGVUeXBlPSJ0ZXh0L2NzcyIgaGVpZ2h0PSIzNjVweCIgcHJlc2VydmVBc3BlY3RSYXRpbz0ibm9uZSIgc3R5bGU9IndpZHRoOjUyOXB4O2hlaWdodDozNjVweDtiYWNrZ3JvdW5kOiNGRkZGRkY7IiB2ZXJzaW9uPSIxLjEiIHZpZXdCb3g9IjAgMCA1MjkgMzY1IiB3aWR0aD0iNTI5cHgiIHpvb21BbmRQYW49Im1hZ25pZnkiPjxkZWZzLz48Zz48IS0tY2xhc3MgQ3VzdG9taXphdGlvbkNvbnRyb2xsZXItLT48ZyBpZD0iZWxlbV9DdXN0b21pemF0aW9uQ29udHJvbGxlciI+PHJlY3QgY29kZUxpbmU9IjI1IiBmaWxsPSIjRkZGRkZGIiBoZWlnaHQ9IjEwMC45MjE5IiBpZD0iQ3VzdG9taXphdGlvbkNvbnRyb2xsZXIiIHJ4PSIyLjUiIHJ5PSIyLjUiIHN0eWxlPSJzdHJva2U6IzAwMDAwMDtzdHJva2Utd2lkdGg6MC41OyIgd2lkdGg9IjE2OCIgeD0iMTkxIiB5PSI3Ii8+PHRleHQgZmlsbD0iIzAwMDAwMCIgZm9udC1mYW1pbHk9IkhlbHZldGljYSIgZm9udC1zaXplPSIxNCIgbGVuZ3RoQWRqdXN0PSJzcGFjaW5nIiB0ZXh0TGVuZ3RoPSIxNjIiIHg9IjE5NCIgeT0iMjUuMjM0NCI+Q3VzdG9taXphdGlvbkNvbnRyb2xsZXI8L3RleHQ+PGxpbmUgc3R5bGU9InN0cm9rZTojMDAwMDAwO3N0cm9rZS13aWR0aDowLjU7IiB4MT0iMTkyIiB4Mj0iMzU4IiB5MT0iMzEuOTg0NCIgeTI9IjMxLjk4NDQiLz48dGV4dCBmaWxsPSIjMDAwMDAwIiBmb250LWZhbWlseT0ic2Fucy1zZXJpZiIgZm9udC1zaXplPSIxNCIgbGVuZ3RoQWRqdXN0PSJzcGFjaW5nIiB0ZXh0TGVuZ3RoPSIxMjciIHg9IjE5NyIgeT0iNDkuMjE4OCI+K2FkZEN1c3RvbUZ1bmN0aW9uPC90ZXh0Pjx0ZXh0IGZpbGw9IiMwMDAwMDAiIGZvbnQtZmFtaWx5PSJzYW5zLXNlcmlmIiBmb250LXNpemU9IjE0IiBsZW5ndGhBZGp1c3Q9InNwYWNpbmciIHRleHRMZW5ndGg9IjE0OSIgeD0iMTk3IiB5PSI2NC4yMDMxIj4rcmVtb3ZlQ3VzdG9tRnVuY3Rpb248L3RleHQ+PHRleHQgZmlsbD0iIzAwMDAwMCIgZm9udC1mYW1pbHk9InNhbnMtc2VyaWYiIGZvbnQtc2l6ZT0iMTQiIGxlbmd0aEFkanVzdD0ic3BhY2luZyIgdGV4dExlbmd0aD0iOTEiIHg9IjE5NyIgeT0iNzkuMTg3NSI+K3RyaWdnZXJFdmVudDwvdGV4dD48dGV4dCBmaWxsPSIjMDAwMDAwIiBmb250LWZhbWlseT0ic2Fucy1zZXJpZiIgZm9udC1zaXplPSIxNCIgbGVuZ3RoQWRqdXN0PSJzcGFjaW5nIiB0ZXh0TGVuZ3RoPSIxMjciIHg9IjE5NyIgeT0iOTQuMTcxOSI+K21hbmFnZVBsdWdpbkNvZmlnPC90ZXh0PjxsaW5lIHN0eWxlPSJzdHJva2U6IzAwMDAwMDtzdHJva2Utd2lkdGg6MC41OyIgeDE9IjE5MiIgeDI9IjM1OCIgeTE9Ijk5LjkyMTkiIHkyPSI5OS45MjE5Ii8+PC9nPjwhLS1jbGFzcyBJQ3VzdG9tUGx1Z2luLS0+PGcgaWQ9ImVsZW1fSUN1c3RvbVBsdWdpbiI+PHJlY3QgY29kZUxpbmU9IjMyIiBmaWxsPSIjRkZGRkZGIiBoZWlnaHQ9IjExMy43NjU2IiBpZD0iSUN1c3RvbVBsdWdpbiIgcng9IjIuNSIgcnk9IjIuNSIgc3R5bGU9InN0cm9rZTojMDAwMDAwO3N0cm9rZS13aWR0aDowLjU7IiB3aWR0aD0iOTgiIHg9IjciIHk9IjI0NSIvPjx0ZXh0IGZpbGw9IiMwMDAwMDAiIGZvbnQtZmFtaWx5PSJzYW5zLXNlcmlmIiBmb250LXNpemU9IjEyIiBmb250LXN0eWxlPSJpdGFsaWMiIGxlbmd0aEFkanVzdD0ic3BhY2luZyIgdGV4dExlbmd0aD0iNzEiIHg9IjIwLjUiIHk9IjI2MS4zNDM4Ij4mIzE3MTtpbnRlcmZhY2UmIzE4Nzs8L3RleHQ+PHRleHQgZmlsbD0iIzAwMDAwMCIgZm9udC1mYW1pbHk9IkhlbHZldGljYSIgZm9udC1zaXplPSIxNCIgZm9udC1zdHlsZT0iaXRhbGljIiBsZW5ndGhBZGp1c3Q9InNwYWNpbmciIHRleHRMZW5ndGg9IjkyIiB4PSIxMCIgeT0iMjc2LjA3ODEiPklDdXN0b21QbHVnaW48L3RleHQ+PGxpbmUgc3R5bGU9InN0cm9rZTojMDAwMDAwO3N0cm9rZS13aWR0aDowLjU7IiB4MT0iOCIgeDI9IjEwNCIgeTE9IjI4Mi44MjgxIiB5Mj0iMjgyLjgyODEiLz48dGV4dCBmaWxsPSIjMDAwMDAwIiBmb250LWZhbWlseT0ic2Fucy1zZXJpZiIgZm9udC1zaXplPSIxNCIgbGVuZ3RoQWRqdXN0PSJzcGFjaW5nIiB0ZXh0TGVuZ3RoPSI3NyIgeD0iMTMiIHk9IjMwMC4wNjI1Ij4raW5pdGlhbGl6ZTwvdGV4dD48dGV4dCBmaWxsPSIjMDAwMDAwIiBmb250LWZhbWlseT0ic2Fucy1zZXJpZiIgZm9udC1zaXplPSIxNCIgbGVuZ3RoQWRqdXN0PSJzcGFjaW5nIiB0ZXh0TGVuZ3RoPSI0OSIgeD0iMTMiIHk9IjMxNS4wNDY5Ij4rZW5hYmxlPC90ZXh0Pjx0ZXh0IGZpbGw9IiMwMDAwMDAiIGZvbnQtZmFtaWx5PSJzYW5zLXNlcmlmIiBmb250LXNpemU9IjE0IiBsZW5ndGhBZGp1c3Q9InNwYWNpbmciIHRleHRMZW5ndGg9IjU2IiB4PSIxMyIgeT0iMzMwLjAzMTMiPitkaXNhYmxlPC90ZXh0Pjx0ZXh0IGZpbGw9IiMwMDAwMDAiIGZvbnQtZmFtaWx5PSJzYW5zLXNlcmlmIiBmb250LXNpemU9IjE0IiBsZW5ndGhBZGp1c3Q9InNwYWNpbmciIHRleHRMZW5ndGg9IjU2IiB4PSIxMyIgeT0iMzQ1LjAxNTYiPitkZXN0b3J5PC90ZXh0PjxsaW5lIHN0eWxlPSJzdHJva2U6IzAwMDAwMDtzdHJva2Utd2lkdGg6MC41OyIgeDE9IjgiIHgyPSIxMDQiIHkxPSIzNTAuNzY1NiIgeTI9IjM1MC43NjU2Ii8+PC9nPjwhLS1jbGFzcyBFdmVudEJ1cy0tPjxnIGlkPSJlbGVtX0V2ZW50QnVzIj48cmVjdCBjb2RlTGluZT0iMzkiIGZpbGw9IiNGRkZGRkYiIGhlaWdodD0iODUuOTM3NSIgaWQ9IkV2ZW50QnVzIiByeD0iMi41IiByeT0iMi41IiBzdHlsZT0ic3Ryb2tlOiMwMDAwMDA7c3Ryb2tlLXdpZHRoOjAuNTsiIHdpZHRoPSI2MiIgeD0iMTcwIiB5PSIyNTkiLz48dGV4dCBmaWxsPSIjMDAwMDAwIiBmb250LWZhbWlseT0iSGVsdmV0aWNhIiBmb250LXNpemU9IjE0IiBsZW5ndGhBZGp1c3Q9InNwYWNpbmciIHRleHRMZW5ndGg9IjU2IiB4PSIxNzMiIHk9IjI3Ny4yMzQ0Ij5FdmVudEJ1czwvdGV4dD48bGluZSBzdHlsZT0ic3Ryb2tlOiMwMDAwMDA7c3Ryb2tlLXdpZHRoOjAuNTsiIHgxPSIxNzEiIHgyPSIyMzEiIHkxPSIyODMuOTg0NCIgeTI9IjI4My45ODQ0Ii8+PHRleHQgZmlsbD0iIzAwMDAwMCIgZm9udC1mYW1pbHk9InNhbnMtc2VyaWYiIGZvbnQtc2l6ZT0iMTQiIGxlbmd0aEFkanVzdD0ic3BhY2luZyIgdGV4dExlbmd0aD0iMzYiIHg9IjE3NiIgeT0iMzAxLjIxODgiPitlbWl0PC90ZXh0Pjx0ZXh0IGZpbGw9IiMwMDAwMDAiIGZvbnQtZmFtaWx5PSJzYW5zLXNlcmlmIiBmb250LXNpemU9IjE0IiBsZW5ndGhBZGp1c3Q9InNwYWNpbmciIHRleHRMZW5ndGg9IjIxIiB4PSIxNzYiIHk9IjMxNi4yMDMxIj4rb248L3RleHQ+PHRleHQgZmlsbD0iIzAwMDAwMCIgZm9udC1mYW1pbHk9InNhbnMtc2VyaWYiIGZvbnQtc2l6ZT0iMTQiIGxlbmd0aEFkanVzdD0ic3BhY2luZyIgdGV4dExlbmd0aD0iMjgiIHg9IjE3NiIgeT0iMzMxLjE4NzUiPitvZmY8L3RleHQ+PGxpbmUgc3R5bGU9InN0cm9rZTojMDAwMDAwO3N0cm9rZS13aWR0aDowLjU7IiB4MT0iMTcxIiB4Mj0iMjMxIiB5MT0iMzM2LjkzNzUiIHkyPSIzMzYuOTM3NSIvPjwvZz48IS0tY2xhc3MgUGx1Z2luUmVnaXN0cnktLT48ZyBpZD0iZWxlbV9QbHVnaW5SZWdpc3RyeSI+PHJlY3QgY29kZUxpbmU9IjQ1IiBmaWxsPSIjRkZGRkZGIiBoZWlnaHQ9Ijg1LjkzNzUiIGlkPSJQbHVnaW5SZWdpc3RyeSIgcng9IjIuNSIgcnk9IjIuNSIgc3R5bGU9InN0cm9rZTojMDAwMDAwO3N0cm9rZS13aWR0aDowLjU7IiB3aWR0aD0iMTE3IiB4PSIyNjcuNSIgeT0iMjU5Ii8+PHRleHQgZmlsbD0iIzAwMDAwMCIgZm9udC1mYW1pbHk9IkhlbHZldGljYSIgZm9udC1zaXplPSIxNCIgbGVuZ3RoQWRqdXN0PSJzcGFjaW5nIiB0ZXh0TGVuZ3RoPSI5OCIgeD0iMjc3IiB5PSIyNzcuMjM0NCI+UGx1Z2luUmVnaXN0cnk8L3RleHQ+PGxpbmUgc3R5bGU9InN0cm9rZTojMDAwMDAwO3N0cm9rZS13aWR0aDowLjU7IiB4MT0iMjY4LjUiIHgyPSIzODMuNSIgeTE9IjI4My45ODQ0IiB5Mj0iMjgzLjk4NDQiLz48dGV4dCBmaWxsPSIjMDAwMDAwIiBmb250LWZhbWlseT0ic2Fucy1zZXJpZiIgZm9udC1zaXplPSIxNCIgbGVuZ3RoQWRqdXN0PSJzcGFjaW5nIiB0ZXh0TGVuZ3RoPSIxMDUiIHg9IjI3My41IiB5PSIzMDEuMjE4OCI+K3JlZ2lzdGVyUGx1Z2luPC90ZXh0Pjx0ZXh0IGZpbGw9IiMwMDAwMDAiIGZvbnQtZmFtaWx5PSJzYW5zLXNlcmlmIiBmb250LXNpemU9IjE0IiBsZW5ndGhBZGp1c3Q9InNwYWNpbmciIHRleHRMZW5ndGg9IjkyIiB4PSIyNzMuNSIgeT0iMzE2LjIwMzEiPityZW1vdmVQbHVnaW48L3RleHQ+PHRleHQgZmlsbD0iIzAwMDAwMCIgZm9udC1mYW1pbHk9InNhbnMtc2VyaWYiIGZvbnQtc2l6ZT0iMTQiIGxlbmd0aEFkanVzdD0ic3BhY2luZyIgdGV4dExlbmd0aD0iNzAiIHg9IjI3My41IiB5PSIzMzEuMTg3NSI+K2dldFBsdWdpbjwvdGV4dD48bGluZSBzdHlsZT0ic3Ryb2tlOiMwMDAwMDA7c3Ryb2tlLXdpZHRoOjAuNTsiIHgxPSIyNjguNSIgeDI9IjM4My41IiB5MT0iMzM2LjkzNzUiIHkyPSIzMzYuOTM3NSIvPjwvZz48IS0tY2xhc3MgUGx1Z2luTWFuYWdlci0tPjxnIGlkPSJlbGVtX1BsdWdpbk1hbmFnZXIiPjxyZWN0IGNvZGVMaW5lPSI1MSIgZmlsbD0iI0ZGRkZGRiIgaGVpZ2h0PSI4NS45Mzc1IiBpZD0iUGx1Z2luTWFuYWdlciIgcng9IjIuNSIgcnk9IjIuNSIgc3R5bGU9InN0cm9rZTojMDAwMDAwO3N0cm9rZS13aWR0aDowLjU7IiB3aWR0aD0iMTAzIiB4PSI0MTkuNSIgeT0iMjU5Ii8+PHRleHQgZmlsbD0iIzAwMDAwMCIgZm9udC1mYW1pbHk9IkhlbHZldGljYSIgZm9udC1zaXplPSIxNCIgbGVuZ3RoQWRqdXN0PSJzcGFjaW5nIiB0ZXh0TGVuZ3RoPSI5MSIgeD0iNDI1LjUiIHk9IjI3Ny4yMzQ0Ij5QbHVnaW5NYW5hZ2VyPC90ZXh0PjxsaW5lIHN0eWxlPSJzdHJva2U6IzAwMDAwMDtzdHJva2Utd2lkdGg6MC41OyIgeDE9IjQyMC41IiB4Mj0iNTIxLjUiIHkxPSIyODMuOTg0NCIgeTI9IjI4My45ODQ0Ii8+PHRleHQgZmlsbD0iIzAwMDAwMCIgZm9udC1mYW1pbHk9InNhbnMtc2VyaWYiIGZvbnQtc2l6ZT0iMTQiIGxlbmd0aEFkanVzdD0ic3BhY2luZyIgdGV4dExlbmd0aD0iNzciIHg9IjQyNS41IiB5PSIzMDEuMjE4OCI+K3NhdmVDb25maWc8L3RleHQ+PHRleHQgZmlsbD0iIzAwMDAwMCIgZm9udC1mYW1pbHk9InNhbnMtc2VyaWYiIGZvbnQtc2l6ZT0iMTQiIGxlbmd0aEFkanVzdD0ic3BhY2luZyIgdGV4dExlbmd0aD0iNzAiIHg9IjQyNS41IiB5PSIzMTYuMjAzMSI+K2dldENvbmZpZzwvdGV4dD48dGV4dCBmaWxsPSIjMDAwMDAwIiBmb250LWZhbWlseT0ic2Fucy1zZXJpZiIgZm9udC1zaXplPSIxNCIgbGVuZ3RoQWRqdXN0PSJzcGFjaW5nIiB0ZXh0TGVuZ3RoPSI5MSIgeD0iNDI1LjUiIHk9IjMzMS4xODc1Ij4rdXBkYXRlQ29uZmlnPC90ZXh0PjxsaW5lIHN0eWxlPSJzdHJva2U6IzAwMDAwMDtzdHJva2Utd2lkdGg6MC41OyIgeDE9IjQyMC41IiB4Mj0iNTIxLjUiIHkxPSIzMzYuOTM3NSIgeTI9IjMzNi45Mzc1Ii8+PC9nPjwhLS1saW5rIEN1c3RvbWl6YXRpb25Db250cm9sbGVyIHRvIElDdXN0b21QbHVnaW4tLT48ZyBpZD0ibGlua19DdXN0b21pemF0aW9uQ29udHJvbGxlcl9JQ3VzdG9tUGx1Z2luIj48cGF0aCBjb2RlTGluZT0iNTciIGQ9Ik0yMzAuMTUsMTA4LjE2IEMxOTUsMTQ3LjA5IDE0NS45OSwyMDEuMzYgMTA4LjkxLDI0Mi40MSAiIGZpbGw9Im5vbmUiIGlkPSJDdXN0b21pemF0aW9uQ29udHJvbGxlci10by1JQ3VzdG9tUGx1Z2luIiBzdHlsZT0ic3Ryb2tlOiMxODE4MTg7c3Ryb2tlLXdpZHRoOjEuMDtzdHJva2UtZGFzaGFycmF5OjcuMCw3LjA7Ii8+PHBvbHlnb24gZmlsbD0iIzE4MTgxOCIgcG9pbnRzPSIxMDUuMzYsMjQ2LjM0LDExNC4zNjE1LDI0Mi4zNDM1LDEwOC43MTE5LDI0Mi42Mjk5LDEwOC40MjU0LDIzNi45ODA0LDEwNS4zNiwyNDYuMzQiIHN0eWxlPSJzdHJva2U6IzE4MTgxODtzdHJva2Utd2lkdGg6MS4wOyIvPjx0ZXh0IGZpbGw9IiMwMDAwMDAiIGZvbnQtZmFtaWx5PSJzYW5zLXNlcmlmIiBmb250LXNpemU9IjEzIiBsZW5ndGhBZGp1c3Q9InNwYWNpbmciIHRleHRMZW5ndGg9IjI4IiB4PSIxNzYiIHk9IjE4Mi4yODkxIj51c2VzPC90ZXh0PjwvZz48IS0tbGluayBDdXN0b21pemF0aW9uQ29udHJvbGxlciB0byBFdmVudEJ1cy0tPjxnIGlkPSJsaW5rX0N1c3RvbWl6YXRpb25Db250cm9sbGVyX0V2ZW50QnVzIj48cGF0aCBjb2RlTGluZT0iNTgiIGQ9Ik0yNTkuODUsMTA4LjE2IEMyNDYuODQsMTUwLjc3IDIyOC4yMywyMTEuNzUgMjE1LjQ0LDI1My42OCAiIGZpbGw9Im5vbmUiIGlkPSJDdXN0b21pemF0aW9uQ29udHJvbGxlci10by1FdmVudEJ1cyIgc3R5bGU9InN0cm9rZTojMTgxODE4O3N0cm9rZS13aWR0aDoxLjA7c3Ryb2tlLWRhc2hhcnJheTo3LjAsNy4wOyIvPjxwb2x5Z29uIGZpbGw9IiMxODE4MTgiIHBvaW50cz0iMjEzLjkxLDI1OC42OSwyMjAuMzY0MiwyNTEuMjUwNywyMTUuMzcwNCwyNTMuOTA4LDIxMi43MTMxLDI0OC45MTQxLDIxMy45MSwyNTguNjkiIHN0eWxlPSJzdHJva2U6IzE4MTgxODtzdHJva2Utd2lkdGg6MS4wOyIvPjx0ZXh0IGZpbGw9IiMwMDAwMDAiIGZvbnQtZmFtaWx5PSJzYW5zLXNlcmlmIiBmb250LXNpemU9IjEzIiBsZW5ndGhBZGp1c3Q9InNwYWNpbmciIHRleHRMZW5ndGg9IjI4IiB4PSIyNDMiIHk9IjE4Mi4yODkxIj51c2VzPC90ZXh0PjwvZz48IS0tbGluayBDdXN0b21pemF0aW9uQ29udHJvbGxlciB0byBQbHVnaW5SZWdpc3RyeS0tPjxnIGlkPSJsaW5rX0N1c3RvbWl6YXRpb25Db250cm9sbGVyX1BsdWdpblJlZ2lzdHJ5Ij48cGF0aCBjb2RlTGluZT0iNTkiIGQ9Ik0yODUuNDQsMTA4LjE2IEMyOTQuNCwxNTAuNzcgMzA3LjIzLDIxMS43NSAzMTYuMDUsMjUzLjY4ICIgZmlsbD0ibm9uZSIgaWQ9IkN1c3RvbWl6YXRpb25Db250cm9sbGVyLXRvLVBsdWdpblJlZ2lzdHJ5IiBzdHlsZT0ic3Ryb2tlOiMxODE4MTg7c3Ryb2tlLXdpZHRoOjEuMDtzdHJva2UtZGFzaGFycmF5OjcuMCw3LjA7Ii8+PHBvbHlnb24gZmlsbD0iIzE4MTgxOCIgcG9pbnRzPSIzMTcuMSwyNTguNjksMzE5LjE2NTgsMjQ5LjA2MDIsMzE2LjA3MjgsMjUzLjc5NjYsMzExLjMzNjQsMjUwLjcwMzcsMzE3LjEsMjU4LjY5IiBzdHlsZT0ic3Ryb2tlOiMxODE4MTg7c3Ryb2tlLXdpZHRoOjEuMDsiLz48dGV4dCBmaWxsPSIjMDAwMDAwIiBmb250LWZhbWlseT0ic2Fucy1zZXJpZiIgZm9udC1zaXplPSIxMyIgbGVuZ3RoQWRqdXN0PSJzcGFjaW5nIiB0ZXh0TGVuZ3RoPSIyOCIgeD0iMzAzIiB5PSIxODIuMjg5MSI+dXNlczwvdGV4dD48L2c+PCEtLWxpbmsgQ3VzdG9taXphdGlvbkNvbnRyb2xsZXIgdG8gUGx1Z2luTWFuYWdlci0tPjxnIGlkPSJsaW5rX0N1c3RvbWl6YXRpb25Db250cm9sbGVyX1BsdWdpbk1hbmFnZXIiPjxwYXRoIGNvZGVMaW5lPSI2MCIgZD0iTTMxNS4xNCwxMDguMTYgQzM0OS44NiwxNTEuMTEgMzk5LjY3LDIxMi43NSA0MzMuNTcsMjU0LjY5ICIgZmlsbD0ibm9uZSIgaWQ9IkN1c3RvbWl6YXRpb25Db250cm9sbGVyLXRvLVBsdWdpbk1hbmFnZXIiIHN0eWxlPSJzdHJva2U6IzE4MTgxODtzdHJva2Utd2lkdGg6MS4wO3N0cm9rZS1kYXNoYXJyYXk6Ny4wLDcuMDsiLz48cG9seWdvbiBmaWxsPSIjMTgxODE4IiBwb2ludHM9IjQzNi44LDI1OC42OSw0MzQuMjUwMiwyNDkuMTc2OSw0MzMuNjU1NywyNTQuODAyNCw0MjguMDMwMSwyNTQuMjA3OSw0MzYuOCwyNTguNjkiIHN0eWxlPSJzdHJva2U6IzE4MTgxODtzdHJva2Utd2lkdGg6MS4wOyIvPjx0ZXh0IGZpbGw9IiMwMDAwMDAiIGZvbnQtZmFtaWx5PSJzYW5zLXNlcmlmIiBmb250LXNpemU9IjEzIiBsZW5ndGhBZGp1c3Q9InNwYWNpbmciIHRleHRMZW5ndGg9IjI4IiB4PSIzNzgiIHk9IjE4Mi4yODkxIj51c2VzPC90ZXh0PjwvZz48IS0tcmV2ZXJzZSBsaW5rIElDdXN0b21QbHVnaW4gdG8gRXZlbnRCdXMtLT48ZyBpZD0ibGlua19JQ3VzdG9tUGx1Z2luX0V2ZW50QnVzIj48cGF0aCBjb2RlTGluZT0iNjIiIGQ9Ik0xMTAuMTUsMzAyIEMxMzAuMjMsMzAyIDE1Mi4zMiwzMDIgMTY5LjY5LDMwMiAiIGZpbGw9Im5vbmUiIGlkPSJJQ3VzdG9tUGx1Z2luLWJhY2t0by1FdmVudEJ1cyIgc3R5bGU9InN0cm9rZTojMTgxODE4O3N0cm9rZS13aWR0aDoxLjA7c3Ryb2tlLWRhc2hhcnJheTo3LjAsNy4wOyIvPjxwb2x5Z29uIGZpbGw9IiMxODE4MTgiIHBvaW50cz0iMTA1LjA5LDMwMiwxMTQuMDksMzA2LDExMC4wOSwzMDIsMTE0LjA5LDI5OCwxMDUuMDksMzAyIiBzdHlsZT0ic3Ryb2tlOiMxODE4MTg7c3Ryb2tlLXdpZHRoOjEuMDsiLz48dGV4dCBmaWxsPSIjMDAwMDAwIiBmb250LWZhbWlseT0ic2Fucy1zZXJpZiIgZm9udC1zaXplPSIxMyIgbGVuZ3RoQWRqdXN0PSJzcGFjaW5nIiB0ZXh0TGVuZ3RoPSIyOCIgeD0iMTIzLjUiIHk9IjI5Ny4yODkxIj51c2VzPC90ZXh0PjwvZz48IS0tU1JDPVtuTEYxSmk5MDRCdHRBLVI2bUswcUNIdUM4SDRZV09GNm9DN3BxZnNNMlRqVGlabDU4RjdWdE5ReFJJS0l6NkhGZFBkdHRobnZKR1VtODhkMDZ1RzdQYWxoYWY1SWVucmFuYUFnWDdGZUc2VzlmMWJqOWI5cVlUa0l0V2FoWVcxZVlLakZORDQ3bWxLZlBFTXZRRlltd3NFSUdSVnl1aXZEWEtwOWZXZWh1Z25xUjhmQWZzOHhGbFpzb0t1dTlrMlZnS1l0a0pNYmJaRVpsRnhSWFhaM241WTlEZElkb2lGZ3hqbmVWWE81bVdCTDdmYklxUlBodHBUdFRUcVV0R3JrYXktYVB3OHJfcHo2R1dPbjl5NWF6Q21aaDU0QVJVdGUyZUlLMEowbFRMZVhHampZT1ZSdXF5SWxvZEVxWnRsSzczZzVxMkI3NXJOY3ZGS3BvZ2xUdFVkQmUxQmNDMXd0YXljYXlLMlFjOEpvbmFFRE1nbkx5b3g5ekdocUlsUkd0TFF4YzlRazRTQTI2YV9IaFNjbzNYcWlsNjlFWmt0WDYyLWpJaEhYc0ItIC10eWNIY185NHhRYS1GZ1JmWDBfRHcyZzNJRWtOdkt1QVpXMGxURVJKbTUyUVRwcVFKS3dva3VWSV9uUU5NSjZMdC1BX3ZtOV9lcEsxSDVPSWJ5REdPU1JkWmxXMl0tLT48L2c+PC9zdmc+;" parent="TtmFSg_aWq5ySA_oG-eG-89" vertex="1">
            <mxGeometry x="952" y="1460" width="529" height="365" as="geometry" />
          </mxCell>
        </UserObject>
        <mxCell id="TtmFSg_aWq5ySA_oG-eG-88" value="&lt;font style=&quot;font-size: 23px&quot;&gt;AppServices Layer&lt;br&gt;&lt;/font&gt;" style="text;html=1;strokeColor=none;fillColor=none;align=center;verticalAlign=middle;whiteSpace=wrap;rounded=0;" parent="TtmFSg_aWq5ySA_oG-eG-89" vertex="1">
          <mxGeometry width="280" height="80" as="geometry" />
        </mxCell>
        <UserObject label="" plantUmlData="{&quot;data&quot;:&quot;@startuml\n\n&#39; Hide the Attributeicons for classes and interfaces\nskinparam classAttributeIconSize 0\nskinparam classStereotypeIconSize 0\n\n&#39; Hide the icons for classes and interfaces\nhide circle\n\n&#39; Customize the style\nskinparam class {\n    BackgroundColor White\n    BorderColor Black\n    FontName Helvetica\n    FontSize 16\n    AttributeFontSize 14\n}\n\nskinparam interface {\n    BackgroundColor White\n    BorderColor Black\n    FontName Helvetica\n    FontSize 16\n    AttributeFontSize 14\n}\n\npackage Services{\n   class Display{}\n   class Computation{}\n   class FileManagement{}\n   class LayoutState{}\n   class CustomizeFunctionality{}\n}\n\n@enduml&quot;,&quot;format&quot;:&quot;svg&quot;}" id="TtmFSg_aWq5ySA_oG-eG-156">
          <mxCell style="shape=image;noLabel=1;verticalAlign=top;aspect=fixed;imageAspect=0;image=data:image/svg+xml,PD94bWwgdmVyc2lvbj0iMS4wIiBlbmNvZGluZz0idXMtYXNjaWkiIHN0YW5kYWxvbmU9Im5vIj8+PHN2ZyB4bWxucz0iaHR0cDovL3d3dy53My5vcmcvMjAwMC9zdmciIHhtbG5zOnhsaW5rPSJodHRwOi8vd3d3LnczLm9yZy8xOTk5L3hsaW5rIiBjb250ZW50U3R5bGVUeXBlPSJ0ZXh0L2NzcyIgaGVpZ2h0PSIyMDRweCIgcHJlc2VydmVBc3BlY3RSYXRpbz0ibm9uZSIgc3R5bGU9IndpZHRoOjM2MXB4O2hlaWdodDoyMDRweDtiYWNrZ3JvdW5kOiNGRkZGRkY7IiB2ZXJzaW9uPSIxLjEiIHZpZXdCb3g9IjAgMCAzNjEgMjA0IiB3aWR0aD0iMzYxcHgiIHpvb21BbmRQYW49Im1hZ25pZnkiPjxkZWZzLz48Zz48IS0tY2x1c3RlciBTZXJ2aWNlcy0tPjxnIGlkPSJjbHVzdGVyX1NlcnZpY2VzIj48cGF0aCBkPSJNOC41LDYgTDY1LjUsNiBBMy43NSwzLjc1IDAgMCAxIDY4LDguNSBMNzUsMjYuOTg0NCBMMzUxLjUsMjYuOTg0NCBBMi41LDIuNSAwIDAgMSAzNTQsMjkuNDg0NCBMMzU0LDE5NC41IEEyLjUsMi41IDAgMCAxIDM1MS41LDE5NyBMOC41LDE5NyBBMi41LDIuNSAwIDAgMSA2LDE5NC41IEw2LDguNSBBMi41LDIuNSAwIDAgMSA4LjUsNiAiIGZpbGw9Im5vbmUiIHN0eWxlPSJzdHJva2U6IzAwMDAwMDtzdHJva2Utd2lkdGg6MS41OyIvPjxsaW5lIHN0eWxlPSJzdHJva2U6IzAwMDAwMDtzdHJva2Utd2lkdGg6MS41OyIgeDE9IjYiIHgyPSI3NSIgeTE9IjI2Ljk4NDQiIHkyPSIyNi45ODQ0Ii8+PHRleHQgZmlsbD0iIzAwMDAwMCIgZm9udC1mYW1pbHk9InNhbnMtc2VyaWYiIGZvbnQtc2l6ZT0iMTQiIGZvbnQtd2VpZ2h0PSJib2xkIiBsZW5ndGhBZGp1c3Q9InNwYWNpbmciIHRleHRMZW5ndGg9IjU2IiB4PSIxMCIgeT0iMjEuMjM0NCI+U2VydmljZXM8L3RleHQ+PC9nPjwhLS1jbGFzcyBEaXNwbGF5LS0+PGcgaWQ9ImVsZW1fRGlzcGxheSI+PHJlY3QgY29kZUxpbmU9IjI2IiBmaWxsPSIjRkZGRkZGIiBoZWlnaHQ9IjQwLjk4NDQiIGlkPSJEaXNwbGF5IiByeD0iMi41IiByeT0iMi41IiBzdHlsZT0ic3Ryb2tlOiMwMDAwMDA7c3Ryb2tlLXdpZHRoOjAuNTsiIHdpZHRoPSI1NSIgeD0iMjIuNSIgeT0iMzkiLz48dGV4dCBmaWxsPSIjMDAwMDAwIiBmb250LWZhbWlseT0iSGVsdmV0aWNhIiBmb250LXNpemU9IjE0IiBsZW5ndGhBZGp1c3Q9InNwYWNpbmciIHRleHRMZW5ndGg9IjQ5IiB4PSIyNS41IiB5PSI1Ny4yMzQ0Ij5EaXNwbGF5PC90ZXh0PjxsaW5lIHN0eWxlPSJzdHJva2U6IzAwMDAwMDtzdHJva2Utd2lkdGg6MC41OyIgeDE9IjIzLjUiIHgyPSI3Ni41IiB5MT0iNjMuOTg0NCIgeTI9IjYzLjk4NDQiLz48bGluZSBzdHlsZT0ic3Ryb2tlOiMwMDAwMDA7c3Ryb2tlLXdpZHRoOjAuNTsiIHgxPSIyMy41IiB4Mj0iNzYuNSIgeTE9IjcxLjk4NDQiIHkyPSI3MS45ODQ0Ii8+PC9nPjwhLS1jbGFzcyBDb21wdXRhdGlvbi0tPjxnIGlkPSJlbGVtX0NvbXB1dGF0aW9uIj48cmVjdCBjb2RlTGluZT0iMjciIGZpbGw9IiNGRkZGRkYiIGhlaWdodD0iNDAuOTg0NCIgaWQ9IkNvbXB1dGF0aW9uIiByeD0iMi41IiByeT0iMi41IiBzdHlsZT0ic3Ryb2tlOiMwMDAwMDA7c3Ryb2tlLXdpZHRoOjAuNTsiIHdpZHRoPSI4NCIgeD0iMTEzIiB5PSIzOSIvPjx0ZXh0IGZpbGw9IiMwMDAwMDAiIGZvbnQtZmFtaWx5PSJIZWx2ZXRpY2EiIGZvbnQtc2l6ZT0iMTQiIGxlbmd0aEFkanVzdD0ic3BhY2luZyIgdGV4dExlbmd0aD0iNzgiIHg9IjExNiIgeT0iNTcuMjM0NCI+Q29tcHV0YXRpb248L3RleHQ+PGxpbmUgc3R5bGU9InN0cm9rZTojMDAwMDAwO3N0cm9rZS13aWR0aDowLjU7IiB4MT0iMTE0IiB4Mj0iMTk2IiB5MT0iNjMuOTg0NCIgeTI9IjYzLjk4NDQiLz48bGluZSBzdHlsZT0ic3Ryb2tlOiMwMDAwMDA7c3Ryb2tlLXdpZHRoOjAuNTsiIHgxPSIxMTQiIHgyPSIxOTYiIHkxPSI3MS45ODQ0IiB5Mj0iNzEuOTg0NCIvPjwvZz48IS0tY2xhc3MgRmlsZU1hbmFnZW1lbnQtLT48ZyBpZD0iZWxlbV9GaWxlTWFuYWdlbWVudCI+PHJlY3QgY29kZUxpbmU9IjI4IiBmaWxsPSIjRkZGRkZGIiBoZWlnaHQ9IjQwLjk4NDQiIGlkPSJGaWxlTWFuYWdlbWVudCIgcng9IjIuNSIgcnk9IjIuNSIgc3R5bGU9InN0cm9rZTojMDAwMDAwO3N0cm9rZS13aWR0aDowLjU7IiB3aWR0aD0iMTA1IiB4PSIyMzIuNSIgeT0iMzkiLz48dGV4dCBmaWxsPSIjMDAwMDAwIiBmb250LWZhbWlseT0iSGVsdmV0aWNhIiBmb250LXNpemU9IjE0IiBsZW5ndGhBZGp1c3Q9InNwYWNpbmciIHRleHRMZW5ndGg9Ijk5IiB4PSIyMzUuNSIgeT0iNTcuMjM0NCI+RmlsZU1hbmFnZW1lbnQ8L3RleHQ+PGxpbmUgc3R5bGU9InN0cm9rZTojMDAwMDAwO3N0cm9rZS13aWR0aDowLjU7IiB4MT0iMjMzLjUiIHgyPSIzMzYuNSIgeTE9IjYzLjk4NDQiIHkyPSI2My45ODQ0Ii8+PGxpbmUgc3R5bGU9InN0cm9rZTojMDAwMDAwO3N0cm9rZS13aWR0aDowLjU7IiB4MT0iMjMzLjUiIHgyPSIzMzYuNSIgeTE9IjcxLjk4NDQiIHkyPSI3MS45ODQ0Ii8+PC9nPjwhLS1jbGFzcyBMYXlvdXRTdGF0ZS0tPjxnIGlkPSJlbGVtX0xheW91dFN0YXRlIj48cmVjdCBjb2RlTGluZT0iMjkiIGZpbGw9IiNGRkZGRkYiIGhlaWdodD0iNDAuOTg0NCIgaWQ9IkxheW91dFN0YXRlIiByeD0iMi41IiByeT0iMi41IiBzdHlsZT0ic3Ryb2tlOiMwMDAwMDA7c3Ryb2tlLXdpZHRoOjAuNTsiIHdpZHRoPSI4MyIgeD0iMjIuNSIgeT0iMTQwIi8+PHRleHQgZmlsbD0iIzAwMDAwMCIgZm9udC1mYW1pbHk9IkhlbHZldGljYSIgZm9udC1zaXplPSIxNCIgbGVuZ3RoQWRqdXN0PSJzcGFjaW5nIiB0ZXh0TGVuZ3RoPSI3NyIgeD0iMjUuNSIgeT0iMTU4LjIzNDQiPkxheW91dFN0YXRlPC90ZXh0PjxsaW5lIHN0eWxlPSJzdHJva2U6IzAwMDAwMDtzdHJva2Utd2lkdGg6MC41OyIgeDE9IjIzLjUiIHgyPSIxMDQuNSIgeTE9IjE2NC45ODQ0IiB5Mj0iMTY0Ljk4NDQiLz48bGluZSBzdHlsZT0ic3Ryb2tlOiMwMDAwMDA7c3Ryb2tlLXdpZHRoOjAuNTsiIHgxPSIyMy41IiB4Mj0iMTA0LjUiIHkxPSIxNzIuOTg0NCIgeTI9IjE3Mi45ODQ0Ii8+PC9nPjwhLS1jbGFzcyBDdXN0b21pemVGdW5jdGlvbmFsaXR5LS0+PGcgaWQ9ImVsZW1fQ3VzdG9taXplRnVuY3Rpb25hbGl0eSI+PHJlY3QgY29kZUxpbmU9IjMwIiBmaWxsPSIjRkZGRkZGIiBoZWlnaHQ9IjQwLjk4NDQiIGlkPSJDdXN0b21pemVGdW5jdGlvbmFsaXR5IiByeD0iMi41IiByeT0iMi41IiBzdHlsZT0ic3Ryb2tlOiMwMDAwMDA7c3Ryb2tlLXdpZHRoOjAuNTsiIHdpZHRoPSIxNjEiIHg9IjE0MC41IiB5PSIxNDAiLz48dGV4dCBmaWxsPSIjMDAwMDAwIiBmb250LWZhbWlseT0iSGVsdmV0aWNhIiBmb250LXNpemU9IjE0IiBsZW5ndGhBZGp1c3Q9InNwYWNpbmciIHRleHRMZW5ndGg9IjE1NSIgeD0iMTQzLjUiIHk9IjE1OC4yMzQ0Ij5DdXN0b21pemVGdW5jdGlvbmFsaXR5PC90ZXh0PjxsaW5lIHN0eWxlPSJzdHJva2U6IzAwMDAwMDtzdHJva2Utd2lkdGg6MC41OyIgeDE9IjE0MS41IiB4Mj0iMzAwLjUiIHkxPSIxNjQuOTg0NCIgeTI9IjE2NC45ODQ0Ii8+PGxpbmUgc3R5bGU9InN0cm9rZTojMDAwMDAwO3N0cm9rZS13aWR0aDowLjU7IiB4MT0iMTQxLjUiIHgyPSIzMDAuNSIgeTE9IjE3Mi45ODQ0IiB5Mj0iMTcyLjk4NDQiLz48L2c+PCEtLVNSQz1bbkw0ekp5Q200RHRwQXN4aDJYOVlmcTVIYU8wYjBfRlhOOWpKN0x6YWRvazVBbHlURW41OXdDQThEeHp4TnB4bHVDMERXUk80SndnVUZ3Q0k2dDQxWmtCMU0wbzEwZzFoVzlzSUZ3QVhLOEdwa251elRaRFg0UnVhT1NyVjE3VXRiM2ZmSU5KZWp2bllqdVJfY1RiY2ZjNWxCNkxYNk9EQWJ0c29Fa1lHdTlqQ2sxUUdwWHhELVVHYmtnT0tjX21fTWJRUTktOFJ5WkV3anVhc2VQS3VWU1VFdTQzc0dpZTY1dFpnVlZ5dXRQVDdodUU3T1ltczlQUm9fckVhSnB2dThnWjlOcFhqUzJlbkItUVBHc3puazh1aEw0aE5IcUxiU0xrdU9hamx3OTlGSHF3dGFyU1M5NmdUOUZKQnYtVFZna1hDVGFGQmNmRjZSbTAwXS0tPjwvZz48L3N2Zz4=;" parent="TtmFSg_aWq5ySA_oG-eG-89" vertex="1">
            <mxGeometry x="50" y="140" width="361" height="204" as="geometry" />
          </mxCell>
        </UserObject>
        <mxCell id="TtmFSg_aWq5ySA_oG-eG-227" value="" style="group" parent="1" vertex="1" connectable="0">
          <mxGeometry x="-1400" y="-2280" width="2390" height="1140" as="geometry" />
        </mxCell>
        <mxCell id="TtmFSg_aWq5ySA_oG-eG-192" value="" style="shape=folder;fontStyle=1;spacingTop=10;tabWidth=260;tabHeight=80;tabPosition=left;html=1;" parent="TtmFSg_aWq5ySA_oG-eG-227" vertex="1">
          <mxGeometry width="2390" height="1140" as="geometry" />
        </mxCell>
        <mxCell id="TtmFSg_aWq5ySA_oG-eG-226" value="&lt;font style=&quot;font-size: 23px&quot;&gt;Presentation Layer&lt;br&gt;&lt;/font&gt;" style="text;html=1;strokeColor=none;fillColor=none;align=center;verticalAlign=middle;whiteSpace=wrap;rounded=0;" parent="TtmFSg_aWq5ySA_oG-eG-227" vertex="1">
          <mxGeometry width="280" height="80" as="geometry" />
        </mxCell>
        <UserObject label="" plantUmlData="{&quot;data&quot;:&quot;@startuml\n\n&#39; Hide the Attributeicons for classes and interfaces\nskinparam classAttributeIconSize 0\nskinparam classStereotypeIconSize 0\n\n&#39; Hide the icons for classes and interfaces\nhide circle\n\n&#39; Customize the style\nskinparam class {\n    BackgroundColor White\n    BorderColor Black\n    FontName Helvetica\n    FontSize 16\n    AttributeFontSize 14\n}\n\nskinparam interface {\n    BackgroundColor White\n    BorderColor Black\n    FontName Helvetica\n    FontSize 16\n    AttributeFontSize 14\n}\n\n\nclass Client{\n- inputData: Data\n- plotPreferences: PlotPreferences\n\n+ uploadData(data: Data)\n+ setPlotPreferences(preferences: PlotPreferences)\n+ interactWithPlot(interaction: ClientInteraction)\n+ saveExportShare()\n}\n\n\nclass PlotManager{\n+ process(data: Data, preferences: PlotPreferences): RenderedPlot\n\n+ computePlotData(data: Data): ComputedData\n\n+ renderPlot(computedData: ComputedData, preferences: PlotPreferences): RenderedPlot\n\n+ adjustPlot(interaction: ClientInteraction)\n}\n\n\nclass ClientInteraction{\n- type: InteractionType\n\n- value: any\n}\n\nclass Data{\n- rawData: array double\n}\n\nclass Plot{\n- visualization: Image\n}\n\nclass PlotPreference{\n- xAxisLabel: string\n\n- yAxisLabel: string\n\n- plotType: PlotType\n\n+ validate(): bool\n}\n\nClient -down..&gt; PlotManager : Requests Plot\nClient -down..&gt; Data : Uploads\nClient -down..&gt; PlotPreference : uses\nClient -down..&gt; ClientInteraction : Performs\n\nPlotManager -down..&gt; Data : uses\nPlotManager -down..&gt; Plot : uses\nPlotManager -down..&gt; PlotPreference : uses\nPlotManager -down..&gt; ClientInteraction : uses\n\n\n@enduml&quot;,&quot;format&quot;:&quot;svg&quot;}" id="TtmFSg_aWq5ySA_oG-eG-157">
          <mxCell style="shape=image;noLabel=1;verticalAlign=top;aspect=fixed;imageAspect=0;image=data:image/svg+xml,PD94bWwgdmVyc2lvbj0iMS4wIiBlbmNvZGluZz0idXMtYXNjaWkiIHN0YW5kYWxvbmU9Im5vIj8+PHN2ZyB4bWxucz0iaHR0cDovL3d3dy53My5vcmcvMjAwMC9zdmciIHhtbG5zOnhsaW5rPSJodHRwOi8vd3d3LnczLm9yZy8xOTk5L3hsaW5rIiBjb250ZW50U3R5bGVUeXBlPSJ0ZXh0L2NzcyIgaGVpZ2h0PSI2OTVweCIgcHJlc2VydmVBc3BlY3RSYXRpbz0ibm9uZSIgc3R5bGU9IndpZHRoOjkzM3B4O2hlaWdodDo2OTVweDtiYWNrZ3JvdW5kOiNGRkZGRkY7IiB2ZXJzaW9uPSIxLjEiIHZpZXdCb3g9IjAgMCA5MzMgNjk1IiB3aWR0aD0iOTMzcHgiIHpvb21BbmRQYW49Im1hZ25pZnkiPjxkZWZzLz48Zz48IS0tY2xhc3MgQ2xpZW50LS0+PGcgaWQ9ImVsZW1fQ2xpZW50Ij48cmVjdCBjb2RlTGluZT0iMjYiIGZpbGw9IiNGRkZGRkYiIGhlaWdodD0iMTMwLjg5MDYiIGlkPSJDbGllbnQiIHJ4PSIyLjUiIHJ5PSIyLjUiIHN0eWxlPSJzdHJva2U6IzAwMDAwMDtzdHJva2Utd2lkdGg6MC41OyIgd2lkdGg9IjM1NyIgeD0iNDkzLjUiIHk9IjciLz48dGV4dCBmaWxsPSIjMDAwMDAwIiBmb250LWZhbWlseT0iSGVsdmV0aWNhIiBmb250LXNpemU9IjE0IiBsZW5ndGhBZGp1c3Q9InNwYWNpbmciIHRleHRMZW5ndGg9IjQyIiB4PSI2NTEiIHk9IjI1LjIzNDQiPkNsaWVudDwvdGV4dD48bGluZSBzdHlsZT0ic3Ryb2tlOiMwMDAwMDA7c3Ryb2tlLXdpZHRoOjAuNTsiIHgxPSI0OTQuNSIgeDI9Ijg0OS41IiB5MT0iMzEuOTg0NCIgeTI9IjMxLjk4NDQiLz48dGV4dCBmaWxsPSIjMDAwMDAwIiBmb250LWZhbWlseT0ic2Fucy1zZXJpZiIgZm9udC1zaXplPSIxNCIgbGVuZ3RoQWRqdXN0PSJzcGFjaW5nIiB0ZXh0TGVuZ3RoPSIxMTIiIHg9IjQ5OS41IiB5PSI0OS4yMTg4Ij4taW5wdXREYXRhOiBEYXRhPC90ZXh0Pjx0ZXh0IGZpbGw9IiMwMDAwMDAiIGZvbnQtZmFtaWx5PSJzYW5zLXNlcmlmIiBmb250LXNpemU9IjE0IiBsZW5ndGhBZGp1c3Q9InNwYWNpbmciIHRleHRMZW5ndGg9IjIzMSIgeD0iNDk5LjUiIHk9IjY0LjIwMzEiPi1wbG90UHJlZmVyZW5jZXM6IFBsb3RQcmVmZXJlbmNlczwvdGV4dD48bGluZSBzdHlsZT0ic3Ryb2tlOiMwMDAwMDA7c3Ryb2tlLXdpZHRoOjAuNTsiIHgxPSI0OTQuNSIgeDI9Ijg0OS41IiB5MT0iNjkuOTUzMSIgeTI9IjY5Ljk1MzEiLz48dGV4dCBmaWxsPSIjMDAwMDAwIiBmb250LWZhbWlseT0ic2Fucy1zZXJpZiIgZm9udC1zaXplPSIxNCIgbGVuZ3RoQWRqdXN0PSJzcGFjaW5nIiB0ZXh0TGVuZ3RoPSIxNjMiIHg9IjQ5OS41IiB5PSI4Ny4xODc1Ij4rdXBsb2FkRGF0YShkYXRhOiBEYXRhKTwvdGV4dD48dGV4dCBmaWxsPSIjMDAwMDAwIiBmb250LWZhbWlseT0ic2Fucy1zZXJpZiIgZm9udC1zaXplPSIxNCIgbGVuZ3RoQWRqdXN0PSJzcGFjaW5nIiB0ZXh0TGVuZ3RoPSIzNDUiIHg9IjQ5OS41IiB5PSIxMDIuMTcxOSI+K3NldFBsb3RQcmVmZXJlbmNlcyhwcmVmZXJlbmNlczogUGxvdFByZWZlcmVuY2VzKTwvdGV4dD48dGV4dCBmaWxsPSIjMDAwMDAwIiBmb250LWZhbWlseT0ic2Fucy1zZXJpZiIgZm9udC1zaXplPSIxNCIgbGVuZ3RoQWRqdXN0PSJzcGFjaW5nIiB0ZXh0TGVuZ3RoPSIzNDUiIHg9IjQ5OS41IiB5PSIxMTcuMTU2MyI+K2ludGVyYWN0V2l0aFBsb3QoaW50ZXJhY3Rpb246IENsaWVudEludGVyYWN0aW9uKTwvdGV4dD48dGV4dCBmaWxsPSIjMDAwMDAwIiBmb250LWZhbWlseT0ic2Fucy1zZXJpZiIgZm9udC1zaXplPSIxNCIgbGVuZ3RoQWRqdXN0PSJzcGFjaW5nIiB0ZXh0TGVuZ3RoPSIxMjgiIHg9IjQ5OS41IiB5PSIxMzIuMTQwNiI+K3NhdmVFeHBvcnRTaGFyZSgpPC90ZXh0PjwvZz48IS0tY2xhc3MgUGxvdE1hbmFnZXItLT48ZyBpZD0iZWxlbV9QbG90TWFuYWdlciI+PHJlY3QgY29kZUxpbmU9IjM3IiBmaWxsPSIjRkZGRkZGIiBoZWlnaHQ9IjE0NS44NzUiIGlkPSJQbG90TWFuYWdlciIgcng9IjIuNSIgcnk9IjIuNSIgc3R5bGU9InN0cm9rZTojMDAwMDAwO3N0cm9rZS13aWR0aDowLjU7IiB3aWR0aD0iNTk3IiB4PSI5Ny41IiB5PSIyNzUiLz48dGV4dCBmaWxsPSIjMDAwMDAwIiBmb250LWZhbWlseT0iSGVsdmV0aWNhIiBmb250LXNpemU9IjE0IiBsZW5ndGhBZGp1c3Q9InNwYWNpbmciIHRleHRMZW5ndGg9Ijc3IiB4PSIzNTcuNSIgeT0iMjkzLjIzNDQiPlBsb3RNYW5hZ2VyPC90ZXh0PjxsaW5lIHN0eWxlPSJzdHJva2U6IzAwMDAwMDtzdHJva2Utd2lkdGg6MC41OyIgeDE9Ijk4LjUiIHgyPSI2OTMuNSIgeTE9IjI5OS45ODQ0IiB5Mj0iMjk5Ljk4NDQiLz48bGluZSBzdHlsZT0ic3Ryb2tlOiMwMDAwMDA7c3Ryb2tlLXdpZHRoOjAuNTsiIHgxPSI5OC41IiB4Mj0iNjkzLjUiIHkxPSIzMDcuOTg0NCIgeTI9IjMwNy45ODQ0Ii8+PHRleHQgZmlsbD0iIzAwMDAwMCIgZm9udC1mYW1pbHk9InNhbnMtc2VyaWYiIGZvbnQtc2l6ZT0iMTQiIGxlbmd0aEFkanVzdD0ic3BhY2luZyIgdGV4dExlbmd0aD0iNDUwIiB4PSIxMDMuNSIgeT0iMzI1LjIxODgiPitwcm9jZXNzKGRhdGE6IERhdGEsIHByZWZlcmVuY2VzOiBQbG90UHJlZmVyZW5jZXMpOiBSZW5kZXJlZFBsb3Q8L3RleHQ+PHRleHQgZmlsbD0iIzAwMDAwMCIgZm9udC1mYW1pbHk9InNhbnMtc2VyaWYiIGZvbnQtc2l6ZT0iMTQiIGxlbmd0aEFkanVzdD0ic3BhY2luZyIgdGV4dExlbmd0aD0iNyIgeD0iMTAzLjUiIHk9IjM0MC4yMDMxIj4mIzE2MDs8L3RleHQ+PHRleHQgZmlsbD0iIzAwMDAwMCIgZm9udC1mYW1pbHk9InNhbnMtc2VyaWYiIGZvbnQtc2l6ZT0iMTQiIGxlbmd0aEFkanVzdD0ic3BhY2luZyIgdGV4dExlbmd0aD0iMjk4IiB4PSIxMDMuNSIgeT0iMzU1LjE4NzUiPitjb21wdXRlUGxvdERhdGEoZGF0YTogRGF0YSk6IENvbXB1dGVkRGF0YTwvdGV4dD48dGV4dCBmaWxsPSIjMDAwMDAwIiBmb250LWZhbWlseT0ic2Fucy1zZXJpZiIgZm9udC1zaXplPSIxNCIgbGVuZ3RoQWRqdXN0PSJzcGFjaW5nIiB0ZXh0TGVuZ3RoPSI3IiB4PSIxMDMuNSIgeT0iMzcwLjE3MTkiPiYjMTYwOzwvdGV4dD48dGV4dCBmaWxsPSIjMDAwMDAwIiBmb250LWZhbWlseT0ic2Fucy1zZXJpZiIgZm9udC1zaXplPSIxNCIgbGVuZ3RoQWRqdXN0PSJzcGFjaW5nIiB0ZXh0TGVuZ3RoPSI1ODUiIHg9IjEwMy41IiB5PSIzODUuMTU2MyI+K3JlbmRlclBsb3QoY29tcHV0ZWREYXRhOiBDb21wdXRlZERhdGEsIHByZWZlcmVuY2VzOiBQbG90UHJlZmVyZW5jZXMpOiBSZW5kZXJlZFBsb3Q8L3RleHQ+PHRleHQgZmlsbD0iIzAwMDAwMCIgZm9udC1mYW1pbHk9InNhbnMtc2VyaWYiIGZvbnQtc2l6ZT0iMTQiIGxlbmd0aEFkanVzdD0ic3BhY2luZyIgdGV4dExlbmd0aD0iNyIgeD0iMTAzLjUiIHk9IjQwMC4xNDA2Ij4mIzE2MDs8L3RleHQ+PHRleHQgZmlsbD0iIzAwMDAwMCIgZm9udC1mYW1pbHk9InNhbnMtc2VyaWYiIGZvbnQtc2l6ZT0iMTQiIGxlbmd0aEFkanVzdD0ic3BhY2luZyIgdGV4dExlbmd0aD0iMzAzIiB4PSIxMDMuNSIgeT0iNDE1LjEyNSI+K2FkanVzdFBsb3QoaW50ZXJhY3Rpb246IENsaWVudEludGVyYWN0aW9uKTwvdGV4dD48L2c+PCEtLWNsYXNzIENsaWVudEludGVyYWN0aW9uLS0+PGcgaWQ9ImVsZW1fQ2xpZW50SW50ZXJhY3Rpb24iPjxyZWN0IGNvZGVMaW5lPSI0OCIgZmlsbD0iI0ZGRkZGRiIgaGVpZ2h0PSI4NS45Mzc1IiBpZD0iQ2xpZW50SW50ZXJhY3Rpb24iIHJ4PSIyLjUiIHJ5PSIyLjUiIHN0eWxlPSJzdHJva2U6IzAwMDAwMDtzdHJva2Utd2lkdGg6MC41OyIgd2lkdGg9IjE2NiIgeD0iMTkiIHk9IjU4MC41Ii8+PHRleHQgZmlsbD0iIzAwMDAwMCIgZm9udC1mYW1pbHk9IkhlbHZldGljYSIgZm9udC1zaXplPSIxNCIgbGVuZ3RoQWRqdXN0PSJzcGFjaW5nIiB0ZXh0TGVuZ3RoPSIxMTkiIHg9IjQyLjUiIHk9IjU5OC43MzQ0Ij5DbGllbnRJbnRlcmFjdGlvbjwvdGV4dD48bGluZSBzdHlsZT0ic3Ryb2tlOiMwMDAwMDA7c3Ryb2tlLXdpZHRoOjAuNTsiIHgxPSIyMCIgeDI9IjE4NCIgeTE9IjYwNS40ODQ0IiB5Mj0iNjA1LjQ4NDQiLz48dGV4dCBmaWxsPSIjMDAwMDAwIiBmb250LWZhbWlseT0ic2Fucy1zZXJpZiIgZm9udC1zaXplPSIxNCIgbGVuZ3RoQWRqdXN0PSJzcGFjaW5nIiB0ZXh0TGVuZ3RoPSIxNTQiIHg9IjI1IiB5PSI2MjIuNzE4OCI+LXR5cGU6IEludGVyYWN0aW9uVHlwZTwvdGV4dD48dGV4dCBmaWxsPSIjMDAwMDAwIiBmb250LWZhbWlseT0ic2Fucy1zZXJpZiIgZm9udC1zaXplPSIxNCIgbGVuZ3RoQWRqdXN0PSJzcGFjaW5nIiB0ZXh0TGVuZ3RoPSI3IiB4PSIyNSIgeT0iNjM3LjcwMzEiPiYjMTYwOzwvdGV4dD48dGV4dCBmaWxsPSIjMDAwMDAwIiBmb250LWZhbWlseT0ic2Fucy1zZXJpZiIgZm9udC1zaXplPSIxNCIgbGVuZ3RoQWRqdXN0PSJzcGFjaW5nIiB0ZXh0TGVuZ3RoPSI3NyIgeD0iMjUiIHk9IjY1Mi42ODc1Ij4tdmFsdWU6IGFueTwvdGV4dD48bGluZSBzdHlsZT0ic3Ryb2tlOiMwMDAwMDA7c3Ryb2tlLXdpZHRoOjAuNTsiIHgxPSIyMCIgeDI9IjE4NCIgeTE9IjY1OC40Mzc1IiB5Mj0iNjU4LjQzNzUiLz48L2c+PCEtLWNsYXNzIERhdGEtLT48ZyBpZD0iZWxlbV9EYXRhIj48cmVjdCBjb2RlTGluZT0iNTQiIGZpbGw9IiNGRkZGRkYiIGhlaWdodD0iNTUuOTY4OCIgaWQ9IkRhdGEiIHJ4PSIyLjUiIHJ5PSIyLjUiIHN0eWxlPSJzdHJva2U6IzAwMDAwMDtzdHJva2Utd2lkdGg6MC41OyIgd2lkdGg9IjE2NyIgeD0iNzU5LjUiIHk9IjU5NS41Ii8+PHRleHQgZmlsbD0iIzAwMDAwMCIgZm9udC1mYW1pbHk9IkhlbHZldGljYSIgZm9udC1zaXplPSIxNCIgbGVuZ3RoQWRqdXN0PSJzcGFjaW5nIiB0ZXh0TGVuZ3RoPSIyOCIgeD0iODI5IiB5PSI2MTMuNzM0NCI+RGF0YTwvdGV4dD48bGluZSBzdHlsZT0ic3Ryb2tlOiMwMDAwMDA7c3Ryb2tlLXdpZHRoOjAuNTsiIHgxPSI3NjAuNSIgeDI9IjkyNS41IiB5MT0iNjIwLjQ4NDQiIHkyPSI2MjAuNDg0NCIvPjx0ZXh0IGZpbGw9IiMwMDAwMDAiIGZvbnQtZmFtaWx5PSJzYW5zLXNlcmlmIiBmb250LXNpemU9IjE0IiBsZW5ndGhBZGp1c3Q9InNwYWNpbmciIHRleHRMZW5ndGg9IjE1NSIgeD0iNzY1LjUiIHk9IjYzNy43MTg4Ij4tcmF3RGF0YTogYXJyYXkgZG91YmxlPC90ZXh0PjxsaW5lIHN0eWxlPSJzdHJva2U6IzAwMDAwMDtzdHJva2Utd2lkdGg6MC41OyIgeDE9Ijc2MC41IiB4Mj0iOTI1LjUiIHkxPSI2NDMuNDY4OCIgeTI9IjY0My40Njg4Ii8+PC9nPjwhLS1jbGFzcyBQbG90LS0+PGcgaWQ9ImVsZW1fUGxvdCI+PHJlY3QgY29kZUxpbmU9IjU4IiBmaWxsPSIjRkZGRkZGIiBoZWlnaHQ9IjU1Ljk2ODgiIGlkPSJQbG90IiByeD0iMi41IiByeT0iMi41IiBzdHlsZT0ic3Ryb2tlOiMwMDAwMDA7c3Ryb2tlLXdpZHRoOjAuNTsiIHdpZHRoPSIxNjAiIHg9IjMxNiIgeT0iNTk1LjUiLz48dGV4dCBmaWxsPSIjMDAwMDAwIiBmb250LWZhbWlseT0iSGVsdmV0aWNhIiBmb250LXNpemU9IjE0IiBsZW5ndGhBZGp1c3Q9InNwYWNpbmciIHRleHRMZW5ndGg9IjI4IiB4PSIzODIiIHk9IjYxMy43MzQ0Ij5QbG90PC90ZXh0PjxsaW5lIHN0eWxlPSJzdHJva2U6IzAwMDAwMDtzdHJva2Utd2lkdGg6MC41OyIgeDE9IjMxNyIgeDI9IjQ3NSIgeTE9IjYyMC40ODQ0IiB5Mj0iNjIwLjQ4NDQiLz48dGV4dCBmaWxsPSIjMDAwMDAwIiBmb250LWZhbWlseT0ic2Fucy1zZXJpZiIgZm9udC1zaXplPSIxNCIgbGVuZ3RoQWRqdXN0PSJzcGFjaW5nIiB0ZXh0TGVuZ3RoPSIxNDgiIHg9IjMyMiIgeT0iNjM3LjcxODgiPi12aXN1YWxpemF0aW9uOiBJbWFnZTwvdGV4dD48bGluZSBzdHlsZT0ic3Ryb2tlOiMwMDAwMDA7c3Ryb2tlLXdpZHRoOjAuNTsiIHgxPSIzMTciIHgyPSI0NzUiIHkxPSI2NDMuNDY4OCIgeTI9IjY0My40Njg4Ii8+PC9nPjwhLS1jbGFzcyBQbG90UHJlZmVyZW5jZS0tPjxnIGlkPSJlbGVtX1Bsb3RQcmVmZXJlbmNlIj48cmVjdCBjb2RlTGluZT0iNjIiIGZpbGw9IiNGRkZGRkYiIGhlaWdodD0iMTMwLjg5MDYiIGlkPSJQbG90UHJlZmVyZW5jZSIgcng9IjIuNSIgcnk9IjIuNSIgc3R5bGU9InN0cm9rZTojMDAwMDAwO3N0cm9rZS13aWR0aDowLjU7IiB3aWR0aD0iMTQ1IiB4PSI1MzQuNSIgeT0iNTU4Ii8+PHRleHQgZmlsbD0iIzAwMDAwMCIgZm9udC1mYW1pbHk9IkhlbHZldGljYSIgZm9udC1zaXplPSIxNCIgbGVuZ3RoQWRqdXN0PSJzcGFjaW5nIiB0ZXh0TGVuZ3RoPSI5OCIgeD0iNTU4IiB5PSI1NzYuMjM0NCI+UGxvdFByZWZlcmVuY2U8L3RleHQ+PGxpbmUgc3R5bGU9InN0cm9rZTojMDAwMDAwO3N0cm9rZS13aWR0aDowLjU7IiB4MT0iNTM1LjUiIHgyPSI2NzguNSIgeTE9IjU4Mi45ODQ0IiB5Mj0iNTgyLjk4NDQiLz48dGV4dCBmaWxsPSIjMDAwMDAwIiBmb250LWZhbWlseT0ic2Fucy1zZXJpZiIgZm9udC1zaXplPSIxNCIgbGVuZ3RoQWRqdXN0PSJzcGFjaW5nIiB0ZXh0TGVuZ3RoPSIxMzMiIHg9IjU0MC41IiB5PSI2MDAuMjE4OCI+LXhBeGlzTGFiZWw6IHN0cmluZzwvdGV4dD48dGV4dCBmaWxsPSIjMDAwMDAwIiBmb250LWZhbWlseT0ic2Fucy1zZXJpZiIgZm9udC1zaXplPSIxNCIgbGVuZ3RoQWRqdXN0PSJzcGFjaW5nIiB0ZXh0TGVuZ3RoPSI3IiB4PSI1NDAuNSIgeT0iNjE1LjIwMzEiPiYjMTYwOzwvdGV4dD48dGV4dCBmaWxsPSIjMDAwMDAwIiBmb250LWZhbWlseT0ic2Fucy1zZXJpZiIgZm9udC1zaXplPSIxNCIgbGVuZ3RoQWRqdXN0PSJzcGFjaW5nIiB0ZXh0TGVuZ3RoPSIxMzMiIHg9IjU0MC41IiB5PSI2MzAuMTg3NSI+LXlBeGlzTGFiZWw6IHN0cmluZzwvdGV4dD48dGV4dCBmaWxsPSIjMDAwMDAwIiBmb250LWZhbWlseT0ic2Fucy1zZXJpZiIgZm9udC1zaXplPSIxNCIgbGVuZ3RoQWRqdXN0PSJzcGFjaW5nIiB0ZXh0TGVuZ3RoPSI3IiB4PSI1NDAuNSIgeT0iNjQ1LjE3MTkiPiYjMTYwOzwvdGV4dD48dGV4dCBmaWxsPSIjMDAwMDAwIiBmb250LWZhbWlseT0ic2Fucy1zZXJpZiIgZm9udC1zaXplPSIxNCIgbGVuZ3RoQWRqdXN0PSJzcGFjaW5nIiB0ZXh0TGVuZ3RoPSIxMzMiIHg9IjU0MC41IiB5PSI2NjAuMTU2MyI+LXBsb3RUeXBlOiBQbG90VHlwZTwvdGV4dD48bGluZSBzdHlsZT0ic3Ryb2tlOiMwMDAwMDA7c3Ryb2tlLXdpZHRoOjAuNTsiIHgxPSI1MzUuNSIgeDI9IjY3OC41IiB5MT0iNjY1LjkwNjMiIHkyPSI2NjUuOTA2MyIvPjx0ZXh0IGZpbGw9IiMwMDAwMDAiIGZvbnQtZmFtaWx5PSJzYW5zLXNlcmlmIiBmb250LXNpemU9IjE0IiBsZW5ndGhBZGp1c3Q9InNwYWNpbmciIHRleHRMZW5ndGg9IjEyMSIgeD0iNTQwLjUiIHk9IjY4My4xNDA2Ij4rdmFsaWRhdGUoKTogYm9vbDwvdGV4dD48L2c+PCEtLWxpbmsgQ2xpZW50IHRvIFBsb3RNYW5hZ2VyLS0+PGcgaWQ9ImxpbmtfQ2xpZW50X1Bsb3RNYW5hZ2VyIj48cGF0aCBjb2RlTGluZT0iNzIiIGQ9Ik02MDYuNTksMTM4LjMyIEM1NjYuMzYsMTc4LjE4IDUxNC42MiwyMjkuNDUgNDcyLjQ5LDI3MS4yICIgZmlsbD0ibm9uZSIgaWQ9IkNsaWVudC10by1QbG90TWFuYWdlciIgc3R5bGU9InN0cm9rZTojMTgxODE4O3N0cm9rZS13aWR0aDoxLjA7c3Ryb2tlLWRhc2hhcnJheTo3LjAsNy4wOyIvPjxwb2x5Z29uIGZpbGw9IiMxODE4MTgiIHBvaW50cz0iNDY4LjcxLDI3NC45NSw0NzcuOTE2NiwyNzEuNDUxNyw0NzIuMjU5OCwyNzEuNDI4OCw0NzIuMjgyNywyNjUuNzcyLDQ2OC43MSwyNzQuOTUiIHN0eWxlPSJzdHJva2U6IzE4MTgxODtzdHJva2Utd2lkdGg6MS4wOyIvPjx0ZXh0IGZpbGw9IiMwMDAwMDAiIGZvbnQtZmFtaWx5PSJzYW5zLXNlcmlmIiBmb250LXNpemU9IjEzIiBsZW5ndGhBZGp1c3Q9InNwYWNpbmciIHRleHRMZW5ndGg9Ijg4IiB4PSI1NDYiIHk9IjIxMi4yODkxIj5SZXF1ZXN0cyBQbG90PC90ZXh0PjwvZz48IS0tbGluayBDbGllbnQgdG8gRGF0YS0tPjxnIGlkPSJsaW5rX0NsaWVudF9EYXRhIj48cGF0aCBjb2RlTGluZT0iNzMiIGQ9Ik04MzEuODIsMTM4LjI0IEM4NTEuNTgsMTU1Ljk3IDg2NSwxNzguMSA4NjUsMjA1LjUgQzg2NSwyMDUuNSA4NjUsMjA1LjUgODY1LDQ5MC41IEM4NjUsNTI0LjkxIDg1Ny42Myw1NjMuNyA4NTEuNDMsNTkwLjI3ICIgZmlsbD0ibm9uZSIgaWQ9IkNsaWVudC10by1EYXRhIiBzdHlsZT0ic3Ryb2tlOiMxODE4MTg7c3Ryb2tlLXdpZHRoOjEuMDtzdHJva2UtZGFzaGFycmF5OjcuMCw3LjA7Ii8+PHBvbHlnb24gZmlsbD0iIzE4MTgxOCIgcG9pbnRzPSI4NTAuMiw1OTUuNDIsODU2LjE3NjgsNTg3LjU5Miw4NTEuMzU4Nyw1OTAuNTU2MSw4NDguMzk0Niw1ODUuNzM4LDg1MC4yLDU5NS40MiIgc3R5bGU9InN0cm9rZTojMTgxODE4O3N0cm9rZS13aWR0aDoxLjA7Ii8+PHRleHQgZmlsbD0iIzAwMDAwMCIgZm9udC1mYW1pbHk9InNhbnMtc2VyaWYiIGZvbnQtc2l6ZT0iMTMiIGxlbmd0aEFkanVzdD0ic3BhY2luZyIgdGV4dExlbmd0aD0iNDgiIHg9Ijg2NiIgeT0iMzUzLjc4OTEiPlVwbG9hZHM8L3RleHQ+PC9nPjwhLS1saW5rIENsaWVudCB0byBQbG90UHJlZmVyZW5jZS0tPjxnIGlkPSJsaW5rX0NsaWVudF9QbG90UHJlZmVyZW5jZSI+PHBhdGggY29kZUxpbmU9Ijc0IiBkPSJNNzQwLjA4LDEzOC4yNCBDNzU0LjI2LDE1OC4wNSA3NjUsMTgxLjExIDc2NSwyMDUuNSBDNzY1LDIwNS41IDc2NSwyMDUuNSA3NjUsNDkwLjUgQzc2NSw1MzYuODcgNzI0LjQzLDU3MC4xNCA2ODQuNCw1OTEuNjggIiBmaWxsPSJub25lIiBpZD0iQ2xpZW50LXRvLVBsb3RQcmVmZXJlbmNlIiBzdHlsZT0ic3Ryb2tlOiMxODE4MTg7c3Ryb2tlLXdpZHRoOjEuMDtzdHJva2UtZGFzaGFycmF5OjcuMCw3LjA7Ii8+PHBvbHlnb24gZmlsbD0iIzE4MTgxOCIgcG9pbnRzPSI2NzkuNTMsNTk0LjI1LDY4OS4zNTU4LDU5My41NzcxLDY4My45NDk2LDU5MS45MTE5LDY4NS42MTQ4LDU4Ni41MDU3LDY3OS41Myw1OTQuMjUiIHN0eWxlPSJzdHJva2U6IzE4MTgxODtzdHJva2Utd2lkdGg6MS4wOyIvPjx0ZXh0IGZpbGw9IiMwMDAwMDAiIGZvbnQtZmFtaWx5PSJzYW5zLXNlcmlmIiBmb250LXNpemU9IjEzIiBsZW5ndGhBZGp1c3Q9InNwYWNpbmciIHRleHRMZW5ndGg9IjI4IiB4PSI3NjYiIHk9IjM1My43ODkxIj51c2VzPC90ZXh0PjwvZz48IS0tbGluayBDbGllbnQgdG8gQ2xpZW50SW50ZXJhY3Rpb24tLT48ZyBpZD0ibGlua19DbGllbnRfQ2xpZW50SW50ZXJhY3Rpb24iPjxwYXRoIGNvZGVMaW5lPSI3NSIgZD0iTTQ5My4wOSw3NC4zOCBDMjk1LjgyLDgwLjMxIDYsMTA1Ljk3IDYsMjA1LjUgQzYsMjA1LjUgNiwyMDUuNSA2LDQ5MC41IEM2LDUyMy4zMSAyNS42NCw1NTMuNDUgNDcuMTYsNTc2LjYyICIgZmlsbD0ibm9uZSIgaWQ9IkNsaWVudC10by1DbGllbnRJbnRlcmFjdGlvbiIgc3R5bGU9InN0cm9rZTojMTgxODE4O3N0cm9rZS13aWR0aDoxLjA7c3Ryb2tlLWRhc2hhcnJheTo3LjAsNy4wOyIvPjxwb2x5Z29uIGZpbGw9IiMxODE4MTgiIHBvaW50cz0iNTAuNjMsNTgwLjI4LDQ3LjM1NjMsNTcwLjk5MTEsNDcuMTk2LDU3Ni42NDU3LDQxLjU0MTUsNTc2LjQ4NTUsNTAuNjMsNTgwLjI4IiBzdHlsZT0ic3Ryb2tlOiMxODE4MTg7c3Ryb2tlLXdpZHRoOjEuMDsiLz48dGV4dCBmaWxsPSIjMDAwMDAwIiBmb250LWZhbWlseT0ic2Fucy1zZXJpZiIgZm9udC1zaXplPSIxMyIgbGVuZ3RoQWRqdXN0PSJzcGFjaW5nIiB0ZXh0TGVuZ3RoPSI1NCIgeD0iNyIgeT0iMzUzLjc4OTEiPlBlcmZvcm1zPC90ZXh0PjwvZz48IS0tbGluayBQbG90TWFuYWdlciB0byBEYXRhLS0+PGcgaWQ9ImxpbmtfUGxvdE1hbmFnZXJfRGF0YSI+PHBhdGggY29kZUxpbmU9Ijc3IiBkPSJNNTEzLjc0LDQyMS4wNCBDNjA1LjIzLDQ3Ny4wMiA3MjcuNDcsNTUxLjgxIDc5NC4yOSw1OTIuNyAiIGZpbGw9Im5vbmUiIGlkPSJQbG90TWFuYWdlci10by1EYXRhIiBzdHlsZT0ic3Ryb2tlOiMxODE4MTg7c3Ryb2tlLXdpZHRoOjEuMDtzdHJva2UtZGFzaGFycmF5OjcuMCw3LjA7Ii8+PHBvbHlnb24gZmlsbD0iIzE4MTgxOCIgcG9pbnRzPSI3OTguNjEsNTk1LjM0LDc5My4wMDIsNTg3LjI0MzcsNzk0LjMzOSw1OTIuNzQwMyw3ODguODQyNCw1OTQuMDc3Myw3OTguNjEsNTk1LjM0IiBzdHlsZT0ic3Ryb2tlOiMxODE4MTg7c3Ryb2tlLXdpZHRoOjEuMDsiLz48dGV4dCBmaWxsPSIjMDAwMDAwIiBmb250LWZhbWlseT0ic2Fucy1zZXJpZiIgZm9udC1zaXplPSIxMyIgbGVuZ3RoQWRqdXN0PSJzcGFjaW5nIiB0ZXh0TGVuZ3RoPSIyOCIgeD0iNjM4IiB5PSI0OTUuMjg5MSI+dXNlczwvdGV4dD48L2c+PCEtLWxpbmsgUGxvdE1hbmFnZXIgdG8gUGxvdC0tPjxnIGlkPSJsaW5rX1Bsb3RNYW5hZ2VyX1Bsb3QiPjxwYXRoIGNvZGVMaW5lPSI3OCIgZD0iTTM5Niw0MjEuMjIgQzM5Niw0NzYuMDEgMzk2LDU0OC43MyAzOTYsNTkwLjA4ICIgZmlsbD0ibm9uZSIgaWQ9IlBsb3RNYW5hZ2VyLXRvLVBsb3QiIHN0eWxlPSJzdHJva2U6IzE4MTgxODtzdHJva2Utd2lkdGg6MS4wO3N0cm9rZS1kYXNoYXJyYXk6Ny4wLDcuMDsiLz48cG9seWdvbiBmaWxsPSIjMTgxODE4IiBwb2ludHM9IjM5Niw1OTUuMjEsNDAwLDU4Ni4yMSwzOTYsNTkwLjIxLDM5Miw1ODYuMjEsMzk2LDU5NS4yMSIgc3R5bGU9InN0cm9rZTojMTgxODE4O3N0cm9rZS13aWR0aDoxLjA7Ii8+PHRleHQgZmlsbD0iIzAwMDAwMCIgZm9udC1mYW1pbHk9InNhbnMtc2VyaWYiIGZvbnQtc2l6ZT0iMTMiIGxlbmd0aEFkanVzdD0ic3BhY2luZyIgdGV4dExlbmd0aD0iMjgiIHg9IjM5NyIgeT0iNDk1LjI4OTEiPnVzZXM8L3RleHQ+PC9nPjwhLS1saW5rIFBsb3RNYW5hZ2VyIHRvIFBsb3RQcmVmZXJlbmNlLS0+PGcgaWQ9ImxpbmtfUGxvdE1hbmFnZXJfUGxvdFByZWZlcmVuY2UiPjxwYXRoIGNvZGVMaW5lPSI3OSIgZD0iTTQ1MS43MSw0MjEuMjIgQzQ4My4yOSw0NjIuMTQgNTIyLjU3LDUxMy4wNyA1NTMuNzMsNTUzLjQ2ICIgZmlsbD0ibm9uZSIgaWQ9IlBsb3RNYW5hZ2VyLXRvLVBsb3RQcmVmZXJlbmNlIiBzdHlsZT0ic3Ryb2tlOiMxODE4MTg7c3Ryb2tlLXdpZHRoOjEuMDtzdHJva2UtZGFzaGFycmF5OjcuMCw3LjA7Ii8+PHBvbHlnb24gZmlsbD0iIzE4MTgxOCIgcG9pbnRzPSI1NTcuMTEsNTU3LjgzLDU1NC43NzMxLDU0OC4yNjI0LDU1NC4wNTMyLDU1My44NzMzLDU0OC40NDIzLDU1My4xNTMzLDU1Ny4xMSw1NTcuODMiIHN0eWxlPSJzdHJva2U6IzE4MTgxODtzdHJva2Utd2lkdGg6MS4wOyIvPjx0ZXh0IGZpbGw9IiMwMDAwMDAiIGZvbnQtZmFtaWx5PSJzYW5zLXNlcmlmIiBmb250LXNpemU9IjEzIiBsZW5ndGhBZGp1c3Q9InNwYWNpbmciIHRleHRMZW5ndGg9IjI4IiB4PSI1MTEiIHk9IjQ5NS4yODkxIj51c2VzPC90ZXh0PjwvZz48IS0tbGluayBQbG90TWFuYWdlciB0byBDbGllbnRJbnRlcmFjdGlvbi0tPjxnIGlkPSJsaW5rX1Bsb3RNYW5hZ2VyX0NsaWVudEludGVyYWN0aW9uIj48cGF0aCBjb2RlTGluZT0iODAiIGQ9Ik0zMTguMzcsNDIxLjIyIEMyNjUuNDIsNDcwLjQ4IDE5Ni44OSw1MzQuMjMgMTUxLjI4LDU3Ni42NSAiIGZpbGw9Im5vbmUiIGlkPSJQbG90TWFuYWdlci10by1DbGllbnRJbnRlcmFjdGlvbiIgc3R5bGU9InN0cm9rZTojMTgxODE4O3N0cm9rZS13aWR0aDoxLjA7c3Ryb2tlLWRhc2hhcnJheTo3LjAsNy4wOyIvPjxwb2x5Z29uIGZpbGw9IiMxODE4MTgiIHBvaW50cz0iMTQ3LjQ5LDU4MC4xOCwxNTYuNzk4Myw1NzYuOTYyMSwxNTEuMTQ0OCw1NzYuNzY3OSwxNTEuMzM5LDU3MS4xMTQ0LDE0Ny40OSw1ODAuMTgiIHN0eWxlPSJzdHJva2U6IzE4MTgxODtzdHJva2Utd2lkdGg6MS4wOyIvPjx0ZXh0IGZpbGw9IiMwMDAwMDAiIGZvbnQtZmFtaWx5PSJzYW5zLXNlcmlmIiBmb250LXNpemU9IjEzIiBsZW5ndGhBZGp1c3Q9InNwYWNpbmciIHRleHRMZW5ndGg9IjI4IiB4PSIyNTQiIHk9IjQ5NS4yODkxIj51c2VzPC90ZXh0PjwvZz48IS0tU1JDPVtuTEoxUmppbTNCdHhBdFhoWWd0NTFXbXgtMzJXcEpPcW0zTzRJdVVVNlBrOWpTZ0k5eWJmdEEzX0ZiQmtSQ1M5c2xMSzdtQnh5UDV5VjE5cDBiU2c5bVc1bUtLOEpZdGhHMmdwbmlGQUVpV3FVYXlVcUVJV0oyMnRtZW55dWMtTGdUMVhzSEF3bjFhZEJqR3ptUmluUFM2dlA0REozSmQ5SVRfeXNQdzVDM0ZiQ2FzSUVBcnppQU5LYU1tVjZlUDdGTTZOMDMtTmNEc2tkUXJERmhNUXd6eUtBYjBSaUl1ZHJ3QU5jY2FIX01mRC04NGJtSE5mM0dNTE9HVDd0VXlfbmt6a3czeG04TmI4MVk4d3lReVo5NmJEYzZmNTlrb0lDelBKclU0cDFhbjFWWGNmajBycEhvaS02eUNVZnAzVjF2QmEzVEhDbWJtSTlkY05VeWUxSnM1NGRySEZyOUFLdzBYY3VLUTVHaUFKVnUybzlkcktFa2tYczBLdHo2TFJNSFNNMUpnUWQwdjZhbkJWcVUyUXQ4d2ZiUkZTbm16YWxlS2Q1UU5tYW1tUkp4YjRQRFpDYmttSG9VVHVPalJOMWdDTkdkT25FU3dIM0tCeG4xVEJtRm10Ti10X1NjVHlvOEVXZEJUaU1tZTN5OWcxWDBDUnIzTDdxM0hJZWdxV01ZTjl1THF4MTNnNzNVSXNObDljRkdtajV6ZjYtSGdya2lUTXRBcGFHelhkekxDQVZ0a25MVnVSQmFjZGxBbkVjUks4UU93WVNZa2xlX1J2dXZsdW1nOEw3bVZWVzFJTXJjaGZyZXVEUHhjekMtVmRkdU9OMGlKUEZwTnZxQ2V2dUNnS0pGZUxoeFNfTWdlVldPYXJfb1NUaTB2eVAtQVNiend3YWZUZEE2VlNEdk94SVgzbU1TQVhqQUZLT19nNF9IUzBdLS0+PC9nPjwvc3ZnPg==;" parent="TtmFSg_aWq5ySA_oG-eG-227" vertex="1">
            <mxGeometry x="480" y="174" width="933" height="695" as="geometry" />
          </mxCell>
        </UserObject>
        <UserObject label="" plantUmlData="{&quot;data&quot;:&quot;@startuml\n\n&#39; Hide the Attributeicons for classes and interfaces\nskinparam classAttributeIconSize 0\nskinparam classStereotypeIconSize 0\n\n&#39; Hide the icons for classes and interfaces\nhide circle\n\n&#39; Customize the style\nskinparam enum {\n    FontSize 20\n}\n\n\nenum InteractionType{\n Z O O M\n P A N\n F I T\n}\n\n\nenum PlotType{\n L I N E\n B A R\n S C A T T E R\n P I E\n}\n\n@enduml&quot;,&quot;format&quot;:&quot;svg&quot;}" id="TtmFSg_aWq5ySA_oG-eG-158">
          <mxCell style="shape=image;noLabel=1;verticalAlign=top;aspect=fixed;imageAspect=0;image=data:image/svg+xml,PD94bWwgdmVyc2lvbj0iMS4wIiBlbmNvZGluZz0idXMtYXNjaWkiIHN0YW5kYWxvbmU9Im5vIj8+PHN2ZyB4bWxucz0iaHR0cDovL3d3dy53My5vcmcvMjAwMC9zdmciIHhtbG5zOnhsaW5rPSJodHRwOi8vd3d3LnczLm9yZy8xOTk5L3hsaW5rIiBjb250ZW50U3R5bGVUeXBlPSJ0ZXh0L2NzcyIgaGVpZ2h0PSIxMTRweCIgcHJlc2VydmVBc3BlY3RSYXRpbz0ibm9uZSIgc3R5bGU9IndpZHRoOjI2M3B4O2hlaWdodDoxMTRweDtiYWNrZ3JvdW5kOiNGRkZGRkY7IiB2ZXJzaW9uPSIxLjEiIHZpZXdCb3g9IjAgMCAyNjMgMTE0IiB3aWR0aD0iMjYzcHgiIHpvb21BbmRQYW49Im1hZ25pZnkiPjxkZWZzLz48Zz48IS0tY2xhc3MgSW50ZXJhY3Rpb25UeXBlLS0+PGcgaWQ9ImVsZW1fSW50ZXJhY3Rpb25UeXBlIj48cmVjdCBjb2RlTGluZT0iMTQiIGZpbGw9IiNGMUYxRjEiIGhlaWdodD0iODUuOTM3NSIgaWQ9IkludGVyYWN0aW9uVHlwZSIgcng9IjIuNSIgcnk9IjIuNSIgc3R5bGU9InN0cm9rZTojMTgxODE4O3N0cm9rZS13aWR0aDowLjU7IiB3aWR0aD0iMTExIiB4PSI3IiB5PSIxNC41Ii8+PHRleHQgZmlsbD0iIzAwMDAwMCIgZm9udC1mYW1pbHk9InNhbnMtc2VyaWYiIGZvbnQtc2l6ZT0iMTQiIGxlbmd0aEFkanVzdD0ic3BhY2luZyIgdGV4dExlbmd0aD0iMTA1IiB4PSIxMCIgeT0iMzIuNzM0NCI+SW50ZXJhY3Rpb25UeXBlPC90ZXh0PjxsaW5lIHN0eWxlPSJzdHJva2U6IzE4MTgxODtzdHJva2Utd2lkdGg6MC41OyIgeDE9IjgiIHgyPSIxMTciIHkxPSIzOS40ODQ0IiB5Mj0iMzkuNDg0NCIvPjx0ZXh0IGZpbGw9IiMwMDAwMDAiIGZvbnQtZmFtaWx5PSJzYW5zLXNlcmlmIiBmb250LXNpemU9IjE0IiBsZW5ndGhBZGp1c3Q9InNwYWNpbmciIHRleHRMZW5ndGg9IjQ5IiB4PSIxMyIgeT0iNTYuNzE4OCI+WiBPIE8gTTwvdGV4dD48dGV4dCBmaWxsPSIjMDAwMDAwIiBmb250LWZhbWlseT0ic2Fucy1zZXJpZiIgZm9udC1zaXplPSIxNCIgbGVuZ3RoQWRqdXN0PSJzcGFjaW5nIiB0ZXh0TGVuZ3RoPSIzNSIgeD0iMTMiIHk9IjcxLjcwMzEiPlAgQSBOPC90ZXh0Pjx0ZXh0IGZpbGw9IiMwMDAwMDAiIGZvbnQtZmFtaWx5PSJzYW5zLXNlcmlmIiBmb250LXNpemU9IjE0IiBsZW5ndGhBZGp1c3Q9InNwYWNpbmciIHRleHRMZW5ndGg9IjM1IiB4PSIxMyIgeT0iODYuNjg3NSI+RiBJIFQ8L3RleHQ+PGxpbmUgc3R5bGU9InN0cm9rZTojMTgxODE4O3N0cm9rZS13aWR0aDowLjU7IiB4MT0iOCIgeDI9IjExNyIgeTE9IjkyLjQzNzUiIHkyPSI5Mi40Mzc1Ii8+PC9nPjwhLS1jbGFzcyBQbG90VHlwZS0tPjxnIGlkPSJlbGVtX1Bsb3RUeXBlIj48cmVjdCBjb2RlTGluZT0iMjEiIGZpbGw9IiNGMUYxRjEiIGhlaWdodD0iMTAwLjkyMTkiIGlkPSJQbG90VHlwZSIgcng9IjIuNSIgcnk9IjIuNSIgc3R5bGU9InN0cm9rZTojMTgxODE4O3N0cm9rZS13aWR0aDowLjU7IiB3aWR0aD0iMTAzIiB4PSIxNTMiIHk9IjciLz48dGV4dCBmaWxsPSIjMDAwMDAwIiBmb250LWZhbWlseT0ic2Fucy1zZXJpZiIgZm9udC1zaXplPSIxNCIgbGVuZ3RoQWRqdXN0PSJzcGFjaW5nIiB0ZXh0TGVuZ3RoPSI1NiIgeD0iMTc2LjUiIHk9IjI1LjIzNDQiPlBsb3RUeXBlPC90ZXh0PjxsaW5lIHN0eWxlPSJzdHJva2U6IzE4MTgxODtzdHJva2Utd2lkdGg6MC41OyIgeDE9IjE1NCIgeDI9IjI1NSIgeTE9IjMxLjk4NDQiIHkyPSIzMS45ODQ0Ii8+PHRleHQgZmlsbD0iIzAwMDAwMCIgZm9udC1mYW1pbHk9InNhbnMtc2VyaWYiIGZvbnQtc2l6ZT0iMTQiIGxlbmd0aEFkanVzdD0ic3BhY2luZyIgdGV4dExlbmd0aD0iNDkiIHg9IjE1OSIgeT0iNDkuMjE4OCI+TCBJIE4gRTwvdGV4dD48dGV4dCBmaWxsPSIjMDAwMDAwIiBmb250LWZhbWlseT0ic2Fucy1zZXJpZiIgZm9udC1zaXplPSIxNCIgbGVuZ3RoQWRqdXN0PSJzcGFjaW5nIiB0ZXh0TGVuZ3RoPSIzNSIgeD0iMTU5IiB5PSI2NC4yMDMxIj5CIEEgUjwvdGV4dD48dGV4dCBmaWxsPSIjMDAwMDAwIiBmb250LWZhbWlseT0ic2Fucy1zZXJpZiIgZm9udC1zaXplPSIxNCIgbGVuZ3RoQWRqdXN0PSJzcGFjaW5nIiB0ZXh0TGVuZ3RoPSI5MSIgeD0iMTU5IiB5PSI3OS4xODc1Ij5TIEMgQSBUIFQgRSBSPC90ZXh0Pjx0ZXh0IGZpbGw9IiMwMDAwMDAiIGZvbnQtZmFtaWx5PSJzYW5zLXNlcmlmIiBmb250LXNpemU9IjE0IiBsZW5ndGhBZGp1c3Q9InNwYWNpbmciIHRleHRMZW5ndGg9IjM1IiB4PSIxNTkiIHk9Ijk0LjE3MTkiPlAgSSBFPC90ZXh0PjxsaW5lIHN0eWxlPSJzdHJva2U6IzE4MTgxODtzdHJva2Utd2lkdGg6MC41OyIgeDE9IjE1NCIgeDI9IjI1NSIgeTE9Ijk5LjkyMTkiIHkyPSI5OS45MjE5Ii8+PC9nPjwhLS1TUkM9W1hPd25oaThtMzRMdFZ5TlRNMTVfbTRENUw3ZUZBamc5QkdHWmVqU2NBNzQ3R0ZteDNZMkFNOFlORTN4N0RvQ2l0OHVYMXlQSzlCZmpCLW5peTBkeDQ2NVJhbjhkNkItM3l5OW5Sb21kSWxfRTdxcXF0R0R1WVFNQWpKaXBuZno4aEl1N0VIdFY2SGVEdUx5cDN2Y3FCamdNaXBaaGF1R2t4eWJzYWZDLTN2ZGktbXVOV2Z2dnk3QkZjdXBmSWFKdEtQZHQ2WWlrLTRSX2ZFRzZBd3FfR2VLZmJlR3ZJWkkzS0JMMWRrSWxKZk9lMjN6QWhXYXJQZGZmajhoU0xaZWt3N2UzXS0tPjwvZz48L3N2Zz4=;" parent="TtmFSg_aWq5ySA_oG-eG-227" vertex="1">
            <mxGeometry x="1560" y="244" width="263" height="114" as="geometry" />
          </mxCell>
        </UserObject>
        <UserObject label="" plantUmlData="{&#xa;  &quot;data&quot;: &quot;@startuml\nskinparam backgroundColor #EEEBDC\nskinparam activity {\n    BackgroundColor #A2C8EC\n    BorderColor #1C7D9D\n    FontName Courier\n}\n\nstart\n\n:User accesses PlotXpert web interface;\n:User uploads data;\n\nif (Is data valid?) then (yes)\n    :User sets plot preferences;\n    \n    if (Are preferences valid?) then (yes)\n        :PlotXpert processes the data;\n        :PlotXpert computes plot data;\n        :Render plot based on user preferences;\n        \n        if (Is user interaction detected?) then (yes)\n            :User interacts with rendered plot;\n            :Apply user adjustments to plot;\n        else (no)\n            :Display plot;\n        endif\n        :User saves, exports or shares plot;\n    else (no)\n        :Notify user of invalid preferences;\n    endif\nelse (no)\n    :Notify user of invalid data;\nendif\n\nstop\n\n@enduml\n&quot;,&#xa;  &quot;format&quot;: &quot;svg&quot;&#xa;}" id="TtmFSg_aWq5ySA_oG-eG-216">
          <mxCell style="shape=image;noLabel=1;verticalAlign=top;aspect=fixed;imageAspect=0;image=data:image/svg+xml,PD94bWwgdmVyc2lvbj0iMS4wIiBlbmNvZGluZz0idXMtYXNjaWkiIHN0YW5kYWxvbmU9Im5vIj8+PHN2ZyB4bWxucz0iaHR0cDovL3d3dy53My5vcmcvMjAwMC9zdmciIHhtbG5zOnhsaW5rPSJodHRwOi8vd3d3LnczLm9yZy8xOTk5L3hsaW5rIiBjb250ZW50U3R5bGVUeXBlPSJ0ZXh0L2NzcyIgaGVpZ2h0PSI3NTBweCIgcHJlc2VydmVBc3BlY3RSYXRpbz0ibm9uZSIgc3R5bGU9IndpZHRoOjkxMHB4O2hlaWdodDo3NTBweDtiYWNrZ3JvdW5kOiNFRUVCREM7IiB2ZXJzaW9uPSIxLjEiIHZpZXdCb3g9IjAgMCA5MTAgNzUwIiB3aWR0aD0iOTEwcHgiIHpvb21BbmRQYW49Im1hZ25pZnkiPjxkZWZzLz48Zz48cmVjdCBmaWxsPSIjRUVFQkRDIiBoZWlnaHQ9Ijc1MCIgc3R5bGU9InN0cm9rZTpub25lO3N0cm9rZS13aWR0aDoxLjA7IiB3aWR0aD0iOTEwIiB4PSIwIiB5PSIwIi8+PGVsbGlwc2UgY3g9IjU5Ny43NSIgY3k9IjIwIiBmaWxsPSIjMjIyMjIyIiByeD0iMTAiIHJ5PSIxMCIgc3R5bGU9InN0cm9rZTojMjIyMjIyO3N0cm9rZS13aWR0aDoxLjA7Ii8+PHJlY3QgZmlsbD0iI0EyQzhFQyIgaGVpZ2h0PSIzMi44NDM4IiByeD0iMTIuNSIgcnk9IjEyLjUiIHN0eWxlPSJzdHJva2U6IzFDN0Q5RDtzdHJva2Utd2lkdGg6MC41OyIgd2lkdGg9IjI2NSIgeD0iNDY1LjI1IiB5PSI1MCIvPjx0ZXh0IGZpbGw9IiMwMDAwMDAiIGZvbnQtZmFtaWx5PSJDb3VyaWVyIiBmb250LXNpemU9IjEyIiBsZW5ndGhBZGp1c3Q9InNwYWNpbmciIHRleHRMZW5ndGg9IjI0NSIgeD0iNDc1LjI1IiB5PSI3MS4zNDM4Ij5Vc2VyJiMxNjA7YWNjZXNzZXMmIzE2MDtQbG90WHBlcnQmIzE2MDt3ZWImIzE2MDtpbnRlcmZhY2U8L3RleHQ+PHJlY3QgZmlsbD0iI0EyQzhFQyIgaGVpZ2h0PSIzMi44NDM4IiByeD0iMTIuNSIgcnk9IjEyLjUiIHN0eWxlPSJzdHJva2U6IzFDN0Q5RDtzdHJva2Utd2lkdGg6MC41OyIgd2lkdGg9IjEzNSIgeD0iNTMwLjI1IiB5PSIxMDIuODQzOCIvPjx0ZXh0IGZpbGw9IiMwMDAwMDAiIGZvbnQtZmFtaWx5PSJDb3VyaWVyIiBmb250LXNpemU9IjEyIiBsZW5ndGhBZGp1c3Q9InNwYWNpbmciIHRleHRMZW5ndGg9IjExNSIgeD0iNTQwLjI1IiB5PSIxMjQuMTg3NSI+VXNlciYjMTYwO3VwbG9hZHMmIzE2MDtkYXRhPC90ZXh0Pjxwb2x5Z29uIGZpbGw9IiNBMkM4RUMiIHBvaW50cz0iNTU1Ljc1LDE1NS42ODc1LDYzOS43NSwxNTUuNjg3NSw2NTEuNzUsMTY3LjY4NzUsNjM5Ljc1LDE3OS42ODc1LDU1NS43NSwxNzkuNjg3NSw1NDMuNzUsMTY3LjY4NzUsNTU1Ljc1LDE1NS42ODc1IiBzdHlsZT0ic3Ryb2tlOiMxQzdEOUQ7c3Ryb2tlLXdpZHRoOjAuNTsiLz48dGV4dCBmaWxsPSIjMDAwMDAwIiBmb250LWZhbWlseT0iQ291cmllciIgZm9udC1zaXplPSIxMSIgbGVuZ3RoQWRqdXN0PSJzcGFjaW5nIiB0ZXh0TGVuZ3RoPSI4NCIgeD0iNTU1Ljc1IiB5PSIxNzIuMTk5MiI+SXMmIzE2MDtkYXRhJiMxNjA7dmFsaWQ/PC90ZXh0Pjx0ZXh0IGZpbGw9IiMwMDAwMDAiIGZvbnQtZmFtaWx5PSJzYW5zLXNlcmlmIiBmb250LXNpemU9IjExIiBsZW5ndGhBZGp1c3Q9InNwYWNpbmciIHRleHRMZW5ndGg9IjE4IiB4PSI1MjUuNzUiIHk9IjE2Ni4zMTI1Ij55ZXM8L3RleHQ+PHRleHQgZmlsbD0iIzAwMDAwMCIgZm9udC1mYW1pbHk9InNhbnMtc2VyaWYiIGZvbnQtc2l6ZT0iMTEiIGxlbmd0aEFkanVzdD0ic3BhY2luZyIgdGV4dExlbmd0aD0iMTIiIHg9IjY1MS43NSIgeT0iMTY2LjMxMjUiPm5vPC90ZXh0PjxyZWN0IGZpbGw9IiNBMkM4RUMiIGhlaWdodD0iMzIuODQzOCIgcng9IjEyLjUiIHJ5PSIxMi41IiBzdHlsZT0ic3Ryb2tlOiMxQzdEOUQ7c3Ryb2tlLXdpZHRoOjAuNTsiIHdpZHRoPSIxOTQiIHg9IjI5Ny41IiB5PSIxODkuNjg3NSIvPjx0ZXh0IGZpbGw9IiMwMDAwMDAiIGZvbnQtZmFtaWx5PSJDb3VyaWVyIiBmb250LXNpemU9IjEyIiBsZW5ndGhBZGp1c3Q9InNwYWNpbmciIHRleHRMZW5ndGg9IjE3NCIgeD0iMzA3LjUiIHk9IjIxMS4wMzEzIj5Vc2VyJiMxNjA7c2V0cyYjMTYwO3Bsb3QmIzE2MDtwcmVmZXJlbmNlczwvdGV4dD48cG9seWdvbiBmaWxsPSIjQTJDOEVDIiBwb2ludHM9IjMyOC41LDI0Mi41MzEzLDQ2MC41LDI0Mi41MzEzLDQ3Mi41LDI1NC41MzEzLDQ2MC41LDI2Ni41MzEzLDMyOC41LDI2Ni41MzEzLDMxNi41LDI1NC41MzEzLDMyOC41LDI0Mi41MzEzIiBzdHlsZT0ic3Ryb2tlOiMxQzdEOUQ7c3Ryb2tlLXdpZHRoOjAuNTsiLz48dGV4dCBmaWxsPSIjMDAwMDAwIiBmb250LWZhbWlseT0iQ291cmllciIgZm9udC1zaXplPSIxMSIgbGVuZ3RoQWRqdXN0PSJzcGFjaW5nIiB0ZXh0TGVuZ3RoPSIxMzIiIHg9IjMyOC41IiB5PSIyNTkuMDQzIj5BcmUmIzE2MDtwcmVmZXJlbmNlcyYjMTYwO3ZhbGlkPzwvdGV4dD48dGV4dCBmaWxsPSIjMDAwMDAwIiBmb250LWZhbWlseT0ic2Fucy1zZXJpZiIgZm9udC1zaXplPSIxMSIgbGVuZ3RoQWRqdXN0PSJzcGFjaW5nIiB0ZXh0TGVuZ3RoPSIxOCIgeD0iMjk4LjUiIHk9IjI1My4xNTYzIj55ZXM8L3RleHQ+PHRleHQgZmlsbD0iIzAwMDAwMCIgZm9udC1mYW1pbHk9InNhbnMtc2VyaWYiIGZvbnQtc2l6ZT0iMTEiIGxlbmd0aEFkanVzdD0ic3BhY2luZyIgdGV4dExlbmd0aD0iMTIiIHg9IjQ3Mi41IiB5PSIyNTMuMTU2MyI+bm88L3RleHQ+PHJlY3QgZmlsbD0iI0EyQzhFQyIgaGVpZ2h0PSIzMi44NDM4IiByeD0iMTIuNSIgcnk9IjEyLjUiIHN0eWxlPSJzdHJva2U6IzFDN0Q5RDtzdHJva2Utd2lkdGg6MC41OyIgd2lkdGg9IjIwNyIgeD0iMTM1LjUiIHk9IjI3Ni41MzEzIi8+PHRleHQgZmlsbD0iIzAwMDAwMCIgZm9udC1mYW1pbHk9IkNvdXJpZXIiIGZvbnQtc2l6ZT0iMTIiIGxlbmd0aEFkanVzdD0ic3BhY2luZyIgdGV4dExlbmd0aD0iMTg3IiB4PSIxNDUuNSIgeT0iMjk3Ljg3NSI+UGxvdFhwZXJ0JiMxNjA7cHJvY2Vzc2VzJiMxNjA7dGhlJiMxNjA7ZGF0YTwvdGV4dD48cmVjdCBmaWxsPSIjQTJDOEVDIiBoZWlnaHQ9IjMyLjg0MzgiIHJ4PSIxMi41IiByeT0iMTIuNSIgc3R5bGU9InN0cm9rZTojMUM3RDlEO3N0cm9rZS13aWR0aDowLjU7IiB3aWR0aD0iMjA0IiB4PSIxMzciIHk9IjMyOS4zNzUiLz48dGV4dCBmaWxsPSIjMDAwMDAwIiBmb250LWZhbWlseT0iQ291cmllciIgZm9udC1zaXplPSIxMiIgbGVuZ3RoQWRqdXN0PSJzcGFjaW5nIiB0ZXh0TGVuZ3RoPSIxODQiIHg9IjE0NyIgeT0iMzUwLjcxODgiPlBsb3RYcGVydCYjMTYwO2NvbXB1dGVzJiMxNjA7cGxvdCYjMTYwO2RhdGE8L3RleHQ+PHJlY3QgZmlsbD0iI0EyQzhFQyIgaGVpZ2h0PSIzMi44NDM4IiByeD0iMTIuNSIgcnk9IjEyLjUiIHN0eWxlPSJzdHJva2U6IzFDN0Q5RDtzdHJva2Utd2lkdGg6MC41OyIgd2lkdGg9IjI3MCIgeD0iMTA0IiB5PSIzODIuMjE4OCIvPjx0ZXh0IGZpbGw9IiMwMDAwMDAiIGZvbnQtZmFtaWx5PSJDb3VyaWVyIiBmb250LXNpemU9IjEyIiBsZW5ndGhBZGp1c3Q9InNwYWNpbmciIHRleHRMZW5ndGg9IjI1MCIgeD0iMTE0IiB5PSI0MDMuNTYyNSI+UmVuZGVyJiMxNjA7cGxvdCYjMTYwO2Jhc2VkJiMxNjA7b24mIzE2MDt1c2VyJiMxNjA7cHJlZmVyZW5jZXM8L3RleHQ+PHBvbHlnb24gZmlsbD0iI0EyQzhFQyIgcG9pbnRzPSIxNTIsNDM1LjA2MjUsMzI2LDQzNS4wNjI1LDMzOCw0NDcuMDYyNSwzMjYsNDU5LjA2MjUsMTUyLDQ1OS4wNjI1LDE0MCw0NDcuMDYyNSwxNTIsNDM1LjA2MjUiIHN0eWxlPSJzdHJva2U6IzFDN0Q5RDtzdHJva2Utd2lkdGg6MC41OyIvPjx0ZXh0IGZpbGw9IiMwMDAwMDAiIGZvbnQtZmFtaWx5PSJDb3VyaWVyIiBmb250LXNpemU9IjExIiBsZW5ndGhBZGp1c3Q9InNwYWNpbmciIHRleHRMZW5ndGg9IjE3NCIgeD0iMTUyIiB5PSI0NTEuNTc0MiI+SXMmIzE2MDt1c2VyJiMxNjA7aW50ZXJhY3Rpb24mIzE2MDtkZXRlY3RlZD88L3RleHQ+PHRleHQgZmlsbD0iIzAwMDAwMCIgZm9udC1mYW1pbHk9InNhbnMtc2VyaWYiIGZvbnQtc2l6ZT0iMTEiIGxlbmd0aEFkanVzdD0ic3BhY2luZyIgdGV4dExlbmd0aD0iMTgiIHg9IjEyMiIgeT0iNDQ1LjY4NzUiPnllczwvdGV4dD48dGV4dCBmaWxsPSIjMDAwMDAwIiBmb250LWZhbWlseT0ic2Fucy1zZXJpZiIgZm9udC1zaXplPSIxMSIgbGVuZ3RoQWRqdXN0PSJzcGFjaW5nIiB0ZXh0TGVuZ3RoPSIxMiIgeD0iMzM4IiB5PSI0NDUuNjg3NSI+bm88L3RleHQ+PHJlY3QgZmlsbD0iI0EyQzhFQyIgaGVpZ2h0PSIzMi44NDM4IiByeD0iMTIuNSIgcnk9IjEyLjUiIHN0eWxlPSJzdHJva2U6IzFDN0Q5RDtzdHJva2Utd2lkdGg6MC41OyIgd2lkdGg9IjIzOCIgeD0iMTEiIHk9IjQ2OS4wNjI1Ii8+PHRleHQgZmlsbD0iIzAwMDAwMCIgZm9udC1mYW1pbHk9IkNvdXJpZXIiIGZvbnQtc2l6ZT0iMTIiIGxlbmd0aEFkanVzdD0ic3BhY2luZyIgdGV4dExlbmd0aD0iMjE4IiB4PSIyMSIgeT0iNDkwLjQwNjMiPlVzZXImIzE2MDtpbnRlcmFjdHMmIzE2MDt3aXRoJiMxNjA7cmVuZGVyZWQmIzE2MDtwbG90PC90ZXh0PjxyZWN0IGZpbGw9IiNBMkM4RUMiIGhlaWdodD0iMzIuODQzOCIgcng9IjEyLjUiIHJ5PSIxMi41IiBzdHlsZT0ic3Ryb2tlOiMxQzdEOUQ7c3Ryb2tlLXdpZHRoOjAuNTsiIHdpZHRoPSIyMTgiIHg9IjIxIiB5PSI1MjEuOTA2MyIvPjx0ZXh0IGZpbGw9IiMwMDAwMDAiIGZvbnQtZmFtaWx5PSJDb3VyaWVyIiBmb250LXNpemU9IjEyIiBsZW5ndGhBZGp1c3Q9InNwYWNpbmciIHRleHRMZW5ndGg9IjE5OCIgeD0iMzEiIHk9IjU0My4yNSI+QXBwbHkmIzE2MDt1c2VyJiMxNjA7YWRqdXN0bWVudHMmIzE2MDt0byYjMTYwO3Bsb3Q8L3RleHQ+PHJlY3QgZmlsbD0iI0EyQzhFQyIgaGVpZ2h0PSIzMi44NDM4IiByeD0iMTIuNSIgcnk9IjEyLjUiIHN0eWxlPSJzdHJva2U6IzFDN0Q5RDtzdHJva2Utd2lkdGg6MC41OyIgd2lkdGg9Ijk5IiB4PSIyOTguNSIgeT0iNDY5LjA2MjUiLz48dGV4dCBmaWxsPSIjMDAwMDAwIiBmb250LWZhbWlseT0iQ291cmllciIgZm9udC1zaXplPSIxMiIgbGVuZ3RoQWRqdXN0PSJzcGFjaW5nIiB0ZXh0TGVuZ3RoPSI3OSIgeD0iMzA4LjUiIHk9IjQ5MC40MDYzIj5EaXNwbGF5JiMxNjA7cGxvdDwvdGV4dD48cG9seWdvbiBmaWxsPSIjQTJDOEVDIiBwb2ludHM9IjIzOSw1NjAuNzUsMjUxLDU3Mi43NSwyMzksNTg0Ljc1LDIyNyw1NzIuNzUsMjM5LDU2MC43NSIgc3R5bGU9InN0cm9rZTojMUM3RDlEO3N0cm9rZS13aWR0aDowLjU7Ii8+PHJlY3QgZmlsbD0iI0EyQzhFQyIgaGVpZ2h0PSIzMi44NDM4IiByeD0iMTIuNSIgcnk9IjEyLjUiIHN0eWxlPSJzdHJva2U6IzFDN0Q5RDtzdHJva2Utd2lkdGg6MC41OyIgd2lkdGg9IjI0OSIgeD0iMTE0LjUiIHk9IjYwNC43NSIvPjx0ZXh0IGZpbGw9IiMwMDAwMDAiIGZvbnQtZmFtaWx5PSJDb3VyaWVyIiBmb250LXNpemU9IjEyIiBsZW5ndGhBZGp1c3Q9InNwYWNpbmciIHRleHRMZW5ndGg9IjIyOSIgeD0iMTI0LjUiIHk9IjYyNi4wOTM4Ij5Vc2VyJiMxNjA7c2F2ZXMsJiMxNjA7ZXhwb3J0cyYjMTYwO29yJiMxNjA7c2hhcmVzJiMxNjA7cGxvdDwvdGV4dD48cmVjdCBmaWxsPSIjQTJDOEVDIiBoZWlnaHQ9IjMyLjg0MzgiIHJ4PSIxMi41IiByeT0iMTIuNSIgc3R5bGU9InN0cm9rZTojMUM3RDlEO3N0cm9rZS13aWR0aDowLjU7IiB3aWR0aD0iMjQ1IiB4PSI0MjcuNSIgeT0iMjc2LjUzMTMiLz48dGV4dCBmaWxsPSIjMDAwMDAwIiBmb250LWZhbWlseT0iQ291cmllciIgZm9udC1zaXplPSIxMiIgbGVuZ3RoQWRqdXN0PSJzcGFjaW5nIiB0ZXh0TGVuZ3RoPSIyMjUiIHg9IjQzNy41IiB5PSIyOTcuODc1Ij5Ob3RpZnkmIzE2MDt1c2VyJiMxNjA7b2YmIzE2MDtpbnZhbGlkJiMxNjA7cHJlZmVyZW5jZXM8L3RleHQ+PHBvbHlnb24gZmlsbD0iI0EyQzhFQyIgcG9pbnRzPSIzOTQuNSw2NDMuNTkzOCw0MDYuNSw2NTUuNTkzOCwzOTQuNSw2NjcuNTkzOCwzODIuNSw2NTUuNTkzOCwzOTQuNSw2NDMuNTkzOCIgc3R5bGU9InN0cm9rZTojMUM3RDlEO3N0cm9rZS13aWR0aDowLjU7Ii8+PHJlY3QgZmlsbD0iI0EyQzhFQyIgaGVpZ2h0PSIzMi44NDM4IiByeD0iMTIuNSIgcnk9IjEyLjUiIHN0eWxlPSJzdHJva2U6IzFDN0Q5RDtzdHJva2Utd2lkdGg6MC41OyIgd2lkdGg9IjE5NyIgeD0iNzAyLjUiIHk9IjE4OS42ODc1Ii8+PHRleHQgZmlsbD0iIzAwMDAwMCIgZm9udC1mYW1pbHk9IkNvdXJpZXIiIGZvbnQtc2l6ZT0iMTIiIGxlbmd0aEFkanVzdD0ic3BhY2luZyIgdGV4dExlbmd0aD0iMTc3IiB4PSI3MTIuNSIgeT0iMjExLjAzMTMiPk5vdGlmeSYjMTYwO3VzZXImIzE2MDtvZiYjMTYwO2ludmFsaWQmIzE2MDtkYXRhPC90ZXh0Pjxwb2x5Z29uIGZpbGw9IiNBMkM4RUMiIHBvaW50cz0iNTk3Ljc1LDY3My41OTM4LDYwOS43NSw2ODUuNTkzOCw1OTcuNzUsNjk3LjU5MzgsNTg1Ljc1LDY4NS41OTM4LDU5Ny43NSw2NzMuNTkzOCIgc3R5bGU9InN0cm9rZTojMUM3RDlEO3N0cm9rZS13aWR0aDowLjU7Ii8+PGVsbGlwc2UgY3g9IjU5Ny43NSIgY3k9IjcyOC41OTM4IiBmaWxsPSJub25lIiByeD0iMTEiIHJ5PSIxMSIgc3R5bGU9InN0cm9rZTojMjIyMjIyO3N0cm9rZS13aWR0aDoxLjA7Ii8+PGVsbGlwc2UgY3g9IjU5Ny43NSIgY3k9IjcyOC41OTM4IiBmaWxsPSIjMjIyMjIyIiByeD0iNiIgcnk9IjYiIHN0eWxlPSJzdHJva2U6IzExMTExMTtzdHJva2Utd2lkdGg6MS4wOyIvPjxsaW5lIHN0eWxlPSJzdHJva2U6IzE4MTgxODtzdHJva2Utd2lkdGg6MS4wOyIgeDE9IjU5Ny43NSIgeDI9IjU5Ny43NSIgeTE9IjMwIiB5Mj0iNTAiLz48cG9seWdvbiBmaWxsPSIjMTgxODE4IiBwb2ludHM9IjU5My43NSw0MCw1OTcuNzUsNTAsNjAxLjc1LDQwLDU5Ny43NSw0NCIgc3R5bGU9InN0cm9rZTojMTgxODE4O3N0cm9rZS13aWR0aDoxLjA7Ii8+PGxpbmUgc3R5bGU9InN0cm9rZTojMTgxODE4O3N0cm9rZS13aWR0aDoxLjA7IiB4MT0iNTk3Ljc1IiB4Mj0iNTk3Ljc1IiB5MT0iODIuODQzOCIgeTI9IjEwMi44NDM4Ii8+PHBvbHlnb24gZmlsbD0iIzE4MTgxOCIgcG9pbnRzPSI1OTMuNzUsOTIuODQzOCw1OTcuNzUsMTAyLjg0MzgsNjAxLjc1LDkyLjg0MzgsNTk3Ljc1LDk2Ljg0MzgiIHN0eWxlPSJzdHJva2U6IzE4MTgxODtzdHJva2Utd2lkdGg6MS4wOyIvPjxsaW5lIHN0eWxlPSJzdHJva2U6IzE4MTgxODtzdHJva2Utd2lkdGg6MS4wOyIgeDE9IjIzOSIgeDI9IjIzOSIgeTE9IjMwOS4zNzUiIHkyPSIzMjkuMzc1Ii8+PHBvbHlnb24gZmlsbD0iIzE4MTgxOCIgcG9pbnRzPSIyMzUsMzE5LjM3NSwyMzksMzI5LjM3NSwyNDMsMzE5LjM3NSwyMzksMzIzLjM3NSIgc3R5bGU9InN0cm9rZTojMTgxODE4O3N0cm9rZS13aWR0aDoxLjA7Ii8+PGxpbmUgc3R5bGU9InN0cm9rZTojMTgxODE4O3N0cm9rZS13aWR0aDoxLjA7IiB4MT0iMjM5IiB4Mj0iMjM5IiB5MT0iMzYyLjIxODgiIHkyPSIzODIuMjE4OCIvPjxwb2x5Z29uIGZpbGw9IiMxODE4MTgiIHBvaW50cz0iMjM1LDM3Mi4yMTg4LDIzOSwzODIuMjE4OCwyNDMsMzcyLjIxODgsMjM5LDM3Ni4yMTg4IiBzdHlsZT0ic3Ryb2tlOiMxODE4MTg7c3Ryb2tlLXdpZHRoOjEuMDsiLz48bGluZSBzdHlsZT0ic3Ryb2tlOiMxODE4MTg7c3Ryb2tlLXdpZHRoOjEuMDsiIHgxPSIxMzAiIHgyPSIxMzAiIHkxPSI1MDEuOTA2MyIgeTI9IjUyMS45MDYzIi8+PHBvbHlnb24gZmlsbD0iIzE4MTgxOCIgcG9pbnRzPSIxMjYsNTExLjkwNjMsMTMwLDUyMS45MDYzLDEzNCw1MTEuOTA2MywxMzAsNTE1LjkwNjMiIHN0eWxlPSJzdHJva2U6IzE4MTgxODtzdHJva2Utd2lkdGg6MS4wOyIvPjxsaW5lIHN0eWxlPSJzdHJva2U6IzE4MTgxODtzdHJva2Utd2lkdGg6MS4wOyIgeDE9IjE0MCIgeDI9IjEzMCIgeTE9IjQ0Ny4wNjI1IiB5Mj0iNDQ3LjA2MjUiLz48bGluZSBzdHlsZT0ic3Ryb2tlOiMxODE4MTg7c3Ryb2tlLXdpZHRoOjEuMDsiIHgxPSIxMzAiIHgyPSIxMzAiIHkxPSI0NDcuMDYyNSIgeTI9IjQ2OS4wNjI1Ii8+PHBvbHlnb24gZmlsbD0iIzE4MTgxOCIgcG9pbnRzPSIxMjYsNDU5LjA2MjUsMTMwLDQ2OS4wNjI1LDEzNCw0NTkuMDYyNSwxMzAsNDYzLjA2MjUiIHN0eWxlPSJzdHJva2U6IzE4MTgxODtzdHJva2Utd2lkdGg6MS4wOyIvPjxsaW5lIHN0eWxlPSJzdHJva2U6IzE4MTgxODtzdHJva2Utd2lkdGg6MS4wOyIgeDE9IjMzOCIgeDI9IjM0OCIgeTE9IjQ0Ny4wNjI1IiB5Mj0iNDQ3LjA2MjUiLz48bGluZSBzdHlsZT0ic3Ryb2tlOiMxODE4MTg7c3Ryb2tlLXdpZHRoOjEuMDsiIHgxPSIzNDgiIHgyPSIzNDgiIHkxPSI0NDcuMDYyNSIgeTI9IjQ2OS4wNjI1Ii8+PHBvbHlnb24gZmlsbD0iIzE4MTgxOCIgcG9pbnRzPSIzNDQsNDU5LjA2MjUsMzQ4LDQ2OS4wNjI1LDM1Miw0NTkuMDYyNSwzNDgsNDYzLjA2MjUiIHN0eWxlPSJzdHJva2U6IzE4MTgxODtzdHJva2Utd2lkdGg6MS4wOyIvPjxsaW5lIHN0eWxlPSJzdHJva2U6IzE4MTgxODtzdHJva2Utd2lkdGg6MS4wOyIgeDE9IjEzMCIgeDI9IjEzMCIgeTE9IjU1NC43NSIgeTI9IjU3Mi43NSIvPjxsaW5lIHN0eWxlPSJzdHJva2U6IzE4MTgxODtzdHJva2Utd2lkdGg6MS4wOyIgeDE9IjEzMCIgeDI9IjIyNyIgeTE9IjU3Mi43NSIgeTI9IjU3Mi43NSIvPjxwb2x5Z29uIGZpbGw9IiMxODE4MTgiIHBvaW50cz0iMjE3LDU2OC43NSwyMjcsNTcyLjc1LDIxNyw1NzYuNzUsMjIxLDU3Mi43NSIgc3R5bGU9InN0cm9rZTojMTgxODE4O3N0cm9rZS13aWR0aDoxLjA7Ii8+PGxpbmUgc3R5bGU9InN0cm9rZTojMTgxODE4O3N0cm9rZS13aWR0aDoxLjA7IiB4MT0iMzQ4IiB4Mj0iMzQ4IiB5MT0iNTAxLjkwNjMiIHkyPSI1NzIuNzUiLz48bGluZSBzdHlsZT0ic3Ryb2tlOiMxODE4MTg7c3Ryb2tlLXdpZHRoOjEuMDsiIHgxPSIzNDgiIHgyPSIyNTEiIHkxPSI1NzIuNzUiIHkyPSI1NzIuNzUiLz48cG9seWdvbiBmaWxsPSIjMTgxODE4IiBwb2ludHM9IjI2MSw1NjguNzUsMjUxLDU3Mi43NSwyNjEsNTc2Ljc1LDI1Nyw1NzIuNzUiIHN0eWxlPSJzdHJva2U6IzE4MTgxODtzdHJva2Utd2lkdGg6MS4wOyIvPjxsaW5lIHN0eWxlPSJzdHJva2U6IzE4MTgxODtzdHJva2Utd2lkdGg6MS4wOyIgeDE9IjIzOSIgeDI9IjIzOSIgeTE9IjQxNS4wNjI1IiB5Mj0iNDM1LjA2MjUiLz48cG9seWdvbiBmaWxsPSIjMTgxODE4IiBwb2ludHM9IjIzNSw0MjUuMDYyNSwyMzksNDM1LjA2MjUsMjQzLDQyNS4wNjI1LDIzOSw0MjkuMDYyNSIgc3R5bGU9InN0cm9rZTojMTgxODE4O3N0cm9rZS13aWR0aDoxLjA7Ii8+PGxpbmUgc3R5bGU9InN0cm9rZTojMTgxODE4O3N0cm9rZS13aWR0aDoxLjA7IiB4MT0iMjM5IiB4Mj0iMjM5IiB5MT0iNTg0Ljc1IiB5Mj0iNjA0Ljc1Ii8+PHBvbHlnb24gZmlsbD0iIzE4MTgxOCIgcG9pbnRzPSIyMzUsNTk0Ljc1LDIzOSw2MDQuNzUsMjQzLDU5NC43NSwyMzksNTk4Ljc1IiBzdHlsZT0ic3Ryb2tlOiMxODE4MTg7c3Ryb2tlLXdpZHRoOjEuMDsiLz48bGluZSBzdHlsZT0ic3Ryb2tlOiMxODE4MTg7c3Ryb2tlLXdpZHRoOjEuMDsiIHgxPSIzMTYuNSIgeDI9IjIzOSIgeTE9IjI1NC41MzEzIiB5Mj0iMjU0LjUzMTMiLz48bGluZSBzdHlsZT0ic3Ryb2tlOiMxODE4MTg7c3Ryb2tlLXdpZHRoOjEuMDsiIHgxPSIyMzkiIHgyPSIyMzkiIHkxPSIyNTQuNTMxMyIgeTI9IjI3Ni41MzEzIi8+PHBvbHlnb24gZmlsbD0iIzE4MTgxOCIgcG9pbnRzPSIyMzUsMjY2LjUzMTMsMjM5LDI3Ni41MzEzLDI0MywyNjYuNTMxMywyMzksMjcwLjUzMTMiIHN0eWxlPSJzdHJva2U6IzE4MTgxODtzdHJva2Utd2lkdGg6MS4wOyIvPjxsaW5lIHN0eWxlPSJzdHJva2U6IzE4MTgxODtzdHJva2Utd2lkdGg6MS4wOyIgeDE9IjQ3Mi41IiB4Mj0iNTUwIiB5MT0iMjU0LjUzMTMiIHkyPSIyNTQuNTMxMyIvPjxsaW5lIHN0eWxlPSJzdHJva2U6IzE4MTgxODtzdHJva2Utd2lkdGg6MS4wOyIgeDE9IjU1MCIgeDI9IjU1MCIgeTE9IjI1NC41MzEzIiB5Mj0iMjc2LjUzMTMiLz48cG9seWdvbiBmaWxsPSIjMTgxODE4IiBwb2ludHM9IjU0NiwyNjYuNTMxMyw1NTAsMjc2LjUzMTMsNTU0LDI2Ni41MzEzLDU1MCwyNzAuNTMxMyIgc3R5bGU9InN0cm9rZTojMTgxODE4O3N0cm9rZS13aWR0aDoxLjA7Ii8+PGxpbmUgc3R5bGU9InN0cm9rZTojMTgxODE4O3N0cm9rZS13aWR0aDoxLjA7IiB4MT0iMjM5IiB4Mj0iMjM5IiB5MT0iNjM3LjU5MzgiIHkyPSI2NTUuNTkzOCIvPjxsaW5lIHN0eWxlPSJzdHJva2U6IzE4MTgxODtzdHJva2Utd2lkdGg6MS4wOyIgeDE9IjIzOSIgeDI9IjM4Mi41IiB5MT0iNjU1LjU5MzgiIHkyPSI2NTUuNTkzOCIvPjxwb2x5Z29uIGZpbGw9IiMxODE4MTgiIHBvaW50cz0iMzcyLjUsNjUxLjU5MzgsMzgyLjUsNjU1LjU5MzgsMzcyLjUsNjU5LjU5MzgsMzc2LjUsNjU1LjU5MzgiIHN0eWxlPSJzdHJva2U6IzE4MTgxODtzdHJva2Utd2lkdGg6MS4wOyIvPjxsaW5lIHN0eWxlPSJzdHJva2U6IzE4MTgxODtzdHJva2Utd2lkdGg6MS4wOyIgeDE9IjU1MCIgeDI9IjU1MCIgeTE9IjMwOS4zNzUiIHkyPSI2NTUuNTkzOCIvPjxsaW5lIHN0eWxlPSJzdHJva2U6IzE4MTgxODtzdHJva2Utd2lkdGg6MS4wOyIgeDE9IjU1MCIgeDI9IjQwNi41IiB5MT0iNjU1LjU5MzgiIHkyPSI2NTUuNTkzOCIvPjxwb2x5Z29uIGZpbGw9IiMxODE4MTgiIHBvaW50cz0iNDE2LjUsNjUxLjU5MzgsNDA2LjUsNjU1LjU5MzgsNDE2LjUsNjU5LjU5MzgsNDEyLjUsNjU1LjU5MzgiIHN0eWxlPSJzdHJva2U6IzE4MTgxODtzdHJva2Utd2lkdGg6MS4wOyIvPjxsaW5lIHN0eWxlPSJzdHJva2U6IzE4MTgxODtzdHJva2Utd2lkdGg6MS4wOyIgeDE9IjM5NC41IiB4Mj0iMzk0LjUiIHkxPSIyMjIuNTMxMyIgeTI9IjI0Mi41MzEzIi8+PHBvbHlnb24gZmlsbD0iIzE4MTgxOCIgcG9pbnRzPSIzOTAuNSwyMzIuNTMxMywzOTQuNSwyNDIuNTMxMywzOTguNSwyMzIuNTMxMywzOTQuNSwyMzYuNTMxMyIgc3R5bGU9InN0cm9rZTojMTgxODE4O3N0cm9rZS13aWR0aDoxLjA7Ii8+PGxpbmUgc3R5bGU9InN0cm9rZTojMTgxODE4O3N0cm9rZS13aWR0aDoxLjA7IiB4MT0iNTQzLjc1IiB4Mj0iMzk0LjUiIHkxPSIxNjcuNjg3NSIgeTI9IjE2Ny42ODc1Ii8+PGxpbmUgc3R5bGU9InN0cm9rZTojMTgxODE4O3N0cm9rZS13aWR0aDoxLjA7IiB4MT0iMzk0LjUiIHgyPSIzOTQuNSIgeTE9IjE2Ny42ODc1IiB5Mj0iMTg5LjY4NzUiLz48cG9seWdvbiBmaWxsPSIjMTgxODE4IiBwb2ludHM9IjM5MC41LDE3OS42ODc1LDM5NC41LDE4OS42ODc1LDM5OC41LDE3OS42ODc1LDM5NC41LDE4My42ODc1IiBzdHlsZT0ic3Ryb2tlOiMxODE4MTg7c3Ryb2tlLXdpZHRoOjEuMDsiLz48bGluZSBzdHlsZT0ic3Ryb2tlOiMxODE4MTg7c3Ryb2tlLXdpZHRoOjEuMDsiIHgxPSI2NTEuNzUiIHgyPSI4MDEiIHkxPSIxNjcuNjg3NSIgeTI9IjE2Ny42ODc1Ii8+PGxpbmUgc3R5bGU9InN0cm9rZTojMTgxODE4O3N0cm9rZS13aWR0aDoxLjA7IiB4MT0iODAxIiB4Mj0iODAxIiB5MT0iMTY3LjY4NzUiIHkyPSIxODkuNjg3NSIvPjxwb2x5Z29uIGZpbGw9IiMxODE4MTgiIHBvaW50cz0iNzk3LDE3OS42ODc1LDgwMSwxODkuNjg3NSw4MDUsMTc5LjY4NzUsODAxLDE4My42ODc1IiBzdHlsZT0ic3Ryb2tlOiMxODE4MTg7c3Ryb2tlLXdpZHRoOjEuMDsiLz48bGluZSBzdHlsZT0ic3Ryb2tlOiMxODE4MTg7c3Ryb2tlLXdpZHRoOjEuMDsiIHgxPSIzOTQuNSIgeDI9IjM5NC41IiB5MT0iNjY3LjU5MzgiIHkyPSI2ODUuNTkzOCIvPjxsaW5lIHN0eWxlPSJzdHJva2U6IzE4MTgxODtzdHJva2Utd2lkdGg6MS4wOyIgeDE9IjM5NC41IiB4Mj0iNTg1Ljc1IiB5MT0iNjg1LjU5MzgiIHkyPSI2ODUuNTkzOCIvPjxwb2x5Z29uIGZpbGw9IiMxODE4MTgiIHBvaW50cz0iNTc1Ljc1LDY4MS41OTM4LDU4NS43NSw2ODUuNTkzOCw1NzUuNzUsNjg5LjU5MzgsNTc5Ljc1LDY4NS41OTM4IiBzdHlsZT0ic3Ryb2tlOiMxODE4MTg7c3Ryb2tlLXdpZHRoOjEuMDsiLz48bGluZSBzdHlsZT0ic3Ryb2tlOiMxODE4MTg7c3Ryb2tlLXdpZHRoOjEuMDsiIHgxPSI4MDEiIHgyPSI4MDEiIHkxPSIyMjIuNTMxMyIgeTI9IjY4NS41OTM4Ii8+PGxpbmUgc3R5bGU9InN0cm9rZTojMTgxODE4O3N0cm9rZS13aWR0aDoxLjA7IiB4MT0iODAxIiB4Mj0iNjA5Ljc1IiB5MT0iNjg1LjU5MzgiIHkyPSI2ODUuNTkzOCIvPjxwb2x5Z29uIGZpbGw9IiMxODE4MTgiIHBvaW50cz0iNjE5Ljc1LDY4MS41OTM4LDYwOS43NSw2ODUuNTkzOCw2MTkuNzUsNjg5LjU5MzgsNjE1Ljc1LDY4NS41OTM4IiBzdHlsZT0ic3Ryb2tlOiMxODE4MTg7c3Ryb2tlLXdpZHRoOjEuMDsiLz48bGluZSBzdHlsZT0ic3Ryb2tlOiMxODE4MTg7c3Ryb2tlLXdpZHRoOjEuMDsiIHgxPSI1OTcuNzUiIHgyPSI1OTcuNzUiIHkxPSIxMzUuNjg3NSIgeTI9IjE1NS42ODc1Ii8+PHBvbHlnb24gZmlsbD0iIzE4MTgxOCIgcG9pbnRzPSI1OTMuNzUsMTQ1LjY4NzUsNTk3Ljc1LDE1NS42ODc1LDYwMS43NSwxNDUuNjg3NSw1OTcuNzUsMTQ5LjY4NzUiIHN0eWxlPSJzdHJva2U6IzE4MTgxODtzdHJva2Utd2lkdGg6MS4wOyIvPjxsaW5lIHN0eWxlPSJzdHJva2U6IzE4MTgxODtzdHJva2Utd2lkdGg6MS4wOyIgeDE9IjU5Ny43NSIgeDI9IjU5Ny43NSIgeTE9IjY5Ny41OTM4IiB5Mj0iNzE3LjU5MzgiLz48cG9seWdvbiBmaWxsPSIjMTgxODE4IiBwb2ludHM9IjU5My43NSw3MDcuNTkzOCw1OTcuNzUsNzE3LjU5MzgsNjAxLjc1LDcwNy41OTM4LDU5Ny43NSw3MTEuNTkzOCIgc3R5bGU9InN0cm9rZTojMTgxODE4O3N0cm9rZS13aWR0aDoxLjA7Ii8+PCEtLVNSQz1bVFA5REp5Q20zOFJsLUhNTWswbzkycnB1czA2RFJhWFM0NDkydWZlckJXbGh1aVhzMW5GWWx2Q2J2TUNUd281SXVfVnIteUk5QjdzOGJrcUF2aFBVbFoxcm1MTks0aUZIUjNReGNMUDZWWElzTGhfc2tlNEYwLWN4NkhlY1B6TjVoMmVyT2VWU3h2ek12ekZCUVR3X2ZRM3RUZUxHS1NTVXNObVE4c2ZQWlJidzRrSUtLUUM4MlpvcWZDeUhNVTREdi0yMzhaVXNuZDZsd3M5QnJXYXVndFBpWjZ6V1Q1Vi1PNnJSeHd3RkdIU09PQkgxRVN4SG5JVWUwaWNoNDFhUlAwbWZSdm01VVRhc2NaMy1oSHZnYzlsLU9hUWM3WnRmVWd2X1AzTWpPZ1ZPR21uYVpuWklzNGZmUldLVEs4MWtveHI3LXFGeUpQc0Vkdkx2TERraEliUTdZaE5ZMFZaVmdObngxRHd5QmUwcEhhaFZXZW50elBDT3Nxcjlpa3dyNHJyWEkzd2JXSFhSR0hXNTZpSERsU0pNUmVSWXU3blpUZmQ0aGI1RTBEeVpTR2Y4M3FhTWJsbDE1VWotbmpLemdNendGY2hJbVZCYnhPLWw5RXVzRTZHa2JyR1N3UkxJXzA4MF0tLT48L2c+PC9zdmc+;" parent="TtmFSg_aWq5ySA_oG-eG-227" vertex="1">
            <mxGeometry x="1770" y="604" width="533.86" height="440" as="geometry" />
          </mxCell>
        </UserObject>
        <UserObject label="" plantUmlData="{&quot;data&quot;:&quot;@startuml\n\n&#39; Hide the Attributeicons for classes and interfaces\nskinparam classAttributeIconSize 0\nskinparam classStereotypeIconSize 0\n\n&#39; Hide the icons for classes and interfaces\nhide circle\n\n&#39; Customize the style\nskinparam class {\n    BackgroundColor White\n    BorderColor Black\n    FontName Helvetica\n    FontSize 16\n    AttributeFontSize 14\n}\n\nskinparam interface {\n    BackgroundColor White\n    BorderColor Black\n    FontName Helvetica\n    FontSize 16\n    AttributeFontSize 14\n}\n\npackage  \&quot;Layer Hierarchy\&quot;{\n   package Presentation\n   package AppServices\n   package CoreEngine\n   package Data\n}\n\nPresentation ..&gt; AppServices\nAppServices ..&gt; CoreEngine\nCoreEngine ..&gt; Data\n\n@enduml&quot;,&quot;format&quot;:&quot;svg&quot;}" id="TtmFSg_aWq5ySA_oG-eG-228">
          <mxCell style="shape=image;noLabel=1;verticalAlign=top;aspect=fixed;imageAspect=0;image=data:image/svg+xml,PD94bWwgdmVyc2lvbj0iMS4wIiBlbmNvZGluZz0idXMtYXNjaWkiIHN0YW5kYWxvbmU9Im5vIj8+PHN2ZyB4bWxucz0iaHR0cDovL3d3dy53My5vcmcvMjAwMC9zdmciIHhtbG5zOnhsaW5rPSJodHRwOi8vd3d3LnczLm9yZy8xOTk5L3hsaW5rIiBjb250ZW50U3R5bGVUeXBlPSJ0ZXh0L2NzcyIgaGVpZ2h0PSIzOTRweCIgcHJlc2VydmVBc3BlY3RSYXRpbz0ibm9uZSIgc3R5bGU9IndpZHRoOjE3MXB4O2hlaWdodDozOTRweDtiYWNrZ3JvdW5kOiNGRkZGRkY7IiB2ZXJzaW9uPSIxLjEiIHZpZXdCb3g9IjAgMCAxNzEgMzk0IiB3aWR0aD0iMTcxcHgiIHpvb21BbmRQYW49Im1hZ25pZnkiPjxkZWZzLz48Zz48IS0tY2x1c3RlciBMYXllciBIaWVyYXJjaHktLT48ZyBpZD0iY2x1c3Rlcl9MYXllciBIaWVyYXJjaHkiPjxwYXRoIGQ9Ik04LjUsNiBMMTE0LjUsNiBBMy43NSwzLjc1IDAgMCAxIDExNyw4LjUgTDEyNCwyNi45ODQ0IEwxNjEuNSwyNi45ODQ0IEEyLjUsMi41IDAgMCAxIDE2NCwyOS40ODQ0IEwxNjQsMzg0LjUgQTIuNSwyLjUgMCAwIDEgMTYxLjUsMzg3IEw4LjUsMzg3IEEyLjUsMi41IDAgMCAxIDYsMzg0LjUgTDYsOC41IEEyLjUsMi41IDAgMCAxIDguNSw2ICIgZmlsbD0ibm9uZSIgc3R5bGU9InN0cm9rZTojMDAwMDAwO3N0cm9rZS13aWR0aDoxLjU7Ii8+PGxpbmUgc3R5bGU9InN0cm9rZTojMDAwMDAwO3N0cm9rZS13aWR0aDoxLjU7IiB4MT0iNiIgeDI9IjEyNCIgeTE9IjI2Ljk4NDQiIHkyPSIyNi45ODQ0Ii8+PHRleHQgZmlsbD0iIzAwMDAwMCIgZm9udC1mYW1pbHk9InNhbnMtc2VyaWYiIGZvbnQtc2l6ZT0iMTQiIGZvbnQtd2VpZ2h0PSJib2xkIiBsZW5ndGhBZGp1c3Q9InNwYWNpbmciIHRleHRMZW5ndGg9IjEwNSIgeD0iMTAiIHk9IjIxLjIzNDQiPkxheWVyIEhpZXJhcmNoeTwvdGV4dD48L2c+PCEtLWVudGl0eSBQcmVzZW50YXRpb24tLT48ZyBpZD0iZWxlbV9QcmVzZW50YXRpb24iPjxwYXRoIGQ9Ik0yNC41LDM5IEwxMjEuNSwzOSBBMy43NSwzLjc1IDAgMCAxIDEyNCw0MS41IEwxMzEsNTkuOTg0NCBMMTQ1LjUsNTkuOTg0NCBBMi41LDIuNSAwIDAgMSAxNDgsNjIuNDg0NCBMMTQ4LDc0LjQ4NDQgQTIuNSwyLjUgMCAwIDEgMTQ1LjUsNzYuOTg0NCBMMjQuNSw3Ni45ODQ0IEEyLjUsMi41IDAgMCAxIDIyLDc0LjQ4NDQgTDIyLDQxLjUgQTIuNSwyLjUgMCAwIDEgMjQuNSwzOSAiIGZpbGw9IiNGMUYxRjEiIHN0eWxlPSJzdHJva2U6IzE4MTgxODtzdHJva2Utd2lkdGg6MC41OyIvPjxsaW5lIHN0eWxlPSJzdHJva2U6IzE4MTgxODtzdHJva2Utd2lkdGg6MC41OyIgeDE9IjIyIiB4Mj0iMTMxIiB5MT0iNTkuOTg0NCIgeTI9IjU5Ljk4NDQiLz48dGV4dCBmaWxsPSIjMDAwMDAwIiBmb250LWZhbWlseT0ic2Fucy1zZXJpZiIgZm9udC1zaXplPSIxNCIgZm9udC13ZWlnaHQ9ImJvbGQiIGxlbmd0aEFkanVzdD0ic3BhY2luZyIgdGV4dExlbmd0aD0iODQiIHg9IjMyIiB5PSI1NS4yMzQ0Ij5QcmVzZW50YXRpb248L3RleHQ+PC9nPjwhLS1lbnRpdHkgQXBwU2VydmljZXMtLT48ZyBpZD0iZWxlbV9BcHBTZXJ2aWNlcyI+PHBhdGggZD0iTTI4LDEzNyBMMTE4LDEzNyBBMy43NSwzLjc1IDAgMCAxIDEyMC41LDEzOS41IEwxMjcuNSwxNTcuOTg0NCBMMTQyLDE1Ny45ODQ0IEEyLjUsMi41IDAgMCAxIDE0NC41LDE2MC40ODQ0IEwxNDQuNSwxNzIuNDg0NCBBMi41LDIuNSAwIDAgMSAxNDIsMTc0Ljk4NDQgTDI4LDE3NC45ODQ0IEEyLjUsMi41IDAgMCAxIDI1LjUsMTcyLjQ4NDQgTDI1LjUsMTM5LjUgQTIuNSwyLjUgMCAwIDEgMjgsMTM3ICIgZmlsbD0iI0YxRjFGMSIgc3R5bGU9InN0cm9rZTojMTgxODE4O3N0cm9rZS13aWR0aDowLjU7Ii8+PGxpbmUgc3R5bGU9InN0cm9rZTojMTgxODE4O3N0cm9rZS13aWR0aDowLjU7IiB4MT0iMjUuNSIgeDI9IjEyNy41IiB5MT0iMTU3Ljk4NDQiIHkyPSIxNTcuOTg0NCIvPjx0ZXh0IGZpbGw9IiMwMDAwMDAiIGZvbnQtZmFtaWx5PSJzYW5zLXNlcmlmIiBmb250LXNpemU9IjE0IiBmb250LXdlaWdodD0iYm9sZCIgbGVuZ3RoQWRqdXN0PSJzcGFjaW5nIiB0ZXh0TGVuZ3RoPSI3NyIgeD0iMzUuNSIgeT0iMTUzLjIzNDQiPkFwcFNlcnZpY2VzPC90ZXh0PjwvZz48IS0tZW50aXR5IENvcmVFbmdpbmUtLT48ZyBpZD0iZWxlbV9Db3JlRW5naW5lIj48cGF0aCBkPSJNMzEuNSwyMzUgTDExNC41LDIzNSBBMy43NSwzLjc1IDAgMCAxIDExNywyMzcuNSBMMTI0LDI1NS45ODQ0IEwxMzguNSwyNTUuOTg0NCBBMi41LDIuNSAwIDAgMSAxNDEsMjU4LjQ4NDQgTDE0MSwyNzAuNDg0NCBBMi41LDIuNSAwIDAgMSAxMzguNSwyNzIuOTg0NCBMMzEuNSwyNzIuOTg0NCBBMi41LDIuNSAwIDAgMSAyOSwyNzAuNDg0NCBMMjksMjM3LjUgQTIuNSwyLjUgMCAwIDEgMzEuNSwyMzUgIiBmaWxsPSIjRjFGMUYxIiBzdHlsZT0ic3Ryb2tlOiMxODE4MTg7c3Ryb2tlLXdpZHRoOjAuNTsiLz48bGluZSBzdHlsZT0ic3Ryb2tlOiMxODE4MTg7c3Ryb2tlLXdpZHRoOjAuNTsiIHgxPSIyOSIgeDI9IjEyNCIgeTE9IjI1NS45ODQ0IiB5Mj0iMjU1Ljk4NDQiLz48dGV4dCBmaWxsPSIjMDAwMDAwIiBmb250LWZhbWlseT0ic2Fucy1zZXJpZiIgZm9udC1zaXplPSIxNCIgZm9udC13ZWlnaHQ9ImJvbGQiIGxlbmd0aEFkanVzdD0ic3BhY2luZyIgdGV4dExlbmd0aD0iNzAiIHg9IjM5IiB5PSIyNTEuMjM0NCI+Q29yZUVuZ2luZTwvdGV4dD48L2c+PCEtLWVudGl0eSBEYXRhLS0+PGcgaWQ9ImVsZW1fRGF0YSI+PHBhdGggZD0iTTUyLjUsMzMzIEw5My41LDMzMyBBMy43NSwzLjc1IDAgMCAxIDk2LDMzNS41IEwxMDMsMzUzLjk4NDQgTDExNy41LDM1My45ODQ0IEEyLjUsMi41IDAgMCAxIDEyMCwzNTYuNDg0NCBMMTIwLDM2OC40ODQ0IEEyLjUsMi41IDAgMCAxIDExNy41LDM3MC45ODQ0IEw1Mi41LDM3MC45ODQ0IEEyLjUsMi41IDAgMCAxIDUwLDM2OC40ODQ0IEw1MCwzMzUuNSBBMi41LDIuNSAwIDAgMSA1Mi41LDMzMyAiIGZpbGw9IiNGMUYxRjEiIHN0eWxlPSJzdHJva2U6IzE4MTgxODtzdHJva2Utd2lkdGg6MC41OyIvPjxsaW5lIHN0eWxlPSJzdHJva2U6IzE4MTgxODtzdHJva2Utd2lkdGg6MC41OyIgeDE9IjUwIiB4Mj0iMTAzIiB5MT0iMzUzLjk4NDQiIHkyPSIzNTMuOTg0NCIvPjx0ZXh0IGZpbGw9IiMwMDAwMDAiIGZvbnQtZmFtaWx5PSJzYW5zLXNlcmlmIiBmb250LXNpemU9IjE0IiBmb250LXdlaWdodD0iYm9sZCIgbGVuZ3RoQWRqdXN0PSJzcGFjaW5nIiB0ZXh0TGVuZ3RoPSIyOCIgeD0iNjAiIHk9IjM0OS4yMzQ0Ij5EYXRhPC90ZXh0PjwvZz48IS0tbGluayBQcmVzZW50YXRpb24gdG8gQXBwU2VydmljZXMtLT48ZyBpZD0ibGlua19QcmVzZW50YXRpb25fQXBwU2VydmljZXMiPjxwYXRoIGQ9Ik04NSw3Ny4wNiBDODUsOTIuNTEgODUsMTE0Ljg2IDg1LDEzMS42NyAiIGZpbGw9Im5vbmUiIGlkPSJQcmVzZW50YXRpb24tdG8tQXBwU2VydmljZXMiIHN0eWxlPSJzdHJva2U6IzE4MTgxODtzdHJva2Utd2lkdGg6MS4wO3N0cm9rZS1kYXNoYXJyYXk6Ny4wLDcuMDsiLz48cG9seWdvbiBmaWxsPSIjMTgxODE4IiBwb2ludHM9Ijg1LDEzNi43LDg5LDEyNy43LDg1LDEzMS43LDgxLDEyNy43LDg1LDEzNi43IiBzdHlsZT0ic3Ryb2tlOiMxODE4MTg7c3Ryb2tlLXdpZHRoOjEuMDsiLz48L2c+PCEtLWxpbmsgQXBwU2VydmljZXMgdG8gQ29yZUVuZ2luZS0tPjxnIGlkPSJsaW5rX0FwcFNlcnZpY2VzX0NvcmVFbmdpbmUiPjxwYXRoIGQ9Ik04NSwxNzUuMDYgQzg1LDE5MC41MSA4NSwyMTIuODYgODUsMjI5LjY3ICIgZmlsbD0ibm9uZSIgaWQ9IkFwcFNlcnZpY2VzLXRvLUNvcmVFbmdpbmUiIHN0eWxlPSJzdHJva2U6IzE4MTgxODtzdHJva2Utd2lkdGg6MS4wO3N0cm9rZS1kYXNoYXJyYXk6Ny4wLDcuMDsiLz48cG9seWdvbiBmaWxsPSIjMTgxODE4IiBwb2ludHM9Ijg1LDIzNC43LDg5LDIyNS43LDg1LDIyOS43LDgxLDIyNS43LDg1LDIzNC43IiBzdHlsZT0ic3Ryb2tlOiMxODE4MTg7c3Ryb2tlLXdpZHRoOjEuMDsiLz48L2c+PCEtLWxpbmsgQ29yZUVuZ2luZSB0byBEYXRhLS0+PGcgaWQ9ImxpbmtfQ29yZUVuZ2luZV9EYXRhIj48cGF0aCBkPSJNODUsMjczLjA2IEM4NSwyODguNTEgODUsMzEwLjg2IDg1LDMyNy42NyAiIGZpbGw9Im5vbmUiIGlkPSJDb3JlRW5naW5lLXRvLURhdGEiIHN0eWxlPSJzdHJva2U6IzE4MTgxODtzdHJva2Utd2lkdGg6MS4wO3N0cm9rZS1kYXNoYXJyYXk6Ny4wLDcuMDsiLz48cG9seWdvbiBmaWxsPSIjMTgxODE4IiBwb2ludHM9Ijg1LDMzMi43LDg5LDMyMy43LDg1LDMyNy43LDgxLDMyMy43LDg1LDMzMi43IiBzdHlsZT0ic3Ryb2tlOiMxODE4MTg7c3Ryb2tlLXdpZHRoOjEuMDsiLz48L2c+PCEtLVNSQz1bbkwwekp5Q200RHRwQXF2VGtiS1c4S1FhRGUyQVgxMUkxa1Iza0pRZDlkUHFsYkdBWUYtRXhPWjRUNjc0cV9ienRSRk5pRVVRRzFrMmhRaG0tdzM0bmJhRjFvVFdNbElVRkEyaldRc0k3RDJHQl9vOVJPLTJ0SUlPWktfMU1GNDdtVE1iZjBmVVNaaHNrUVBPQnlsX3REYjRmTTRuQktMWkVOWHJOU285Umd6WlcyenNtY1MxdVVwR2Q4eFkxYmtOaFd0dlJtcWhKT29KY2NIMlRzc0c5VkpITU50MVpjMUZ4UGNLM1N2bXdkcnpjLXhwZW5WWWZsV2dpWDlwLVZ5ZnFlU1NGMUIwd1hiN2FsM0w5MlljNkxVZnBXX3pBa0o5QVlleGMtRlJsZ3o4cFhwX0ZlREI5X0hXWnNtZkgtekhDVXhDbXMycGtWa0xhaXM5b3dBTUNKNG54WGkwXS0tPjwvZz48L3N2Zz4=;" parent="1" vertex="1">
            <mxGeometry x="-413" y="-3370" width="373" height="859.43" as="geometry" />
          </mxCell>
        </UserObject>
        <mxCell id="GsaM81ASL0noFZmj_fNP-11" value="" style="group" parent="1" vertex="1" connectable="0">
          <mxGeometry x="-1740" y="1190" width="3226.394366197183" height="1440" as="geometry" />
        </mxCell>
        <mxCell id="TtmFSg_aWq5ySA_oG-eG-17" value="" style="shape=folder;fontStyle=1;spacingTop=10;tabWidth=250;tabHeight=70;tabPosition=left;html=1;" parent="GsaM81ASL0noFZmj_fNP-11" vertex="1">
          <mxGeometry y="10" width="3171.042253521127" height="1430" as="geometry" />
        </mxCell>
        <mxCell id="M8zQa_Ylqo-KHK09IEU5-125" value="&lt;font style=&quot;font-size: 23px&quot;&gt;CoreEngine Layer&lt;/font&gt;" style="text;html=1;strokeColor=none;fillColor=none;align=center;verticalAlign=middle;whiteSpace=wrap;rounded=0;" parent="GsaM81ASL0noFZmj_fNP-11" vertex="1">
          <mxGeometry width="223.943661971831" height="83.42067226890757" as="geometry" />
        </mxCell>
        <mxCell id="GsaM81ASL0noFZmj_fNP-13" style="edgeStyle=orthogonalEdgeStyle;rounded=0;orthogonalLoop=1;jettySize=auto;html=1;" parent="GsaM81ASL0noFZmj_fNP-11" source="TtmFSg_aWq5ySA_oG-eG-11" target="GsaM81ASL0noFZmj_fNP-9" edge="1">
          <mxGeometry relative="1" as="geometry" />
        </mxCell>
        <mxCell id="TtmFSg_aWq5ySA_oG-eG-11" value="UnaryBasicOperation(CRUD)&lt;span&gt;: &lt;br&gt;&lt;/span&gt;&lt;blockquote style=&quot;margin: 0 0 0 40px ; border: none ; padding: 0px&quot;&gt;&lt;span&gt;While Create, Update, and Delete specifically might seem like they could require two sets (old data and new data), they are essentially unary because they operate on one dataset at a time. The Read operation also falls into this category as it merely fetches or visualizes the data.&lt;/span&gt;&lt;/blockquote&gt;&lt;div&gt;&lt;br&gt;&lt;/div&gt;&lt;div&gt;CalculusOperation:&lt;/div&gt;&lt;div&gt;&lt;ul&gt;&lt;li&gt;&lt;span&gt;Derivatives: Computed on a single function to determine its rate of change.&lt;/span&gt;&lt;/li&gt;&lt;li&gt;Integrals: Computed over a single function to determine the area under the curve.&lt;/li&gt;&lt;/ul&gt;&lt;/div&gt;&lt;div&gt;&lt;br&gt;&lt;/div&gt;&lt;div&gt;ApproximationOperation(Interpolation and Fitting):&amp;nbsp;&lt;/div&gt;&lt;blockquote style=&quot;margin: 0 0 0 40px ; border: none ; padding: 0px&quot;&gt;&lt;div&gt;Given a set of data points, this operation aims to fit a curve (or surface) through them. It typically acts on a single dataset.&lt;/div&gt;&lt;/blockquote&gt;&lt;div&gt;&lt;br&gt;&lt;/div&gt;&lt;div&gt;StatisticalOperation:&lt;/div&gt;&lt;div&gt;&lt;ul&gt;&lt;li&gt;&lt;span&gt;Descriptive Statistics: Such as mean, median, mode, variance, etc., which describe a single dataset.&lt;/span&gt;&lt;/li&gt;&lt;li&gt;Inferential Statistics: Making predictions or inferences about a population based on a sample.&lt;/li&gt;&lt;li&gt;Hypothesis Testing: Tests a statement or hypothesis about a parameter of a population, based on sample data.&lt;/li&gt;&lt;/ul&gt;&lt;/div&gt;&lt;div&gt;&lt;br&gt;&lt;/div&gt;&lt;div&gt;UnaryLinearAlgebraOperation:&lt;/div&gt;&lt;div&gt;&lt;ul&gt;&lt;li&gt;&lt;span&gt;Solving systems of linear equations (assuming it&#39;s about solving for one set of variables).&lt;/span&gt;&lt;/li&gt;&lt;li&gt;Matrix operations, such as finding determinants, inverses, etc. (for a single matrix).&lt;/li&gt;&lt;/ul&gt;&lt;/div&gt;" style="rounded=0;whiteSpace=wrap;html=1;align=left;" parent="GsaM81ASL0noFZmj_fNP-11" vertex="1">
          <mxGeometry x="510.5899540806484" y="970.001344537815" width="879.6384333397646" height="432.6050420168067" as="geometry" />
        </mxCell>
        <mxCell id="GsaM81ASL0noFZmj_fNP-12" style="edgeStyle=orthogonalEdgeStyle;rounded=0;orthogonalLoop=1;jettySize=auto;html=1;" parent="GsaM81ASL0noFZmj_fNP-11" source="TtmFSg_aWq5ySA_oG-eG-12" target="GsaM81ASL0noFZmj_fNP-9" edge="1">
          <mxGeometry relative="1" as="geometry" />
        </mxCell>
        <mxCell id="TtmFSg_aWq5ySA_oG-eG-12" value="&lt;div&gt;BinaryBasicOperation:&lt;/div&gt;&lt;div&gt;&lt;ul&gt;&lt;li&gt;&lt;span&gt;Add: Combines two datasets or curves.&lt;/span&gt;&lt;/li&gt;&lt;li&gt;Delete: Might seem unary, but if you consider it as subtracting one dataset from another, it can be thought of as binary. However, this interpretation might differ based on the exact functionality intended.&lt;/li&gt;&lt;li&gt;Multiply: Multiplies corresponding data points from two datasets.&lt;/li&gt;&lt;li&gt;Division: Divides data points of one dataset by the corresponding points of another.&lt;/li&gt;&lt;/ul&gt;&lt;/div&gt;&lt;div&gt;&lt;br&gt;&lt;/div&gt;&lt;div&gt;RegressionOperation:&amp;nbsp;&lt;/div&gt;&lt;blockquote style=&quot;margin: 0 0 0 40px ; border: none ; padding: 0px&quot;&gt;&lt;div&gt;While it identifies relationships between variables, regression is typically binary because it tries to relate an independent variable (or multiple independent variables) to a dependent one.&lt;/div&gt;&lt;/blockquote&gt;&lt;div&gt;&lt;br&gt;&lt;/div&gt;&lt;div&gt;BinaryLinearAlgebraOperation:&lt;/div&gt;&lt;div&gt;&lt;ul&gt;&lt;li&gt;&lt;span&gt;Solving systems of linear equations when trying to relate two sets of variables can be considered binary.&lt;/span&gt;&lt;/li&gt;&lt;li&gt;Matrix multiplication, which requires two matrices.&lt;/li&gt;&lt;/ul&gt;&lt;/div&gt;" style="rounded=0;whiteSpace=wrap;html=1;align=left;" parent="GsaM81ASL0noFZmj_fNP-11" vertex="1">
          <mxGeometry x="1998.4767979934402" y="970.0013445378152" width="689.2781605247926" height="325.65546218487395" as="geometry" />
        </mxCell>
        <UserObject label="" plantUmlData="{&quot;data&quot;:&quot;@startuml\n\n&#39; Styling\nskinparam class {\n    BackgroundColor White\n    BorderColor Black\n    FontName Helvetica\n    FontSize 16\n    AttributeFontSize 14\n}\n\nskinparam interface {\n    BackgroundColor White\n    BorderColor Black\n    FontName Helvetica\n    FontSize 16\n    AttributeFontSize 14\n}\n\nhide circle\n\n&#39; Enum\nenum OperationType {\n    Unary,\n    Binary,\n    CustomExtend\n}\n\n&#39; CoreEngine and its related components\nclass CoreEngine {\n    - static m_instance: CoreEngine*\n    - m_operationRegistrant: OperationRegistrant*\n    - m_resultCache: Cache&lt;string, std::shared_ptr&lt;OperationResult&gt;&gt;\n    + static getInstance(): CoreEngine*\n    + execute(context: IOperationContext*): OperationResult\n}\nCoreEngine *-down- OperationRegistrant\nCoreEngine *-down- Cache\n\n&#39; Context interfaces and classes\ninterface IOperationContext &lt;&lt;interface&gt;&gt; {\n    + getOperationType(): OperationType\n    + getData(): IPointSeries*\n}\nclass UnaryOperationContext {\n    -operationType: OperationType\n    -data[1]: IPointSeries*\n    +getOperationType(): OperationType\n    +getData(): std::vector&lt;IPointSeries*&gt;\n}\n\nclass BinaryOperationContext {\n    -operationType: OperationType\n    -data[2]: IPointSeries*\n    +getOperationType(): OperationType\n    +getData(): std::vector&lt;IPointSeries*&gt;\n}\n\nclass CustomExtendOperationContext {\n    -operationType: OperationType\n    -data: IPointSeries*\n    +getOperationType(): OperationType\n    +getData(): std::vector&lt;IPointSeries*&gt;\n}\n\nIOperationContext &lt;|.. UnaryOperationContext\nIOperationContext &lt;|.. BinaryOperationContext\nIOperationContext &lt;|.. CustomExtendOperationContext\nIOperationContext *-up- IPointSeries \n\n&#39; Data interfaces and classes\ninterface IPointSeries &lt;&lt;interface&gt;&gt; {\n    +~IPointSeries()\n\n}\nclass OneDPointSeries {\n    -m_points: vector&lt;double&gt;\n    +getNthPoint(): vector&lt;double&gt;\n}\n\nclass TwoDPointSeries {\n    -m_points: vector&lt;double, double&gt;\n    +getNthPoint(): vector&lt;double, double&gt;\n}\n\nclass ThreeDPointSeries {\n    -m_points: vector&lt;double, double, double&gt;\n    +getNthPoint(): vector&lt;double, double, double&gt;\n}\n\nclass CustomPointSeries&lt;T&gt; {\n    -m_points: vector&lt;T&gt;\n    +getNthPoint(): vector&lt;T&gt;\n}\n\nclass OperationResult{\n    -m_resultPoints: IPointSeries*\n    -m_isSuccess: bool\n    -m_message: std::string\n}\n\nIPointSeries &lt;|.. OneDPointSeries \nIPointSeries &lt;|.. TwoDPointSeries \nIPointSeries &lt;|.. ThreeDPointSeries \nIPointSeries &lt;|.. CustomPointSeries\n\n&#39; Operation interfaces and classes\ninterface IOperation &lt;&lt;interface&gt;&gt; {\n    + execute(data: std::vector&lt;IPointSeries*&gt;): OperationResult*\n    + getType(): OperationType\n}\ninterface IUnaryOperation &lt;&lt;interface&gt;&gt; extends IOperation {\n    + execute(data: std::vector&lt;IPointSeries*&gt;): OperationResult*\n    # unaryExecute(IPointSeries* dataSeries1): OperationResult*\n}\n\ninterface IBinaryOperation &lt;&lt;interface&gt;&gt; extends IOperation {\n    +execute(data1: IPointSeries, data2: IPointSeries): OperationResult\n    # binaryExecute(IPointSeries* dataSeries1, IPointSeries* dataSeries2): OperationResult*\n}\n\ninterface ICustomExtendOperation&lt;T...&gt; &lt;&lt;interface&gt;&gt; extends IOperation {\n    +execute(data: vector&lt;CustomPointSeries&lt;T...&gt;&gt;): OperationResult\n    -m_functions: vector&lt;Function&gt;\n}\n\nclass OperationRegistrant {\n    - m_operations: map&lt;OperationType, std::unique_ptr&lt;IOperation&gt;&gt;\n    - static m_instance: OperationRegistrant*\n    + registerOperation(type: OperationType, operation: IOperation): void\n    + getOperation(type: OperationType): IOperation*\n}\n\n&#39; Utility classes for caching\n\nclass Cache {\n    - m_cacheMap: map&lt;K, V&gt;\n    - m_capacity: size_t\n    + get(key: K): V\n    + put(key: K, value: V): void\n    + remove(Key: K): void\n    + contains(Key: K): bool\n}\n\n&#39; Relationships\nCoreEngine --&gt; IOperationContext : uses &gt; execute\nCoreEngine --&gt; OperationResult : uses &gt; return\nOperationRegistrant --&gt; IOperation : provides\n\n@enduml\n&quot;,&quot;format&quot;:&quot;svg&quot;}" id="GsaM81ASL0noFZmj_fNP-9">
          <mxCell style="shape=image;noLabel=1;verticalAlign=top;aspect=fixed;imageAspect=0;image=data:image/svg+xml,PD94bWwgdmVyc2lvbj0iMS4wIiBlbmNvZGluZz0idXMtYXNjaWkiIHN0YW5kYWxvbmU9Im5vIj8+PHN2ZyB4bWxucz0iaHR0cDovL3d3dy53My5vcmcvMjAwMC9zdmciIHhtbG5zOnhsaW5rPSJodHRwOi8vd3d3LnczLm9yZy8xOTk5L3hsaW5rIiBjb250ZW50U3R5bGVUeXBlPSJ0ZXh0L2NzcyIgaGVpZ2h0PSI2NTZweCIgcHJlc2VydmVBc3BlY3RSYXRpbz0ibm9uZSIgc3R5bGU9IndpZHRoOjI4NDRweDtoZWlnaHQ6NjU2cHg7YmFja2dyb3VuZDojRkZGRkZGOyIgdmVyc2lvbj0iMS4xIiB2aWV3Qm94PSIwIDAgMjg0NCA2NTYiIHdpZHRoPSIyODQ0cHgiIHpvb21BbmRQYW49Im1hZ25pZnkiPjxkZWZzLz48Zz48IS0tY2xhc3MgT3BlcmF0aW9uVHlwZS0tPjxnIGlkPSJlbGVtX09wZXJhdGlvblR5cGUiPjxyZWN0IGNvZGVMaW5lPSIyMSIgZmlsbD0iI0ZGRkZGRiIgaGVpZ2h0PSI4NS45Mzc1IiBpZD0iT3BlcmF0aW9uVHlwZSIgcng9IjIuNSIgcnk9IjIuNSIgc3R5bGU9InN0cm9rZTojMDAwMDAwO3N0cm9rZS13aWR0aDowLjU7IiB3aWR0aD0iOTciIHg9IjI0NjAuNSIgeT0iMjIiLz48dGV4dCBmaWxsPSIjMDAwMDAwIiBmb250LWZhbWlseT0iSGVsdmV0aWNhIiBmb250LXNpemU9IjE0IiBsZW5ndGhBZGp1c3Q9InNwYWNpbmciIHRleHRMZW5ndGg9IjkxIiB4PSIyNDYzLjUiIHk9IjQwLjIzNDQiPk9wZXJhdGlvblR5cGU8L3RleHQ+PGxpbmUgc3R5bGU9InN0cm9rZTojMDAwMDAwO3N0cm9rZS13aWR0aDowLjU7IiB4MT0iMjQ2MS41IiB4Mj0iMjU1Ni41IiB5MT0iNDYuOTg0NCIgeTI9IjQ2Ljk4NDQiLz48dGV4dCBmaWxsPSIjMDAwMDAwIiBmb250LWZhbWlseT0ic2Fucy1zZXJpZiIgZm9udC1zaXplPSIxNCIgbGVuZ3RoQWRqdXN0PSJzcGFjaW5nIiB0ZXh0TGVuZ3RoPSI0MiIgeD0iMjQ2Ni41IiB5PSI2NC4yMTg4Ij5VbmFyeSw8L3RleHQ+PHRleHQgZmlsbD0iIzAwMDAwMCIgZm9udC1mYW1pbHk9InNhbnMtc2VyaWYiIGZvbnQtc2l6ZT0iMTQiIGxlbmd0aEFkanVzdD0ic3BhY2luZyIgdGV4dExlbmd0aD0iNDkiIHg9IjI0NjYuNSIgeT0iNzkuMjAzMSI+QmluYXJ5LDwvdGV4dD48dGV4dCBmaWxsPSIjMDAwMDAwIiBmb250LWZhbWlseT0ic2Fucy1zZXJpZiIgZm9udC1zaXplPSIxNCIgbGVuZ3RoQWRqdXN0PSJzcGFjaW5nIiB0ZXh0TGVuZ3RoPSI4NSIgeD0iMjQ2Ni41IiB5PSI5NC4xODc1Ij5DdXN0b21FeHRlbmQ8L3RleHQ+PGxpbmUgc3R5bGU9InN0cm9rZTojMDAwMDAwO3N0cm9rZS13aWR0aDowLjU7IiB4MT0iMjQ2MS41IiB4Mj0iMjU1Ni41IiB5MT0iOTkuOTM3NSIgeTI9Ijk5LjkzNzUiLz48L2c+PCEtLWNsYXNzIENvcmVFbmdpbmUtLT48ZyBpZD0iZWxlbV9Db3JlRW5naW5lIj48cmVjdCBjb2RlTGluZT0iMjgiIGZpbGw9IiNGRkZGRkYiIGhlaWdodD0iMTE1LjkwNjMiIGlkPSJDb3JlRW5naW5lIiByeD0iMi41IiByeT0iMi41IiBzdHlsZT0ic3Ryb2tlOiMwMDAwMDA7c3Ryb2tlLXdpZHRoOjAuNTsiIHdpZHRoPSI0NjEiIHg9IjE5NjQuNSIgeT0iNyIvPjx0ZXh0IGZpbGw9IiMwMDAwMDAiIGZvbnQtZmFtaWx5PSJIZWx2ZXRpY2EiIGZvbnQtc2l6ZT0iMTQiIGxlbmd0aEFkanVzdD0ic3BhY2luZyIgdGV4dExlbmd0aD0iNzAiIHg9IjIxNjAiIHk9IjI1LjIzNDQiPkNvcmVFbmdpbmU8L3RleHQ+PGxpbmUgc3R5bGU9InN0cm9rZTojMDAwMDAwO3N0cm9rZS13aWR0aDowLjU7IiB4MT0iMTk2NS41IiB4Mj0iMjQyNC41IiB5MT0iMzEuOTg0NCIgeTI9IjMxLjk4NDQiLz48cmVjdCBmaWxsPSJub25lIiBoZWlnaHQ9IjYiIHN0eWxlPSJzdHJva2U6I0M4MjkzMDtzdHJva2Utd2lkdGg6MS4wOyIgd2lkdGg9IjYiIHg9IjE5NzIuNSIgeT0iNDEuOTc2NiIvPjx0ZXh0IGZpbGw9IiMwMDAwMDAiIGZvbnQtZmFtaWx5PSJzYW5zLXNlcmlmIiBmb250LXNpemU9IjE0IiBsZW5ndGhBZGp1c3Q9InNwYWNpbmciIHRleHRMZW5ndGg9IjIxMSIgeD0iMTk4NC41IiB5PSI0OS4yMTg4Ij5zdGF0aWMgbV9pbnN0YW5jZTogQ29yZUVuZ2luZSo8L3RleHQ+PHJlY3QgZmlsbD0ibm9uZSIgaGVpZ2h0PSI2IiBzdHlsZT0ic3Ryb2tlOiNDODI5MzA7c3Ryb2tlLXdpZHRoOjEuMDsiIHdpZHRoPSI2IiB4PSIxOTcyLjUiIHk9IjU2Ljk2MDkiLz48dGV4dCBmaWxsPSIjMDAwMDAwIiBmb250LWZhbWlseT0ic2Fucy1zZXJpZiIgZm9udC1zaXplPSIxNCIgbGVuZ3RoQWRqdXN0PSJzcGFjaW5nIiB0ZXh0TGVuZ3RoPSIzMDIiIHg9IjE5ODQuNSIgeT0iNjQuMjAzMSI+bV9vcGVyYXRpb25SZWdpc3RyYW50OiBPcGVyYXRpb25SZWdpc3RyYW50KjwvdGV4dD48cmVjdCBmaWxsPSJub25lIiBoZWlnaHQ9IjYiIHN0eWxlPSJzdHJva2U6I0M4MjkzMDtzdHJva2Utd2lkdGg6MS4wOyIgd2lkdGg9IjYiIHg9IjE5NzIuNSIgeT0iNzEuOTQ1MyIvPjx0ZXh0IGZpbGw9IiMwMDAwMDAiIGZvbnQtZmFtaWx5PSJzYW5zLXNlcmlmIiBmb250LXNpemU9IjE0IiBsZW5ndGhBZGp1c3Q9InNwYWNpbmciIHRleHRMZW5ndGg9IjQzNSIgeD0iMTk4NC41IiB5PSI3OS4xODc1Ij5tX3Jlc3VsdENhY2hlOiBDYWNoZSZsdDtzdHJpbmcsIHN0ZDo6c2hhcmVkX3B0ciZsdDtPcGVyYXRpb25SZXN1bHQmZ3Q7Jmd0OzwvdGV4dD48bGluZSBzdHlsZT0ic3Ryb2tlOiMwMDAwMDA7c3Ryb2tlLXdpZHRoOjAuNTsiIHgxPSIxOTY1LjUiIHgyPSIyNDI0LjUiIHkxPSI4NC45Mzc1IiB5Mj0iODQuOTM3NSIvPjxlbGxpcHNlIGN4PSIxOTc1LjUiIGN5PSI5Ny45Mjk3IiBmaWxsPSIjODRCRTg0IiByeD0iMyIgcnk9IjMiIHN0eWxlPSJzdHJva2U6IzAzODA0ODtzdHJva2Utd2lkdGg6MS4wOyIvPjx0ZXh0IGZpbGw9IiMwMDAwMDAiIGZvbnQtZmFtaWx5PSJzYW5zLXNlcmlmIiBmb250LXNpemU9IjE0IiBsZW5ndGhBZGp1c3Q9InNwYWNpbmciIHRleHRMZW5ndGg9IjIzMyIgeD0iMTk4NC41IiB5PSIxMDIuMTcxOSI+c3RhdGljIGdldEluc3RhbmNlKCk6IENvcmVFbmdpbmUqPC90ZXh0PjxlbGxpcHNlIGN4PSIxOTc1LjUiIGN5PSIxMTIuOTE0MSIgZmlsbD0iIzg0QkU4NCIgcng9IjMiIHJ5PSIzIiBzdHlsZT0ic3Ryb2tlOiMwMzgwNDg7c3Ryb2tlLXdpZHRoOjEuMDsiLz48dGV4dCBmaWxsPSIjMDAwMDAwIiBmb250LWZhbWlseT0ic2Fucy1zZXJpZiIgZm9udC1zaXplPSIxNCIgbGVuZ3RoQWRqdXN0PSJzcGFjaW5nIiB0ZXh0TGVuZ3RoPSIzNzMiIHg9IjE5ODQuNSIgeT0iMTE3LjE1NjMiPmV4ZWN1dGUoY29udGV4dDogSU9wZXJhdGlvbkNvbnRleHQqKTogT3BlcmF0aW9uUmVzdWx0PC90ZXh0PjwvZz48IS0tY2xhc3MgT3BlcmF0aW9uUmVnaXN0cmFudC0tPjxnIGlkPSJlbGVtX09wZXJhdGlvblJlZ2lzdHJhbnQiPjxyZWN0IGNvZGVMaW5lPSIxMjUiIGZpbGw9IiNGRkZGRkYiIGhlaWdodD0iMTAwLjkyMTkiIGlkPSJPcGVyYXRpb25SZWdpc3RyYW50IiByeD0iMi41IiByeT0iMi41IiBzdHlsZT0ic3Ryb2tlOiMwMDAwMDA7c3Ryb2tlLXdpZHRoOjAuNTsiIHdpZHRoPSI0OTciIHg9IjE2NTIuNSIgeT0iMjEzIi8+PHRleHQgZmlsbD0iIzAwMDAwMCIgZm9udC1mYW1pbHk9IkhlbHZldGljYSIgZm9udC1zaXplPSIxNCIgbGVuZ3RoQWRqdXN0PSJzcGFjaW5nIiB0ZXh0TGVuZ3RoPSIxMzMiIHg9IjE4MzQuNSIgeT0iMjMxLjIzNDQiPk9wZXJhdGlvblJlZ2lzdHJhbnQ8L3RleHQ+PGxpbmUgc3R5bGU9InN0cm9rZTojMDAwMDAwO3N0cm9rZS13aWR0aDowLjU7IiB4MT0iMTY1My41IiB4Mj0iMjE0OC41IiB5MT0iMjM3Ljk4NDQiIHkyPSIyMzcuOTg0NCIvPjxyZWN0IGZpbGw9Im5vbmUiIGhlaWdodD0iNiIgc3R5bGU9InN0cm9rZTojQzgyOTMwO3N0cm9rZS13aWR0aDoxLjA7IiB3aWR0aD0iNiIgeD0iMTY2MC41IiB5PSIyNDcuOTc2NiIvPjx0ZXh0IGZpbGw9IiMwMDAwMDAiIGZvbnQtZmFtaWx5PSJzYW5zLXNlcmlmIiBmb250LXNpemU9IjE0IiBsZW5ndGhBZGp1c3Q9InNwYWNpbmciIHRleHRMZW5ndGg9IjQyOSIgeD0iMTY3Mi41IiB5PSIyNTUuMjE4OCI+bV9vcGVyYXRpb25zOiBtYXAmbHQ7T3BlcmF0aW9uVHlwZSwgc3RkOjp1bmlxdWVfcHRyJmx0O0lPcGVyYXRpb24mZ3Q7Jmd0OzwvdGV4dD48cmVjdCBmaWxsPSJub25lIiBoZWlnaHQ9IjYiIHN0eWxlPSJzdHJva2U6I0M4MjkzMDtzdHJva2Utd2lkdGg6MS4wOyIgd2lkdGg9IjYiIHg9IjE2NjAuNSIgeT0iMjYyLjk2MDkiLz48dGV4dCBmaWxsPSIjMDAwMDAwIiBmb250LWZhbWlseT0ic2Fucy1zZXJpZiIgZm9udC1zaXplPSIxNCIgbGVuZ3RoQWRqdXN0PSJzcGFjaW5nIiB0ZXh0TGVuZ3RoPSIyNzQiIHg9IjE2NzIuNSIgeT0iMjcwLjIwMzEiPnN0YXRpYyBtX2luc3RhbmNlOiBPcGVyYXRpb25SZWdpc3RyYW50KjwvdGV4dD48bGluZSBzdHlsZT0ic3Ryb2tlOiMwMDAwMDA7c3Ryb2tlLXdpZHRoOjAuNTsiIHgxPSIxNjUzLjUiIHgyPSIyMTQ4LjUiIHkxPSIyNzUuOTUzMSIgeTI9IjI3NS45NTMxIi8+PGVsbGlwc2UgY3g9IjE2NjMuNSIgY3k9IjI4OC45NDUzIiBmaWxsPSIjODRCRTg0IiByeD0iMyIgcnk9IjMiIHN0eWxlPSJzdHJva2U6IzAzODA0ODtzdHJva2Utd2lkdGg6MS4wOyIvPjx0ZXh0IGZpbGw9IiMwMDAwMDAiIGZvbnQtZmFtaWx5PSJzYW5zLXNlcmlmIiBmb250LXNpemU9IjE0IiBsZW5ndGhBZGp1c3Q9InNwYWNpbmciIHRleHRMZW5ndGg9IjQ3MSIgeD0iMTY3Mi41IiB5PSIyOTMuMTg3NSI+cmVnaXN0ZXJPcGVyYXRpb24odHlwZTogT3BlcmF0aW9uVHlwZSwgb3BlcmF0aW9uOiBJT3BlcmF0aW9uKTogdm9pZDwvdGV4dD48ZWxsaXBzZSBjeD0iMTY2My41IiBjeT0iMzAzLjkyOTciIGZpbGw9IiM4NEJFODQiIHJ4PSIzIiByeT0iMyIgc3R5bGU9InN0cm9rZTojMDM4MDQ4O3N0cm9rZS13aWR0aDoxLjA7Ii8+PHRleHQgZmlsbD0iIzAwMDAwMCIgZm9udC1mYW1pbHk9InNhbnMtc2VyaWYiIGZvbnQtc2l6ZT0iMTQiIGxlbmd0aEFkanVzdD0ic3BhY2luZyIgdGV4dExlbmd0aD0iMzI0IiB4PSIxNjcyLjUiIHk9IjMwOC4xNzE5Ij5nZXRPcGVyYXRpb24odHlwZTogT3BlcmF0aW9uVHlwZSk6IElPcGVyYXRpb24qPC90ZXh0PjwvZz48IS0tY2xhc3MgQ2FjaGUtLT48ZyBpZD0iZWxlbV9DYWNoZSI+PHJlY3QgY29kZUxpbmU9IjEzNCIgZmlsbD0iI0ZGRkZGRiIgaGVpZ2h0PSIxMzAuODkwNiIgaWQ9IkNhY2hlIiByeD0iMi41IiByeT0iMi41IiBzdHlsZT0ic3Ryb2tlOiMwMDAwMDA7c3Ryb2tlLXdpZHRoOjAuNTsiIHdpZHRoPSIyMTciIHg9IjIxODQuNSIgeT0iMTk4Ii8+PHRleHQgZmlsbD0iIzAwMDAwMCIgZm9udC1mYW1pbHk9IkhlbHZldGljYSIgZm9udC1zaXplPSIxNCIgbGVuZ3RoQWRqdXN0PSJzcGFjaW5nIiB0ZXh0TGVuZ3RoPSIzNSIgeD0iMjI3NS41IiB5PSIyMTYuMjM0NCI+Q2FjaGU8L3RleHQ+PGxpbmUgc3R5bGU9InN0cm9rZTojMDAwMDAwO3N0cm9rZS13aWR0aDowLjU7IiB4MT0iMjE4NS41IiB4Mj0iMjQwMC41IiB5MT0iMjIyLjk4NDQiIHkyPSIyMjIuOTg0NCIvPjxyZWN0IGZpbGw9Im5vbmUiIGhlaWdodD0iNiIgc3R5bGU9InN0cm9rZTojQzgyOTMwO3N0cm9rZS13aWR0aDoxLjA7IiB3aWR0aD0iNiIgeD0iMjE5Mi41IiB5PSIyMzIuOTc2NiIvPjx0ZXh0IGZpbGw9IiMwMDAwMDAiIGZvbnQtZmFtaWx5PSJzYW5zLXNlcmlmIiBmb250LXNpemU9IjE0IiBsZW5ndGhBZGp1c3Q9InNwYWNpbmciIHRleHRMZW5ndGg9IjE0OSIgeD0iMjIwNC41IiB5PSIyNDAuMjE4OCI+bV9jYWNoZU1hcDogbWFwJmx0O0ssIFYmZ3Q7PC90ZXh0PjxyZWN0IGZpbGw9Im5vbmUiIGhlaWdodD0iNiIgc3R5bGU9InN0cm9rZTojQzgyOTMwO3N0cm9rZS13aWR0aDoxLjA7IiB3aWR0aD0iNiIgeD0iMjE5Mi41IiB5PSIyNDcuOTYwOSIvPjx0ZXh0IGZpbGw9IiMwMDAwMDAiIGZvbnQtZmFtaWx5PSJzYW5zLXNlcmlmIiBmb250LXNpemU9IjE0IiBsZW5ndGhBZGp1c3Q9InNwYWNpbmciIHRleHRMZW5ndGg9IjEyNyIgeD0iMjIwNC41IiB5PSIyNTUuMjAzMSI+bV9jYXBhY2l0eTogc2l6ZV90PC90ZXh0PjxsaW5lIHN0eWxlPSJzdHJva2U6IzAwMDAwMDtzdHJva2Utd2lkdGg6MC41OyIgeDE9IjIxODUuNSIgeDI9IjI0MDAuNSIgeTE9IjI2MC45NTMxIiB5Mj0iMjYwLjk1MzEiLz48ZWxsaXBzZSBjeD0iMjE5NS41IiBjeT0iMjczLjk0NTMiIGZpbGw9IiM4NEJFODQiIHJ4PSIzIiByeT0iMyIgc3R5bGU9InN0cm9rZTojMDM4MDQ4O3N0cm9rZS13aWR0aDoxLjA7Ii8+PHRleHQgZmlsbD0iIzAwMDAwMCIgZm9udC1mYW1pbHk9InNhbnMtc2VyaWYiIGZvbnQtc2l6ZT0iMTQiIGxlbmd0aEFkanVzdD0ic3BhY2luZyIgdGV4dExlbmd0aD0iMTAwIiB4PSIyMjA0LjUiIHk9IjI3OC4xODc1Ij5nZXQoa2V5OiBLKTogVjwvdGV4dD48ZWxsaXBzZSBjeD0iMjE5NS41IiBjeT0iMjg4LjkyOTciIGZpbGw9IiM4NEJFODQiIHJ4PSIzIiByeT0iMyIgc3R5bGU9InN0cm9rZTojMDM4MDQ4O3N0cm9rZS13aWR0aDoxLjA7Ii8+PHRleHQgZmlsbD0iIzAwMDAwMCIgZm9udC1mYW1pbHk9InNhbnMtc2VyaWYiIGZvbnQtc2l6ZT0iMTQiIGxlbmd0aEFkanVzdD0ic3BhY2luZyIgdGV4dExlbmd0aD0iMTkxIiB4PSIyMjA0LjUiIHk9IjI5My4xNzE5Ij5wdXQoa2V5OiBLLCB2YWx1ZTogVik6IHZvaWQ8L3RleHQ+PGVsbGlwc2UgY3g9IjIxOTUuNSIgY3k9IjMwMy45MTQxIiBmaWxsPSIjODRCRTg0IiByeD0iMyIgcnk9IjMiIHN0eWxlPSJzdHJva2U6IzAzODA0ODtzdHJva2Utd2lkdGg6MS4wOyIvPjx0ZXh0IGZpbGw9IiMwMDAwMDAiIGZvbnQtZmFtaWx5PSJzYW5zLXNlcmlmIiBmb250LXNpemU9IjE0IiBsZW5ndGhBZGp1c3Q9InNwYWNpbmciIHRleHRMZW5ndGg9IjE0MyIgeD0iMjIwNC41IiB5PSIzMDguMTU2MyI+cmVtb3ZlKEtleTogSyk6IHZvaWQ8L3RleHQ+PGVsbGlwc2UgY3g9IjIxOTUuNSIgY3k9IjMxOC44OTg0IiBmaWxsPSIjODRCRTg0IiByeD0iMyIgcnk9IjMiIHN0eWxlPSJzdHJva2U6IzAzODA0ODtzdHJva2Utd2lkdGg6MS4wOyIvPjx0ZXh0IGZpbGw9IiMwMDAwMDAiIGZvbnQtZmFtaWx5PSJzYW5zLXNlcmlmIiBmb250LXNpemU9IjE0IiBsZW5ndGhBZGp1c3Q9InNwYWNpbmciIHRleHRMZW5ndGg9IjE1NiIgeD0iMjIwNC41IiB5PSIzMjMuMTQwNiI+Y29udGFpbnMoS2V5OiBLKTogYm9vbDwvdGV4dD48L2c+PCEtLWNsYXNzIElPcGVyYXRpb25Db250ZXh0LS0+PGcgaWQ9ImVsZW1fSU9wZXJhdGlvbkNvbnRleHQiPjxyZWN0IGNvZGVMaW5lPSIzOSIgZmlsbD0iI0ZGRkZGRiIgaGVpZ2h0PSI4My43OTY5IiBpZD0iSU9wZXJhdGlvbkNvbnRleHQiIHJ4PSIyLjUiIHJ5PSIyLjUiIHN0eWxlPSJzdHJva2U6IzAwMDAwMDtzdHJva2Utd2lkdGg6MC41OyIgd2lkdGg9IjI1OSIgeD0iMTIwNC41IiB5PSIyMjEuNSIvPjx0ZXh0IGZpbGw9IiMwMDAwMDAiIGZvbnQtZmFtaWx5PSJzYW5zLXNlcmlmIiBmb250LXNpemU9IjEyIiBmb250LXN0eWxlPSJpdGFsaWMiIGxlbmd0aEFkanVzdD0ic3BhY2luZyIgdGV4dExlbmd0aD0iNzEiIHg9IjEyOTguNSIgeT0iMjM3Ljg0MzgiPiYjMTcxO2ludGVyZmFjZSYjMTg3OzwvdGV4dD48dGV4dCBmaWxsPSIjMDAwMDAwIiBmb250LWZhbWlseT0iSGVsdmV0aWNhIiBmb250LXNpemU9IjE0IiBmb250LXN0eWxlPSJpdGFsaWMiIGxlbmd0aEFkanVzdD0ic3BhY2luZyIgdGV4dExlbmd0aD0iMTE5IiB4PSIxMjc0LjUiIHk9IjI1Mi41NzgxIj5JT3BlcmF0aW9uQ29udGV4dDwvdGV4dD48bGluZSBzdHlsZT0ic3Ryb2tlOiMwMDAwMDA7c3Ryb2tlLXdpZHRoOjAuNTsiIHgxPSIxMjA1LjUiIHgyPSIxNDYyLjUiIHkxPSIyNTkuMzI4MSIgeTI9IjI1OS4zMjgxIi8+PGxpbmUgc3R5bGU9InN0cm9rZTojMDAwMDAwO3N0cm9rZS13aWR0aDowLjU7IiB4MT0iMTIwNS41IiB4Mj0iMTQ2Mi41IiB5MT0iMjY3LjMyODEiIHkyPSIyNjcuMzI4MSIvPjxlbGxpcHNlIGN4PSIxMjE1LjUiIGN5PSIyODAuMzIwMyIgZmlsbD0iIzg0QkU4NCIgcng9IjMiIHJ5PSIzIiBzdHlsZT0ic3Ryb2tlOiMwMzgwNDg7c3Ryb2tlLXdpZHRoOjEuMDsiLz48dGV4dCBmaWxsPSIjMDAwMDAwIiBmb250LWZhbWlseT0ic2Fucy1zZXJpZiIgZm9udC1zaXplPSIxNCIgbGVuZ3RoQWRqdXN0PSJzcGFjaW5nIiB0ZXh0TGVuZ3RoPSIyMzMiIHg9IjEyMjQuNSIgeT0iMjg0LjU2MjUiPmdldE9wZXJhdGlvblR5cGUoKTogT3BlcmF0aW9uVHlwZTwvdGV4dD48ZWxsaXBzZSBjeD0iMTIxNS41IiBjeT0iMjk1LjMwNDciIGZpbGw9IiM4NEJFODQiIHJ4PSIzIiByeT0iMyIgc3R5bGU9InN0cm9rZTojMDM4MDQ4O3N0cm9rZS13aWR0aDoxLjA7Ii8+PHRleHQgZmlsbD0iIzAwMDAwMCIgZm9udC1mYW1pbHk9InNhbnMtc2VyaWYiIGZvbnQtc2l6ZT0iMTQiIGxlbmd0aEFkanVzdD0ic3BhY2luZyIgdGV4dExlbmd0aD0iMTcwIiB4PSIxMjI0LjUiIHk9IjI5OS41NDY5Ij5nZXREYXRhKCk6IElQb2ludFNlcmllcyo8L3RleHQ+PC9nPjwhLS1jbGFzcyBVbmFyeU9wZXJhdGlvbkNvbnRleHQtLT48ZyBpZD0iZWxlbV9VbmFyeU9wZXJhdGlvbkNvbnRleHQiPjxyZWN0IGNvZGVMaW5lPSI0MyIgZmlsbD0iI0ZGRkZGRiIgaGVpZ2h0PSIxMDAuOTIxOSIgaWQ9IlVuYXJ5T3BlcmF0aW9uQ29udGV4dCIgcng9IjIuNSIgcnk9IjIuNSIgc3R5bGU9InN0cm9rZTojMDAwMDAwO3N0cm9rZS13aWR0aDowLjU7IiB3aWR0aD0iMjg3IiB4PSIxNDczLjUiIHk9IjQwNCIvPjx0ZXh0IGZpbGw9IiMwMDAwMDAiIGZvbnQtZmFtaWx5PSJIZWx2ZXRpY2EiIGZvbnQtc2l6ZT0iMTQiIGxlbmd0aEFkanVzdD0ic3BhY2luZyIgdGV4dExlbmd0aD0iMTQ3IiB4PSIxNTQzLjUiIHk9IjQyMi4yMzQ0Ij5VbmFyeU9wZXJhdGlvbkNvbnRleHQ8L3RleHQ+PGxpbmUgc3R5bGU9InN0cm9rZTojMDAwMDAwO3N0cm9rZS13aWR0aDowLjU7IiB4MT0iMTQ3NC41IiB4Mj0iMTc1OS41IiB5MT0iNDI4Ljk4NDQiIHkyPSI0MjguOTg0NCIvPjxyZWN0IGZpbGw9Im5vbmUiIGhlaWdodD0iNiIgc3R5bGU9InN0cm9rZTojQzgyOTMwO3N0cm9rZS13aWR0aDoxLjA7IiB3aWR0aD0iNiIgeD0iMTQ4MS41IiB5PSI0MzguOTc2NiIvPjx0ZXh0IGZpbGw9IiMwMDAwMDAiIGZvbnQtZmFtaWx5PSJzYW5zLXNlcmlmIiBmb250LXNpemU9IjE0IiBsZW5ndGhBZGp1c3Q9InNwYWNpbmciIHRleHRMZW5ndGg9IjE5NiIgeD0iMTQ5My41IiB5PSI0NDYuMjE4OCI+b3BlcmF0aW9uVHlwZTogT3BlcmF0aW9uVHlwZTwvdGV4dD48cmVjdCBmaWxsPSJub25lIiBoZWlnaHQ9IjYiIHN0eWxlPSJzdHJva2U6I0M4MjkzMDtzdHJva2Utd2lkdGg6MS4wOyIgd2lkdGg9IjYiIHg9IjE0ODEuNSIgeT0iNDUzLjk2MDkiLz48dGV4dCBmaWxsPSIjMDAwMDAwIiBmb250LWZhbWlseT0ic2Fucy1zZXJpZiIgZm9udC1zaXplPSIxNCIgbGVuZ3RoQWRqdXN0PSJzcGFjaW5nIiB0ZXh0TGVuZ3RoPSIxNTQiIHg9IjE0OTMuNSIgeT0iNDYxLjIwMzEiPmRhdGFbMV06IElQb2ludFNlcmllcyo8L3RleHQ+PGxpbmUgc3R5bGU9InN0cm9rZTojMDAwMDAwO3N0cm9rZS13aWR0aDowLjU7IiB4MT0iMTQ3NC41IiB4Mj0iMTc1OS41IiB5MT0iNDY2Ljk1MzEiIHkyPSI0NjYuOTUzMSIvPjxlbGxpcHNlIGN4PSIxNDg0LjUiIGN5PSI0NzkuOTQ1MyIgZmlsbD0iIzg0QkU4NCIgcng9IjMiIHJ5PSIzIiBzdHlsZT0ic3Ryb2tlOiMwMzgwNDg7c3Ryb2tlLXdpZHRoOjEuMDsiLz48dGV4dCBmaWxsPSIjMDAwMDAwIiBmb250LWZhbWlseT0ic2Fucy1zZXJpZiIgZm9udC1zaXplPSIxNCIgbGVuZ3RoQWRqdXN0PSJzcGFjaW5nIiB0ZXh0TGVuZ3RoPSIyMzMiIHg9IjE0OTMuNSIgeT0iNDg0LjE4NzUiPmdldE9wZXJhdGlvblR5cGUoKTogT3BlcmF0aW9uVHlwZTwvdGV4dD48ZWxsaXBzZSBjeD0iMTQ4NC41IiBjeT0iNDk0LjkyOTciIGZpbGw9IiM4NEJFODQiIHJ4PSIzIiByeT0iMyIgc3R5bGU9InN0cm9rZTojMDM4MDQ4O3N0cm9rZS13aWR0aDoxLjA7Ii8+PHRleHQgZmlsbD0iIzAwMDAwMCIgZm9udC1mYW1pbHk9InNhbnMtc2VyaWYiIGZvbnQtc2l6ZT0iMTQiIGxlbmd0aEFkanVzdD0ic3BhY2luZyIgdGV4dExlbmd0aD0iMjYxIiB4PSIxNDkzLjUiIHk9IjQ5OS4xNzE5Ij5nZXREYXRhKCk6IHN0ZDo6dmVjdG9yJmx0O0lQb2ludFNlcmllcyomZ3Q7PC90ZXh0PjwvZz48IS0tY2xhc3MgQmluYXJ5T3BlcmF0aW9uQ29udGV4dC0tPjxnIGlkPSJlbGVtX0JpbmFyeU9wZXJhdGlvbkNvbnRleHQiPjxyZWN0IGNvZGVMaW5lPSI1MCIgZmlsbD0iI0ZGRkZGRiIgaGVpZ2h0PSIxMDAuOTIxOSIgaWQ9IkJpbmFyeU9wZXJhdGlvbkNvbnRleHQiIHJ4PSIyLjUiIHJ5PSIyLjUiIHN0eWxlPSJzdHJva2U6IzAwMDAwMDtzdHJva2Utd2lkdGg6MC41OyIgd2lkdGg9IjI4NyIgeD0iODI5LjUiIHk9IjQwNCIvPjx0ZXh0IGZpbGw9IiMwMDAwMDAiIGZvbnQtZmFtaWx5PSJIZWx2ZXRpY2EiIGZvbnQtc2l6ZT0iMTQiIGxlbmd0aEFkanVzdD0ic3BhY2luZyIgdGV4dExlbmd0aD0iMTU0IiB4PSI4OTYiIHk9IjQyMi4yMzQ0Ij5CaW5hcnlPcGVyYXRpb25Db250ZXh0PC90ZXh0PjxsaW5lIHN0eWxlPSJzdHJva2U6IzAwMDAwMDtzdHJva2Utd2lkdGg6MC41OyIgeDE9IjgzMC41IiB4Mj0iMTExNS41IiB5MT0iNDI4Ljk4NDQiIHkyPSI0MjguOTg0NCIvPjxyZWN0IGZpbGw9Im5vbmUiIGhlaWdodD0iNiIgc3R5bGU9InN0cm9rZTojQzgyOTMwO3N0cm9rZS13aWR0aDoxLjA7IiB3aWR0aD0iNiIgeD0iODM3LjUiIHk9IjQzOC45NzY2Ii8+PHRleHQgZmlsbD0iIzAwMDAwMCIgZm9udC1mYW1pbHk9InNhbnMtc2VyaWYiIGZvbnQtc2l6ZT0iMTQiIGxlbmd0aEFkanVzdD0ic3BhY2luZyIgdGV4dExlbmd0aD0iMTk2IiB4PSI4NDkuNSIgeT0iNDQ2LjIxODgiPm9wZXJhdGlvblR5cGU6IE9wZXJhdGlvblR5cGU8L3RleHQ+PHJlY3QgZmlsbD0ibm9uZSIgaGVpZ2h0PSI2IiBzdHlsZT0ic3Ryb2tlOiNDODI5MzA7c3Ryb2tlLXdpZHRoOjEuMDsiIHdpZHRoPSI2IiB4PSI4MzcuNSIgeT0iNDUzLjk2MDkiLz48dGV4dCBmaWxsPSIjMDAwMDAwIiBmb250LWZhbWlseT0ic2Fucy1zZXJpZiIgZm9udC1zaXplPSIxNCIgbGVuZ3RoQWRqdXN0PSJzcGFjaW5nIiB0ZXh0TGVuZ3RoPSIxNTQiIHg9Ijg0OS41IiB5PSI0NjEuMjAzMSI+ZGF0YVsyXTogSVBvaW50U2VyaWVzKjwvdGV4dD48bGluZSBzdHlsZT0ic3Ryb2tlOiMwMDAwMDA7c3Ryb2tlLXdpZHRoOjAuNTsiIHgxPSI4MzAuNSIgeDI9IjExMTUuNSIgeTE9IjQ2Ni45NTMxIiB5Mj0iNDY2Ljk1MzEiLz48ZWxsaXBzZSBjeD0iODQwLjUiIGN5PSI0NzkuOTQ1MyIgZmlsbD0iIzg0QkU4NCIgcng9IjMiIHJ5PSIzIiBzdHlsZT0ic3Ryb2tlOiMwMzgwNDg7c3Ryb2tlLXdpZHRoOjEuMDsiLz48dGV4dCBmaWxsPSIjMDAwMDAwIiBmb250LWZhbWlseT0ic2Fucy1zZXJpZiIgZm9udC1zaXplPSIxNCIgbGVuZ3RoQWRqdXN0PSJzcGFjaW5nIiB0ZXh0TGVuZ3RoPSIyMzMiIHg9Ijg0OS41IiB5PSI0ODQuMTg3NSI+Z2V0T3BlcmF0aW9uVHlwZSgpOiBPcGVyYXRpb25UeXBlPC90ZXh0PjxlbGxpcHNlIGN4PSI4NDAuNSIgY3k9IjQ5NC45Mjk3IiBmaWxsPSIjODRCRTg0IiByeD0iMyIgcnk9IjMiIHN0eWxlPSJzdHJva2U6IzAzODA0ODtzdHJva2Utd2lkdGg6MS4wOyIvPjx0ZXh0IGZpbGw9IiMwMDAwMDAiIGZvbnQtZmFtaWx5PSJzYW5zLXNlcmlmIiBmb250LXNpemU9IjE0IiBsZW5ndGhBZGp1c3Q9InNwYWNpbmciIHRleHRMZW5ndGg9IjI2MSIgeD0iODQ5LjUiIHk9IjQ5OS4xNzE5Ij5nZXREYXRhKCk6IHN0ZDo6dmVjdG9yJmx0O0lQb2ludFNlcmllcyomZ3Q7PC90ZXh0PjwvZz48IS0tY2xhc3MgQ3VzdG9tRXh0ZW5kT3BlcmF0aW9uQ29udGV4dC0tPjxnIGlkPSJlbGVtX0N1c3RvbUV4dGVuZE9wZXJhdGlvbkNvbnRleHQiPjxyZWN0IGNvZGVMaW5lPSI1NyIgZmlsbD0iI0ZGRkZGRiIgaGVpZ2h0PSIxMDAuOTIxOSIgaWQ9IkN1c3RvbUV4dGVuZE9wZXJhdGlvbkNvbnRleHQiIHJ4PSIyLjUiIHJ5PSIyLjUiIHN0eWxlPSJzdHJva2U6IzAwMDAwMDtzdHJva2Utd2lkdGg6MC41OyIgd2lkdGg9IjI4NyIgeD0iMTE1MS41IiB5PSI0MDQiLz48dGV4dCBmaWxsPSIjMDAwMDAwIiBmb250LWZhbWlseT0iSGVsdmV0aWNhIiBmb250LXNpemU9IjE0IiBsZW5ndGhBZGp1c3Q9InNwYWNpbmciIHRleHRMZW5ndGg9IjE5NyIgeD0iMTE5Ni41IiB5PSI0MjIuMjM0NCI+Q3VzdG9tRXh0ZW5kT3BlcmF0aW9uQ29udGV4dDwvdGV4dD48bGluZSBzdHlsZT0ic3Ryb2tlOiMwMDAwMDA7c3Ryb2tlLXdpZHRoOjAuNTsiIHgxPSIxMTUyLjUiIHgyPSIxNDM3LjUiIHkxPSI0MjguOTg0NCIgeTI9IjQyOC45ODQ0Ii8+PHJlY3QgZmlsbD0ibm9uZSIgaGVpZ2h0PSI2IiBzdHlsZT0ic3Ryb2tlOiNDODI5MzA7c3Ryb2tlLXdpZHRoOjEuMDsiIHdpZHRoPSI2IiB4PSIxMTU5LjUiIHk9IjQzOC45NzY2Ii8+PHRleHQgZmlsbD0iIzAwMDAwMCIgZm9udC1mYW1pbHk9InNhbnMtc2VyaWYiIGZvbnQtc2l6ZT0iMTQiIGxlbmd0aEFkanVzdD0ic3BhY2luZyIgdGV4dExlbmd0aD0iMTk2IiB4PSIxMTcxLjUiIHk9IjQ0Ni4yMTg4Ij5vcGVyYXRpb25UeXBlOiBPcGVyYXRpb25UeXBlPC90ZXh0PjxyZWN0IGZpbGw9Im5vbmUiIGhlaWdodD0iNiIgc3R5bGU9InN0cm9rZTojQzgyOTMwO3N0cm9rZS13aWR0aDoxLjA7IiB3aWR0aD0iNiIgeD0iMTE1OS41IiB5PSI0NTMuOTYwOSIvPjx0ZXh0IGZpbGw9IiMwMDAwMDAiIGZvbnQtZmFtaWx5PSJzYW5zLXNlcmlmIiBmb250LXNpemU9IjE0IiBsZW5ndGhBZGp1c3Q9InNwYWNpbmciIHRleHRMZW5ndGg9IjEzMyIgeD0iMTE3MS41IiB5PSI0NjEuMjAzMSI+ZGF0YTogSVBvaW50U2VyaWVzKjwvdGV4dD48bGluZSBzdHlsZT0ic3Ryb2tlOiMwMDAwMDA7c3Ryb2tlLXdpZHRoOjAuNTsiIHgxPSIxMTUyLjUiIHgyPSIxNDM3LjUiIHkxPSI0NjYuOTUzMSIgeTI9IjQ2Ni45NTMxIi8+PGVsbGlwc2UgY3g9IjExNjIuNSIgY3k9IjQ3OS45NDUzIiBmaWxsPSIjODRCRTg0IiByeD0iMyIgcnk9IjMiIHN0eWxlPSJzdHJva2U6IzAzODA0ODtzdHJva2Utd2lkdGg6MS4wOyIvPjx0ZXh0IGZpbGw9IiMwMDAwMDAiIGZvbnQtZmFtaWx5PSJzYW5zLXNlcmlmIiBmb250LXNpemU9IjE0IiBsZW5ndGhBZGp1c3Q9InNwYWNpbmciIHRleHRMZW5ndGg9IjIzMyIgeD0iMTE3MS41IiB5PSI0ODQuMTg3NSI+Z2V0T3BlcmF0aW9uVHlwZSgpOiBPcGVyYXRpb25UeXBlPC90ZXh0PjxlbGxpcHNlIGN4PSIxMTYyLjUiIGN5PSI0OTQuOTI5NyIgZmlsbD0iIzg0QkU4NCIgcng9IjMiIHJ5PSIzIiBzdHlsZT0ic3Ryb2tlOiMwMzgwNDg7c3Ryb2tlLXdpZHRoOjEuMDsiLz48dGV4dCBmaWxsPSIjMDAwMDAwIiBmb250LWZhbWlseT0ic2Fucy1zZXJpZiIgZm9udC1zaXplPSIxNCIgbGVuZ3RoQWRqdXN0PSJzcGFjaW5nIiB0ZXh0TGVuZ3RoPSIyNjEiIHg9IjExNzEuNSIgeT0iNDk5LjE3MTkiPmdldERhdGEoKTogc3RkOjp2ZWN0b3ImbHQ7SVBvaW50U2VyaWVzKiZndDs8L3RleHQ+PC9nPjwhLS1jbGFzcyBJUG9pbnRTZXJpZXMtLT48ZyBpZD0iZWxlbV9JUG9pbnRTZXJpZXMiPjxyZWN0IGNvZGVMaW5lPSI3MCIgZmlsbD0iI0ZGRkZGRiIgaGVpZ2h0PSI2OC44MTI1IiBpZD0iSVBvaW50U2VyaWVzIiByeD0iMi41IiByeT0iMi41IiBzdHlsZT0ic3Ryb2tlOiMwMDAwMDA7c3Ryb2tlLXdpZHRoOjAuNTsiIHdpZHRoPSIxMzMiIHg9IjU4MS41IiB5PSIzMC41Ii8+PHRleHQgZmlsbD0iIzAwMDAwMCIgZm9udC1mYW1pbHk9InNhbnMtc2VyaWYiIGZvbnQtc2l6ZT0iMTIiIGZvbnQtc3R5bGU9Iml0YWxpYyIgbGVuZ3RoQWRqdXN0PSJzcGFjaW5nIiB0ZXh0TGVuZ3RoPSI3MSIgeD0iNjEyLjUiIHk9IjQ2Ljg0MzgiPiYjMTcxO2ludGVyZmFjZSYjMTg3OzwvdGV4dD48dGV4dCBmaWxsPSIjMDAwMDAwIiBmb250LWZhbWlseT0iSGVsdmV0aWNhIiBmb250LXNpemU9IjE0IiBmb250LXN0eWxlPSJpdGFsaWMiIGxlbmd0aEFkanVzdD0ic3BhY2luZyIgdGV4dExlbmd0aD0iODQiIHg9IjYwNiIgeT0iNjEuNTc4MSI+SVBvaW50U2VyaWVzPC90ZXh0PjxsaW5lIHN0eWxlPSJzdHJva2U6IzAwMDAwMDtzdHJva2Utd2lkdGg6MC41OyIgeDE9IjU4Mi41IiB4Mj0iNzEzLjUiIHkxPSI2OC4zMjgxIiB5Mj0iNjguMzI4MSIvPjxsaW5lIHN0eWxlPSJzdHJva2U6IzAwMDAwMDtzdHJva2Utd2lkdGg6MC41OyIgeDE9IjU4Mi41IiB4Mj0iNzEzLjUiIHkxPSI3Ni4zMjgxIiB5Mj0iNzYuMzI4MSIvPjxlbGxpcHNlIGN4PSI1OTIuNSIgY3k9Ijg5LjMyMDMiIGZpbGw9IiM4NEJFODQiIHJ4PSIzIiByeT0iMyIgc3R5bGU9InN0cm9rZTojMDM4MDQ4O3N0cm9rZS13aWR0aDoxLjA7Ii8+PHRleHQgZmlsbD0iIzAwMDAwMCIgZm9udC1mYW1pbHk9InNhbnMtc2VyaWYiIGZvbnQtc2l6ZT0iMTQiIGxlbmd0aEFkanVzdD0ic3BhY2luZyIgdGV4dExlbmd0aD0iMTA3IiB4PSI2MDEuNSIgeT0iOTMuNTYyNSI+fklQb2ludFNlcmllcygpPC90ZXh0PjwvZz48IS0tY2xhc3MgT25lRFBvaW50U2VyaWVzLS0+PGcgaWQ9ImVsZW1fT25lRFBvaW50U2VyaWVzIj48cmVjdCBjb2RlTGluZT0iNzQiIGZpbGw9IiNGRkZGRkYiIGhlaWdodD0iNzAuOTUzMSIgaWQ9Ik9uZURQb2ludFNlcmllcyIgcng9IjIuNSIgcnk9IjIuNSIgc3R5bGU9InN0cm9rZTojMDAwMDAwO3N0cm9rZS13aWR0aDowLjU7IiB3aWR0aD0iMjMxIiB4PSIyMzguNSIgeT0iMjI4Ii8+PHRleHQgZmlsbD0iIzAwMDAwMCIgZm9udC1mYW1pbHk9IkhlbHZldGljYSIgZm9udC1zaXplPSIxNCIgbGVuZ3RoQWRqdXN0PSJzcGFjaW5nIiB0ZXh0TGVuZ3RoPSIxMDUiIHg9IjMwMS41IiB5PSIyNDYuMjM0NCI+T25lRFBvaW50U2VyaWVzPC90ZXh0PjxsaW5lIHN0eWxlPSJzdHJva2U6IzAwMDAwMDtzdHJva2Utd2lkdGg6MC41OyIgeDE9IjIzOS41IiB4Mj0iNDY4LjUiIHkxPSIyNTIuOTg0NCIgeTI9IjI1Mi45ODQ0Ii8+PHJlY3QgZmlsbD0ibm9uZSIgaGVpZ2h0PSI2IiBzdHlsZT0ic3Ryb2tlOiNDODI5MzA7c3Ryb2tlLXdpZHRoOjEuMDsiIHdpZHRoPSI2IiB4PSIyNDYuNSIgeT0iMjYyLjk3NjYiLz48dGV4dCBmaWxsPSIjMDAwMDAwIiBmb250LWZhbWlseT0ic2Fucy1zZXJpZiIgZm9udC1zaXplPSIxNCIgbGVuZ3RoQWRqdXN0PSJzcGFjaW5nIiB0ZXh0TGVuZ3RoPSIxNjkiIHg9IjI1OC41IiB5PSIyNzAuMjE4OCI+bV9wb2ludHM6IHZlY3RvciZsdDtkb3VibGUmZ3Q7PC90ZXh0PjxsaW5lIHN0eWxlPSJzdHJva2U6IzAwMDAwMDtzdHJva2Utd2lkdGg6MC41OyIgeDE9IjIzOS41IiB4Mj0iNDY4LjUiIHkxPSIyNzUuOTY4OCIgeTI9IjI3NS45Njg4Ii8+PGVsbGlwc2UgY3g9IjI0OS41IiBjeT0iMjg4Ljk2MDkiIGZpbGw9IiM4NEJFODQiIHJ4PSIzIiByeT0iMyIgc3R5bGU9InN0cm9rZTojMDM4MDQ4O3N0cm9rZS13aWR0aDoxLjA7Ii8+PHRleHQgZmlsbD0iIzAwMDAwMCIgZm9udC1mYW1pbHk9InNhbnMtc2VyaWYiIGZvbnQtc2l6ZT0iMTQiIGxlbmd0aEFkanVzdD0ic3BhY2luZyIgdGV4dExlbmd0aD0iMjA1IiB4PSIyNTguNSIgeT0iMjkzLjIwMzEiPmdldE50aFBvaW50KCk6IHZlY3RvciZsdDtkb3VibGUmZ3Q7PC90ZXh0PjwvZz48IS0tY2xhc3MgVHdvRFBvaW50U2VyaWVzLS0+PGcgaWQ9ImVsZW1fVHdvRFBvaW50U2VyaWVzIj48cmVjdCBjb2RlTGluZT0iNzkiIGZpbGw9IiNGRkZGRkYiIGhlaWdodD0iNzAuOTUzMSIgaWQ9IlR3b0RQb2ludFNlcmllcyIgcng9IjIuNSIgcnk9IjIuNSIgc3R5bGU9InN0cm9rZTojMDAwMDAwO3N0cm9rZS13aWR0aDowLjU7IiB3aWR0aD0iMjg3IiB4PSI1MDQuNSIgeT0iMjI4Ii8+PHRleHQgZmlsbD0iIzAwMDAwMCIgZm9udC1mYW1pbHk9IkhlbHZldGljYSIgZm9udC1zaXplPSIxNCIgbGVuZ3RoQWRqdXN0PSJzcGFjaW5nIiB0ZXh0TGVuZ3RoPSIxMDYiIHg9IjU5NSIgeT0iMjQ2LjIzNDQiPlR3b0RQb2ludFNlcmllczwvdGV4dD48bGluZSBzdHlsZT0ic3Ryb2tlOiMwMDAwMDA7c3Ryb2tlLXdpZHRoOjAuNTsiIHgxPSI1MDUuNSIgeDI9Ijc5MC41IiB5MT0iMjUyLjk4NDQiIHkyPSIyNTIuOTg0NCIvPjxyZWN0IGZpbGw9Im5vbmUiIGhlaWdodD0iNiIgc3R5bGU9InN0cm9rZTojQzgyOTMwO3N0cm9rZS13aWR0aDoxLjA7IiB3aWR0aD0iNiIgeD0iNTEyLjUiIHk9IjI2Mi45NzY2Ii8+PHRleHQgZmlsbD0iIzAwMDAwMCIgZm9udC1mYW1pbHk9InNhbnMtc2VyaWYiIGZvbnQtc2l6ZT0iMTQiIGxlbmd0aEFkanVzdD0ic3BhY2luZyIgdGV4dExlbmd0aD0iMjI1IiB4PSI1MjQuNSIgeT0iMjcwLjIxODgiPm1fcG9pbnRzOiB2ZWN0b3ImbHQ7ZG91YmxlLCBkb3VibGUmZ3Q7PC90ZXh0PjxsaW5lIHN0eWxlPSJzdHJva2U6IzAwMDAwMDtzdHJva2Utd2lkdGg6MC41OyIgeDE9IjUwNS41IiB4Mj0iNzkwLjUiIHkxPSIyNzUuOTY4OCIgeTI9IjI3NS45Njg4Ii8+PGVsbGlwc2UgY3g9IjUxNS41IiBjeT0iMjg4Ljk2MDkiIGZpbGw9IiM4NEJFODQiIHJ4PSIzIiByeT0iMyIgc3R5bGU9InN0cm9rZTojMDM4MDQ4O3N0cm9rZS13aWR0aDoxLjA7Ii8+PHRleHQgZmlsbD0iIzAwMDAwMCIgZm9udC1mYW1pbHk9InNhbnMtc2VyaWYiIGZvbnQtc2l6ZT0iMTQiIGxlbmd0aEFkanVzdD0ic3BhY2luZyIgdGV4dExlbmd0aD0iMjYxIiB4PSI1MjQuNSIgeT0iMjkzLjIwMzEiPmdldE50aFBvaW50KCk6IHZlY3RvciZsdDtkb3VibGUsIGRvdWJsZSZndDs8L3RleHQ+PC9nPjwhLS1jbGFzcyBUaHJlZURQb2ludFNlcmllcy0tPjxnIGlkPSJlbGVtX1RocmVlRFBvaW50U2VyaWVzIj48cmVjdCBjb2RlTGluZT0iODQiIGZpbGw9IiNGRkZGRkYiIGhlaWdodD0iNzAuOTUzMSIgaWQ9IlRocmVlRFBvaW50U2VyaWVzIiByeD0iMi41IiByeT0iMi41IiBzdHlsZT0ic3Ryb2tlOiMwMDAwMDA7c3Ryb2tlLXdpZHRoOjAuNTsiIHdpZHRoPSIzNDMiIHg9IjgyNi41IiB5PSIyMjgiLz48dGV4dCBmaWxsPSIjMDAwMDAwIiBmb250LWZhbWlseT0iSGVsdmV0aWNhIiBmb250LXNpemU9IjE0IiBsZW5ndGhBZGp1c3Q9InNwYWNpbmciIHRleHRMZW5ndGg9IjExOSIgeD0iOTM4LjUiIHk9IjI0Ni4yMzQ0Ij5UaHJlZURQb2ludFNlcmllczwvdGV4dD48bGluZSBzdHlsZT0ic3Ryb2tlOiMwMDAwMDA7c3Ryb2tlLXdpZHRoOjAuNTsiIHgxPSI4MjcuNSIgeDI9IjExNjguNSIgeTE9IjI1Mi45ODQ0IiB5Mj0iMjUyLjk4NDQiLz48cmVjdCBmaWxsPSJub25lIiBoZWlnaHQ9IjYiIHN0eWxlPSJzdHJva2U6I0M4MjkzMDtzdHJva2Utd2lkdGg6MS4wOyIgd2lkdGg9IjYiIHg9IjgzNC41IiB5PSIyNjIuOTc2NiIvPjx0ZXh0IGZpbGw9IiMwMDAwMDAiIGZvbnQtZmFtaWx5PSJzYW5zLXNlcmlmIiBmb250LXNpemU9IjE0IiBsZW5ndGhBZGp1c3Q9InNwYWNpbmciIHRleHRMZW5ndGg9IjI4MSIgeD0iODQ2LjUiIHk9IjI3MC4yMTg4Ij5tX3BvaW50czogdmVjdG9yJmx0O2RvdWJsZSwgZG91YmxlLCBkb3VibGUmZ3Q7PC90ZXh0PjxsaW5lIHN0eWxlPSJzdHJva2U6IzAwMDAwMDtzdHJva2Utd2lkdGg6MC41OyIgeDE9IjgyNy41IiB4Mj0iMTE2OC41IiB5MT0iMjc1Ljk2ODgiIHkyPSIyNzUuOTY4OCIvPjxlbGxpcHNlIGN4PSI4MzcuNSIgY3k9IjI4OC45NjA5IiBmaWxsPSIjODRCRTg0IiByeD0iMyIgcnk9IjMiIHN0eWxlPSJzdHJva2U6IzAzODA0ODtzdHJva2Utd2lkdGg6MS4wOyIvPjx0ZXh0IGZpbGw9IiMwMDAwMDAiIGZvbnQtZmFtaWx5PSJzYW5zLXNlcmlmIiBmb250LXNpemU9IjE0IiBsZW5ndGhBZGp1c3Q9InNwYWNpbmciIHRleHRMZW5ndGg9IjMxNyIgeD0iODQ2LjUiIHk9IjI5My4yMDMxIj5nZXROdGhQb2ludCgpOiB2ZWN0b3ImbHQ7ZG91YmxlLCBkb3VibGUsIGRvdWJsZSZndDs8L3RleHQ+PC9nPjwhLS1jbGFzcyBDdXN0b21Qb2ludFNlcmllcy0tPjxnIGlkPSJlbGVtX0N1c3RvbVBvaW50U2VyaWVzIj48cmVjdCBjb2RlTGluZT0iODkiIGZpbGw9IiNGRkZGRkYiIGhlaWdodD0iNzAuOTUzMSIgaWQ9IkN1c3RvbVBvaW50U2VyaWVzIiByeD0iMi41IiByeT0iMi41IiBzdHlsZT0ic3Ryb2tlOiMwMDAwMDA7c3Ryb2tlLXdpZHRoOjAuNTsiIHdpZHRoPSIxOTYiIHg9IjciIHk9IjIyOCIvPjx0ZXh0IGZpbGw9IiMwMDAwMDAiIGZvbnQtZmFtaWx5PSJIZWx2ZXRpY2EiIGZvbnQtc2l6ZT0iMTQiIGxlbmd0aEFkanVzdD0ic3BhY2luZyIgdGV4dExlbmd0aD0iMTIwIiB4PSI0MCIgeT0iMjQ2LjIzNDQiPkN1c3RvbVBvaW50U2VyaWVzPC90ZXh0PjxyZWN0IGZpbGw9IiNGRkZGRkYiIGhlaWdodD0iMTQuODQzOCIgc3R5bGU9InN0cm9rZTojMDAwMDAwO3N0cm9rZS13aWR0aDoxLjA7c3Ryb2tlLWRhc2hhcnJheToyLjAsMi4wOyIgd2lkdGg9IjgiIHg9IjE5OCIgeT0iMjI1Ii8+PHRleHQgZmlsbD0iIzAwMDAwMCIgZm9udC1mYW1pbHk9InNhbnMtc2VyaWYiIGZvbnQtc2l6ZT0iMTIiIGZvbnQtc3R5bGU9Iml0YWxpYyIgbGVuZ3RoQWRqdXN0PSJzcGFjaW5nIiB0ZXh0TGVuZ3RoPSI2IiB4PSIxOTkiIHk9IjIzNy4zNDM4Ij5UPC90ZXh0PjxsaW5lIHN0eWxlPSJzdHJva2U6IzAwMDAwMDtzdHJva2Utd2lkdGg6MC41OyIgeDE9IjgiIHgyPSIyMDIiIHkxPSIyNTIuOTg0NCIgeTI9IjI1Mi45ODQ0Ii8+PHJlY3QgZmlsbD0ibm9uZSIgaGVpZ2h0PSI2IiBzdHlsZT0ic3Ryb2tlOiNDODI5MzA7c3Ryb2tlLXdpZHRoOjEuMDsiIHdpZHRoPSI2IiB4PSIxNSIgeT0iMjYyLjk3NjYiLz48dGV4dCBmaWxsPSIjMDAwMDAwIiBmb250LWZhbWlseT0ic2Fucy1zZXJpZiIgZm9udC1zaXplPSIxNCIgbGVuZ3RoQWRqdXN0PSJzcGFjaW5nIiB0ZXh0TGVuZ3RoPSIxMzQiIHg9IjI3IiB5PSIyNzAuMjE4OCI+bV9wb2ludHM6IHZlY3RvciZsdDtUJmd0OzwvdGV4dD48bGluZSBzdHlsZT0ic3Ryb2tlOiMwMDAwMDA7c3Ryb2tlLXdpZHRoOjAuNTsiIHgxPSI4IiB4Mj0iMjAyIiB5MT0iMjc1Ljk2ODgiIHkyPSIyNzUuOTY4OCIvPjxlbGxpcHNlIGN4PSIxOCIgY3k9IjI4OC45NjA5IiBmaWxsPSIjODRCRTg0IiByeD0iMyIgcnk9IjMiIHN0eWxlPSJzdHJva2U6IzAzODA0ODtzdHJva2Utd2lkdGg6MS4wOyIvPjx0ZXh0IGZpbGw9IiMwMDAwMDAiIGZvbnQtZmFtaWx5PSJzYW5zLXNlcmlmIiBmb250LXNpemU9IjE0IiBsZW5ndGhBZGp1c3Q9InNwYWNpbmciIHRleHRMZW5ndGg9IjE3MCIgeD0iMjciIHk9IjI5My4yMDMxIj5nZXROdGhQb2ludCgpOiB2ZWN0b3ImbHQ7VCZndDs8L3RleHQ+PC9nPjwhLS1jbGFzcyBPcGVyYXRpb25SZXN1bHQtLT48ZyBpZD0iZWxlbV9PcGVyYXRpb25SZXN1bHQiPjxyZWN0IGNvZGVMaW5lPSI5NCIgZmlsbD0iI0ZGRkZGRiIgaGVpZ2h0PSI4NS45Mzc1IiBpZD0iT3BlcmF0aW9uUmVzdWx0IiByeD0iMi41IiByeT0iMi41IiBzdHlsZT0ic3Ryb2tlOiMwMDAwMDA7c3Ryb2tlLXdpZHRoOjAuNTsiIHdpZHRoPSIyMzAiIHg9IjI0MzciIHk9IjIyMC41Ii8+PHRleHQgZmlsbD0iIzAwMDAwMCIgZm9udC1mYW1pbHk9IkhlbHZldGljYSIgZm9udC1zaXplPSIxNCIgbGVuZ3RoQWRqdXN0PSJzcGFjaW5nIiB0ZXh0TGVuZ3RoPSIxMDUiIHg9IjI0OTkuNSIgeT0iMjM4LjczNDQiPk9wZXJhdGlvblJlc3VsdDwvdGV4dD48bGluZSBzdHlsZT0ic3Ryb2tlOiMwMDAwMDA7c3Ryb2tlLXdpZHRoOjAuNTsiIHgxPSIyNDM4IiB4Mj0iMjY2NiIgeTE9IjI0NS40ODQ0IiB5Mj0iMjQ1LjQ4NDQiLz48cmVjdCBmaWxsPSJub25lIiBoZWlnaHQ9IjYiIHN0eWxlPSJzdHJva2U6I0M4MjkzMDtzdHJva2Utd2lkdGg6MS4wOyIgd2lkdGg9IjYiIHg9IjI0NDUiIHk9IjI1NS40NzY2Ii8+PHRleHQgZmlsbD0iIzAwMDAwMCIgZm9udC1mYW1pbHk9InNhbnMtc2VyaWYiIGZvbnQtc2l6ZT0iMTQiIGxlbmd0aEFkanVzdD0ic3BhY2luZyIgdGV4dExlbmd0aD0iMjA0IiB4PSIyNDU3IiB5PSIyNjIuNzE4OCI+bV9yZXN1bHRQb2ludHM6IElQb2ludFNlcmllcyo8L3RleHQ+PHJlY3QgZmlsbD0ibm9uZSIgaGVpZ2h0PSI2IiBzdHlsZT0ic3Ryb2tlOiNDODI5MzA7c3Ryb2tlLXdpZHRoOjEuMDsiIHdpZHRoPSI2IiB4PSIyNDQ1IiB5PSIyNzAuNDYwOSIvPjx0ZXh0IGZpbGw9IiMwMDAwMDAiIGZvbnQtZmFtaWx5PSJzYW5zLXNlcmlmIiBmb250LXNpemU9IjE0IiBsZW5ndGhBZGp1c3Q9InNwYWNpbmciIHRleHRMZW5ndGg9IjEyMCIgeD0iMjQ1NyIgeT0iMjc3LjcwMzEiPm1faXNTdWNjZXNzOiBib29sPC90ZXh0PjxyZWN0IGZpbGw9Im5vbmUiIGhlaWdodD0iNiIgc3R5bGU9InN0cm9rZTojQzgyOTMwO3N0cm9rZS13aWR0aDoxLjA7IiB3aWR0aD0iNiIgeD0iMjQ0NSIgeT0iMjg1LjQ0NTMiLz48dGV4dCBmaWxsPSIjMDAwMDAwIiBmb250LWZhbWlseT0ic2Fucy1zZXJpZiIgZm9udC1zaXplPSIxNCIgbGVuZ3RoQWRqdXN0PSJzcGFjaW5nIiB0ZXh0TGVuZ3RoPSIxNTYiIHg9IjI0NTciIHk9IjI5Mi42ODc1Ij5tX21lc3NhZ2U6IHN0ZDo6c3RyaW5nPC90ZXh0PjxsaW5lIHN0eWxlPSJzdHJva2U6IzAwMDAwMDtzdHJva2Utd2lkdGg6MC41OyIgeDE9IjI0MzgiIHgyPSIyNjY2IiB5MT0iMjk4LjQzNzUiIHkyPSIyOTguNDM3NSIvPjwvZz48IS0tY2xhc3MgSU9wZXJhdGlvbi0tPjxnIGlkPSJlbGVtX0lPcGVyYXRpb24iPjxyZWN0IGNvZGVMaW5lPSIxMDYiIGZpbGw9IiNGRkZGRkYiIGhlaWdodD0iODMuNzk2OSIgaWQ9IklPcGVyYXRpb24iIHJ4PSIyLjUiIHJ5PSIyLjUiIHN0eWxlPSJzdHJva2U6IzAwMDAwMDtzdHJva2Utd2lkdGg6MC41OyIgd2lkdGg9IjQ0MSIgeD0iMTc5NS41IiB5PSI0MTIuNSIvPjx0ZXh0IGZpbGw9IiMwMDAwMDAiIGZvbnQtZmFtaWx5PSJzYW5zLXNlcmlmIiBmb250LXNpemU9IjEyIiBmb250LXN0eWxlPSJpdGFsaWMiIGxlbmd0aEFkanVzdD0ic3BhY2luZyIgdGV4dExlbmd0aD0iNzEiIHg9IjE5ODAuNSIgeT0iNDI4Ljg0MzgiPiYjMTcxO2ludGVyZmFjZSYjMTg3OzwvdGV4dD48dGV4dCBmaWxsPSIjMDAwMDAwIiBmb250LWZhbWlseT0iSGVsdmV0aWNhIiBmb250LXNpemU9IjE0IiBmb250LXN0eWxlPSJpdGFsaWMiIGxlbmd0aEFkanVzdD0ic3BhY2luZyIgdGV4dExlbmd0aD0iNzAiIHg9IjE5ODEiIHk9IjQ0My41NzgxIj5JT3BlcmF0aW9uPC90ZXh0PjxsaW5lIHN0eWxlPSJzdHJva2U6IzAwMDAwMDtzdHJva2Utd2lkdGg6MC41OyIgeDE9IjE3OTYuNSIgeDI9IjIyMzUuNSIgeTE9IjQ1MC4zMjgxIiB5Mj0iNDUwLjMyODEiLz48bGluZSBzdHlsZT0ic3Ryb2tlOiMwMDAwMDA7c3Ryb2tlLXdpZHRoOjAuNTsiIHgxPSIxNzk2LjUiIHgyPSIyMjM1LjUiIHkxPSI0NTguMzI4MSIgeTI9IjQ1OC4zMjgxIi8+PGVsbGlwc2UgY3g9IjE4MDYuNSIgY3k9IjQ3MS4zMjAzIiBmaWxsPSIjODRCRTg0IiByeD0iMyIgcnk9IjMiIHN0eWxlPSJzdHJva2U6IzAzODA0ODtzdHJva2Utd2lkdGg6MS4wOyIvPjx0ZXh0IGZpbGw9IiMwMDAwMDAiIGZvbnQtZmFtaWx5PSJzYW5zLXNlcmlmIiBmb250LXNpemU9IjE0IiBsZW5ndGhBZGp1c3Q9InNwYWNpbmciIHRleHRMZW5ndGg9IjQxNSIgeD0iMTgxNS41IiB5PSI0NzUuNTYyNSI+ZXhlY3V0ZShkYXRhOiBzdGQ6OnZlY3RvciZsdDtJUG9pbnRTZXJpZXMqJmd0Oyk6IE9wZXJhdGlvblJlc3VsdCo8L3RleHQ+PGVsbGlwc2UgY3g9IjE4MDYuNSIgY3k9IjQ4Ni4zMDQ3IiBmaWxsPSIjODRCRTg0IiByeD0iMyIgcnk9IjMiIHN0eWxlPSJzdHJva2U6IzAzODA0ODtzdHJva2Utd2lkdGg6MS4wOyIvPjx0ZXh0IGZpbGw9IiMwMDAwMDAiIGZvbnQtZmFtaWx5PSJzYW5zLXNlcmlmIiBmb250LXNpemU9IjE0IiBsZW5ndGhBZGp1c3Q9InNwYWNpbmciIHRleHRMZW5ndGg9IjE3MCIgeD0iMTgxNS41IiB5PSI0OTAuNTQ2OSI+Z2V0VHlwZSgpOiBPcGVyYXRpb25UeXBlPC90ZXh0PjwvZz48IS0tY2xhc3MgSVVuYXJ5T3BlcmF0aW9uLS0+PGcgaWQ9ImVsZW1fSVVuYXJ5T3BlcmF0aW9uIj48cmVjdCBjb2RlTGluZT0iMTEwIiBmaWxsPSIjRkZGRkZGIiBoZWlnaHQ9IjgzLjc5NjkiIGlkPSJJVW5hcnlPcGVyYXRpb24iIHJ4PSIyLjUiIHJ5PSIyLjUiIHN0eWxlPSJzdHJva2U6IzAwMDAwMDtzdHJva2Utd2lkdGg6MC41OyIgd2lkdGg9IjQ0MSIgeD0iMTIyOC41IiB5PSI1NjYiLz48dGV4dCBmaWxsPSIjMDAwMDAwIiBmb250LWZhbWlseT0ic2Fucy1zZXJpZiIgZm9udC1zaXplPSIxMiIgZm9udC1zdHlsZT0iaXRhbGljIiBsZW5ndGhBZGp1c3Q9InNwYWNpbmciIHRleHRMZW5ndGg9IjcxIiB4PSIxNDEzLjUiIHk9IjU4Mi4zNDM4Ij4mIzE3MTtpbnRlcmZhY2UmIzE4Nzs8L3RleHQ+PHRleHQgZmlsbD0iIzAwMDAwMCIgZm9udC1mYW1pbHk9IkhlbHZldGljYSIgZm9udC1zaXplPSIxNCIgZm9udC1zdHlsZT0iaXRhbGljIiBsZW5ndGhBZGp1c3Q9InNwYWNpbmciIHRleHRMZW5ndGg9IjEwNSIgeD0iMTM5Ni41IiB5PSI1OTcuMDc4MSI+SVVuYXJ5T3BlcmF0aW9uPC90ZXh0PjxsaW5lIHN0eWxlPSJzdHJva2U6IzAwMDAwMDtzdHJva2Utd2lkdGg6MC41OyIgeDE9IjEyMjkuNSIgeDI9IjE2NjguNSIgeTE9IjYwMy44MjgxIiB5Mj0iNjAzLjgyODEiLz48bGluZSBzdHlsZT0ic3Ryb2tlOiMwMDAwMDA7c3Ryb2tlLXdpZHRoOjAuNTsiIHgxPSIxMjI5LjUiIHgyPSIxNjY4LjUiIHkxPSI2MTEuODI4MSIgeTI9IjYxMS44MjgxIi8+PGVsbGlwc2UgY3g9IjEyMzkuNSIgY3k9IjYyNC44MjAzIiBmaWxsPSIjODRCRTg0IiByeD0iMyIgcnk9IjMiIHN0eWxlPSJzdHJva2U6IzAzODA0ODtzdHJva2Utd2lkdGg6MS4wOyIvPjx0ZXh0IGZpbGw9IiMwMDAwMDAiIGZvbnQtZmFtaWx5PSJzYW5zLXNlcmlmIiBmb250LXNpemU9IjE0IiBsZW5ndGhBZGp1c3Q9InNwYWNpbmciIHRleHRMZW5ndGg9IjQxNSIgeD0iMTI0OC41IiB5PSI2MjkuMDYyNSI+ZXhlY3V0ZShkYXRhOiBzdGQ6OnZlY3RvciZsdDtJUG9pbnRTZXJpZXMqJmd0Oyk6IE9wZXJhdGlvblJlc3VsdCo8L3RleHQ+PHBvbHlnb24gZmlsbD0iI0ZGRkY0NCIgcG9pbnRzPSIxMjM5LjUsNjM0LjgwNDcsMTI0My41LDYzOC44MDQ3LDEyMzkuNSw2NDIuODA0NywxMjM1LjUsNjM4LjgwNDciIHN0eWxlPSJzdHJva2U6I0IzOEQyMjtzdHJva2Utd2lkdGg6MS4wOyIvPjx0ZXh0IGZpbGw9IiMwMDAwMDAiIGZvbnQtZmFtaWx5PSJzYW5zLXNlcmlmIiBmb250LXNpemU9IjE0IiBsZW5ndGhBZGp1c3Q9InNwYWNpbmciIHRleHRMZW5ndGg9IjQwMSIgeD0iMTI0OC41IiB5PSI2NDQuMDQ2OSI+dW5hcnlFeGVjdXRlKElQb2ludFNlcmllcyogZGF0YVNlcmllczEpOiBPcGVyYXRpb25SZXN1bHQqPC90ZXh0PjwvZz48IS0tY2xhc3MgSUJpbmFyeU9wZXJhdGlvbi0tPjxnIGlkPSJlbGVtX0lCaW5hcnlPcGVyYXRpb24iPjxyZWN0IGNvZGVMaW5lPSIxMTUiIGZpbGw9IiNGRkZGRkYiIGhlaWdodD0iODMuNzk2OSIgaWQ9IklCaW5hcnlPcGVyYXRpb24iIHJ4PSIyLjUiIHJ5PSIyLjUiIHN0eWxlPSJzdHJva2U6IzAwMDAwMDtzdHJva2Utd2lkdGg6MC41OyIgd2lkdGg9IjYyMyIgeD0iMTcwNC41IiB5PSI1NjYiLz48dGV4dCBmaWxsPSIjMDAwMDAwIiBmb250LWZhbWlseT0ic2Fucy1zZXJpZiIgZm9udC1zaXplPSIxMiIgZm9udC1zdHlsZT0iaXRhbGljIiBsZW5ndGhBZGp1c3Q9InNwYWNpbmciIHRleHRMZW5ndGg9IjcxIiB4PSIxOTgwLjUiIHk9IjU4Mi4zNDM4Ij4mIzE3MTtpbnRlcmZhY2UmIzE4Nzs8L3RleHQ+PHRleHQgZmlsbD0iIzAwMDAwMCIgZm9udC1mYW1pbHk9IkhlbHZldGljYSIgZm9udC1zaXplPSIxNCIgZm9udC1zdHlsZT0iaXRhbGljIiBsZW5ndGhBZGp1c3Q9InNwYWNpbmciIHRleHRMZW5ndGg9IjExMiIgeD0iMTk2MCIgeT0iNTk3LjA3ODEiPklCaW5hcnlPcGVyYXRpb248L3RleHQ+PGxpbmUgc3R5bGU9InN0cm9rZTojMDAwMDAwO3N0cm9rZS13aWR0aDowLjU7IiB4MT0iMTcwNS41IiB4Mj0iMjMyNi41IiB5MT0iNjAzLjgyODEiIHkyPSI2MDMuODI4MSIvPjxsaW5lIHN0eWxlPSJzdHJva2U6IzAwMDAwMDtzdHJva2Utd2lkdGg6MC41OyIgeDE9IjE3MDUuNSIgeDI9IjIzMjYuNSIgeTE9IjYxMS44MjgxIiB5Mj0iNjExLjgyODEiLz48ZWxsaXBzZSBjeD0iMTcxNS41IiBjeT0iNjI0LjgyMDMiIGZpbGw9IiM4NEJFODQiIHJ4PSIzIiByeT0iMyIgc3R5bGU9InN0cm9rZTojMDM4MDQ4O3N0cm9rZS13aWR0aDoxLjA7Ii8+PHRleHQgZmlsbD0iIzAwMDAwMCIgZm9udC1mYW1pbHk9InNhbnMtc2VyaWYiIGZvbnQtc2l6ZT0iMTQiIGxlbmd0aEFkanVzdD0ic3BhY2luZyIgdGV4dExlbmd0aD0iNDY0IiB4PSIxNzI0LjUiIHk9IjYyOS4wNjI1Ij5leGVjdXRlKGRhdGExOiBJUG9pbnRTZXJpZXMsIGRhdGEyOiBJUG9pbnRTZXJpZXMpOiBPcGVyYXRpb25SZXN1bHQ8L3RleHQ+PHBvbHlnb24gZmlsbD0iI0ZGRkY0NCIgcG9pbnRzPSIxNzE1LjUsNjM0LjgwNDcsMTcxOS41LDYzOC44MDQ3LDE3MTUuNSw2NDIuODA0NywxNzExLjUsNjM4LjgwNDciIHN0eWxlPSJzdHJva2U6I0IzOEQyMjtzdHJva2Utd2lkdGg6MS4wOyIvPjx0ZXh0IGZpbGw9IiMwMDAwMDAiIGZvbnQtZmFtaWx5PSJzYW5zLXNlcmlmIiBmb250LXNpemU9IjE0IiBsZW5ndGhBZGp1c3Q9InNwYWNpbmciIHRleHRMZW5ndGg9IjU5NyIgeD0iMTcyNC41IiB5PSI2NDQuMDQ2OSI+YmluYXJ5RXhlY3V0ZShJUG9pbnRTZXJpZXMqIGRhdGFTZXJpZXMxLCBJUG9pbnRTZXJpZXMqIGRhdGFTZXJpZXMyKTogT3BlcmF0aW9uUmVzdWx0KjwvdGV4dD48L2c+PCEtLWNsYXNzIElDdXN0b21FeHRlbmRPcGVyYXRpb24tLT48ZyBpZD0iZWxlbV9JQ3VzdG9tRXh0ZW5kT3BlcmF0aW9uIj48cmVjdCBjb2RlTGluZT0iMTIwIiBmaWxsPSIjRkZGRkZGIiBoZWlnaHQ9IjgzLjc5NjkiIGlkPSJJQ3VzdG9tRXh0ZW5kT3BlcmF0aW9uIiByeD0iMi41IiByeT0iMi41IiBzdHlsZT0ic3Ryb2tlOiMwMDAwMDA7c3Ryb2tlLXdpZHRoOjAuNTsiIHdpZHRoPSI0NzAiIHg9IjIzNjMiIHk9IjU2NiIvPjx0ZXh0IGZpbGw9IiMwMDAwMDAiIGZvbnQtZmFtaWx5PSJzYW5zLXNlcmlmIiBmb250LXNpemU9IjEyIiBmb250LXN0eWxlPSJpdGFsaWMiIGxlbmd0aEFkanVzdD0ic3BhY2luZyIgdGV4dExlbmd0aD0iNzEiIHg9IjI1NDguNSIgeT0iNTgyLjM0MzgiPiYjMTcxO2ludGVyZmFjZSYjMTg3OzwvdGV4dD48dGV4dCBmaWxsPSIjMDAwMDAwIiBmb250LWZhbWlseT0iSGVsdmV0aWNhIiBmb250LXNpemU9IjE0IiBmb250LXN0eWxlPSJpdGFsaWMiIGxlbmd0aEFkanVzdD0ic3BhY2luZyIgdGV4dExlbmd0aD0iMTU1IiB4PSIyNTA2LjUiIHk9IjU5Ny4wNzgxIj5JQ3VzdG9tRXh0ZW5kT3BlcmF0aW9uPC90ZXh0PjxyZWN0IGZpbGw9IiNGRkZGRkYiIGhlaWdodD0iMTQuODQzOCIgc3R5bGU9InN0cm9rZTojMDAwMDAwO3N0cm9rZS13aWR0aDoxLjA7c3Ryb2tlLWRhc2hhcnJheToyLjAsMi4wOyIgd2lkdGg9IjI2IiB4PSIyODEwIiB5PSI1NjMiLz48dGV4dCBmaWxsPSIjMDAwMDAwIiBmb250LWZhbWlseT0ic2Fucy1zZXJpZiIgZm9udC1zaXplPSIxMiIgZm9udC1zdHlsZT0iaXRhbGljIiBsZW5ndGhBZGp1c3Q9InNwYWNpbmciIHRleHRMZW5ndGg9IjI0IiB4PSIyODExIiB5PSI1NzUuMzQzOCI+VC4uLjwvdGV4dD48bGluZSBzdHlsZT0ic3Ryb2tlOiMwMDAwMDA7c3Ryb2tlLXdpZHRoOjAuNTsiIHgxPSIyMzY0IiB4Mj0iMjgzMiIgeTE9IjYwMy44MjgxIiB5Mj0iNjAzLjgyODEiLz48cmVjdCBmaWxsPSJub25lIiBoZWlnaHQ9IjYiIHN0eWxlPSJzdHJva2U6I0M4MjkzMDtzdHJva2Utd2lkdGg6MS4wOyIgd2lkdGg9IjYiIHg9IjIzNzEiIHk9IjYxMy44MjAzIi8+PHRleHQgZmlsbD0iIzAwMDAwMCIgZm9udC1mYW1pbHk9InNhbnMtc2VyaWYiIGZvbnQtc2l6ZT0iMTQiIGxlbmd0aEFkanVzdD0ic3BhY2luZyIgdGV4dExlbmd0aD0iMjA0IiB4PSIyMzgzIiB5PSI2MjEuMDYyNSI+bV9mdW5jdGlvbnM6IHZlY3RvciZsdDtGdW5jdGlvbiZndDs8L3RleHQ+PGxpbmUgc3R5bGU9InN0cm9rZTojMDAwMDAwO3N0cm9rZS13aWR0aDowLjU7IiB4MT0iMjM2NCIgeDI9IjI4MzIiIHkxPSI2MjYuODEyNSIgeTI9IjYyNi44MTI1Ii8+PGVsbGlwc2UgY3g9IjIzNzQiIGN5PSI2MzkuODA0NyIgZmlsbD0iIzg0QkU4NCIgcng9IjMiIHJ5PSIzIiBzdHlsZT0ic3Ryb2tlOiMwMzgwNDg7c3Ryb2tlLXdpZHRoOjEuMDsiLz48dGV4dCBmaWxsPSIjMDAwMDAwIiBmb250LWZhbWlseT0ic2Fucy1zZXJpZiIgZm9udC1zaXplPSIxNCIgbGVuZ3RoQWRqdXN0PSJzcGFjaW5nIiB0ZXh0TGVuZ3RoPSI0NDQiIHg9IjIzODMiIHk9IjY0NC4wNDY5Ij5leGVjdXRlKGRhdGE6IHZlY3RvciZsdDtDdXN0b21Qb2ludFNlcmllcyZsdDtULi4uJmd0OyZndDspOiBPcGVyYXRpb25SZXN1bHQ8L3RleHQ+PC9nPjwhLS1yZXZlcnNlIGxpbmsgQ29yZUVuZ2luZSB0byBPcGVyYXRpb25SZWdpc3RyYW50LS0+PGcgaWQ9ImxpbmtfQ29yZUVuZ2luZV9PcGVyYXRpb25SZWdpc3RyYW50Ij48cGF0aCBjb2RlTGluZT0iMzUiIGQ9Ik0yMDk4LjY4LDEzMC4zOCBDMjA1OC41MywxNTcuMjIgMjAxMi42MiwxODcuODkgMTk3NS4xNiwyMTIuOTMgIiBmaWxsPSJub25lIiBpZD0iQ29yZUVuZ2luZS1iYWNrdG8tT3BlcmF0aW9uUmVnaXN0cmFudCIgc3R5bGU9InN0cm9rZTojMTgxODE4O3N0cm9rZS13aWR0aDoxLjA7Ii8+PHBvbHlnb24gZmlsbD0iIzE4MTgxOCIgcG9pbnRzPSIyMTA5LjU3LDEyMy4xLDIxMDIuMzU4OSwxMjMuMTA4OCwyMDk5LjU5MzUsMTI5Ljc2ODYsMjEwNi44MDQ2LDEyOS43NTk4LDIxMDkuNTcsMTIzLjEiIHN0eWxlPSJzdHJva2U6IzE4MTgxODtzdHJva2Utd2lkdGg6MS4wOyIvPjwvZz48IS0tcmV2ZXJzZSBsaW5rIENvcmVFbmdpbmUgdG8gQ2FjaGUtLT48ZyBpZD0ibGlua19Db3JlRW5naW5lX0NhY2hlIj48cGF0aCBjb2RlTGluZT0iMzYiIGQ9Ik0yMjI5LjM0LDEzNC44NiBDMjIzOS41MiwxNTUuMjYgMjI1MC42MiwxNzcuNTIgMjI2MC42NiwxOTcuNjUgIiBmaWxsPSJub25lIiBpZD0iQ29yZUVuZ2luZS1iYWNrdG8tQ2FjaGUiIHN0eWxlPSJzdHJva2U6IzE4MTgxODtzdHJva2Utd2lkdGg6MS4wOyIvPjxwb2x5Z29uIGZpbGw9IiMxODE4MTgiIHBvaW50cz0iMjIyMy40OCwxMjMuMSwyMjIyLjU3ODUsMTMwLjI1NDUsMjIyOC44MzYsMTMzLjgzODQsMjIyOS43Mzc1LDEyNi42ODM5LDIyMjMuNDgsMTIzLjEiIHN0eWxlPSJzdHJva2U6IzE4MTgxODtzdHJva2Utd2lkdGg6MS4wOyIvPjwvZz48IS0tcmV2ZXJzZSBsaW5rIElPcGVyYXRpb25Db250ZXh0IHRvIFVuYXJ5T3BlcmF0aW9uQ29udGV4dC0tPjxnIGlkPSJsaW5rX0lPcGVyYXRpb25Db250ZXh0X1VuYXJ5T3BlcmF0aW9uQ29udGV4dCI+PHBhdGggY29kZUxpbmU9IjY0IiBkPSJNMTQxMi4yNywzMTYuNzcgQzE0NTIuOTksMzQzLjk3IDE1MDIuNSwzNzcuMDMgMTU0Mi42NCw0MDMuODQgIiBmaWxsPSJub25lIiBpZD0iSU9wZXJhdGlvbkNvbnRleHQtYmFja3RvLVVuYXJ5T3BlcmF0aW9uQ29udGV4dCIgc3R5bGU9InN0cm9rZTojMTgxODE4O3N0cm9rZS13aWR0aDoxLjA7c3Ryb2tlLWRhc2hhcnJheTo3LjAsNy4wOyIvPjxwb2x5Z29uIGZpbGw9Im5vbmUiIHBvaW50cz0iMTQwOC4xNSwzMjIuNDQsMTM5NS40MSwzMDUuNTEsMTQxNS45MywzMTAuOCwxNDA4LjE1LDMyMi40NCIgc3R5bGU9InN0cm9rZTojMTgxODE4O3N0cm9rZS13aWR0aDoxLjA7Ii8+PC9nPjwhLS1yZXZlcnNlIGxpbmsgSU9wZXJhdGlvbkNvbnRleHQgdG8gQmluYXJ5T3BlcmF0aW9uQ29udGV4dC0tPjxnIGlkPSJsaW5rX0lPcGVyYXRpb25Db250ZXh0X0JpbmFyeU9wZXJhdGlvbkNvbnRleHQiPjxwYXRoIGNvZGVMaW5lPSI2NSIgZD0iTTEyMzcuNjIsMzE0Ljk2IEMxMTg1LjA0LDM0Mi40OSAxMTIwLjIsMzc2LjQ0IDEwNjcuODYsNDAzLjg0ICIgZmlsbD0ibm9uZSIgaWQ9IklPcGVyYXRpb25Db250ZXh0LWJhY2t0by1CaW5hcnlPcGVyYXRpb25Db250ZXh0IiBzdHlsZT0ic3Ryb2tlOiMxODE4MTg7c3Ryb2tlLXdpZHRoOjEuMDtzdHJva2UtZGFzaGFycmF5OjcuMCw3LjA7Ii8+PHBvbHlnb24gZmlsbD0ibm9uZSIgcG9pbnRzPSIxMjM0LjcsMzA4LjU5LDEyNTUuNjcsMzA1LjUxLDEyNDEuMiwzMjAuOTksMTIzNC43LDMwOC41OSIgc3R5bGU9InN0cm9rZTojMTgxODE4O3N0cm9rZS13aWR0aDoxLjA7Ii8+PC9nPjwhLS1yZXZlcnNlIGxpbmsgSU9wZXJhdGlvbkNvbnRleHQgdG8gQ3VzdG9tRXh0ZW5kT3BlcmF0aW9uQ29udGV4dC0tPjxnIGlkPSJsaW5rX0lPcGVyYXRpb25Db250ZXh0X0N1c3RvbUV4dGVuZE9wZXJhdGlvbkNvbnRleHQiPjxwYXRoIGNvZGVMaW5lPSI2NiIgZD0iTTEzMjEuNDUsMzI1LjMyIEMxMzE2LjIxLDM1MC42OSAxMzEwLjIxLDM3OS43OSAxMzA1LjI1LDQwMy44NCAiIGZpbGw9Im5vbmUiIGlkPSJJT3BlcmF0aW9uQ29udGV4dC1iYWNrdG8tQ3VzdG9tRXh0ZW5kT3BlcmF0aW9uQ29udGV4dCIgc3R5bGU9InN0cm9rZTojMTgxODE4O3N0cm9rZS13aWR0aDoxLjA7c3Ryb2tlLWRhc2hhcnJheTo3LjAsNy4wOyIvPjxwb2x5Z29uIGZpbGw9Im5vbmUiIHBvaW50cz0iMTMxNC42NCwzMjMuNjgsMTMyNS41NCwzMDUuNTEsMTMyOC4zNSwzMjYuNTEsMTMxNC42NCwzMjMuNjgiIHN0eWxlPSJzdHJva2U6IzE4MTgxODtzdHJva2Utd2lkdGg6MS4wOyIvPjwvZz48IS0tbGluayBJUG9pbnRTZXJpZXMgdG8gSU9wZXJhdGlvbkNvbnRleHQtLT48ZyBpZD0ibGlua19JUG9pbnRTZXJpZXNfSU9wZXJhdGlvbkNvbnRleHQiPjxwYXRoIGNvZGVMaW5lPSI2NyIgZD0iTTcxNC42LDc4LjQ0IEM4MTcuNDYsOTguNSAxMDIwLjQ4LDE0MS41NSAxMTg3LDE5OCBDMTIwMi43NywyMDMuMzUgMTIxOS4yLDIwOS43MSAxMjM1LjEsMjE2LjMzICIgZmlsbD0ibm9uZSIgaWQ9IklQb2ludFNlcmllcy10by1JT3BlcmF0aW9uQ29udGV4dCIgc3R5bGU9InN0cm9rZTojMTgxODE4O3N0cm9rZS13aWR0aDoxLjA7Ii8+PHBvbHlnb24gZmlsbD0iIzE4MTgxOCIgcG9pbnRzPSIxMjQ3LjE1LDIyMS40MywxMjQzLjE4NTYsMjE1LjQwNjQsMTIzNi4xMDA2LDIxNi43NDkyLDEyNDAuMDY1LDIyMi43NzI3LDEyNDcuMTUsMjIxLjQzIiBzdHlsZT0ic3Ryb2tlOiMxODE4MTg7c3Ryb2tlLXdpZHRoOjEuMDsiLz48L2c+PCEtLXJldmVyc2UgbGluayBJUG9pbnRTZXJpZXMgdG8gT25lRFBvaW50U2VyaWVzLS0+PGcgaWQ9ImxpbmtfSVBvaW50U2VyaWVzX09uZURQb2ludFNlcmllcyI+PHBhdGggY29kZUxpbmU9IjEwMCIgZD0iTTU4MC45NiwxMTAuODEgQzUyNy44NSwxNDYuMyA0NTQuNzIsMTk1LjE4IDQwNS45OCwyMjcuNzYgIiBmaWxsPSJub25lIiBpZD0iSVBvaW50U2VyaWVzLWJhY2t0by1PbmVEUG9pbnRTZXJpZXMiIHN0eWxlPSJzdHJva2U6IzE4MTgxODtzdHJva2Utd2lkdGg6MS4wO3N0cm9rZS1kYXNoYXJyYXk6Ny4wLDcuMDsiLz48cG9seWdvbiBmaWxsPSJub25lIiBwb2ludHM9IjU3Ny4yOCwxMDQuODUsNTk3Ljc5LDk5LjU2LDU4NS4wNiwxMTYuNDksNTc3LjI4LDEwNC44NSIgc3R5bGU9InN0cm9rZTojMTgxODE4O3N0cm9rZS13aWR0aDoxLjA7Ii8+PC9nPjwhLS1yZXZlcnNlIGxpbmsgSVBvaW50U2VyaWVzIHRvIFR3b0RQb2ludFNlcmllcy0tPjxnIGlkPSJsaW5rX0lQb2ludFNlcmllc19Ud29EUG9pbnRTZXJpZXMiPjxwYXRoIGNvZGVMaW5lPSIxMDEiIGQ9Ik02NDgsMTE5LjgzIEM2NDgsMTU0LjI3IDY0OCwxOTcuOTQgNjQ4LDIyNy44NCAiIGZpbGw9Im5vbmUiIGlkPSJJUG9pbnRTZXJpZXMtYmFja3RvLVR3b0RQb2ludFNlcmllcyIgc3R5bGU9InN0cm9rZTojMTgxODE4O3N0cm9rZS13aWR0aDoxLjA7c3Ryb2tlLWRhc2hhcnJheTo3LjAsNy4wOyIvPjxwb2x5Z29uIGZpbGw9Im5vbmUiIHBvaW50cz0iNjQxLDExOS43OCw2NDgsOTkuNzgsNjU1LDExOS43OCw2NDEsMTE5Ljc4IiBzdHlsZT0ic3Ryb2tlOiMxODE4MTg7c3Ryb2tlLXdpZHRoOjEuMDsiLz48L2c+PCEtLXJldmVyc2UgbGluayBJUG9pbnRTZXJpZXMgdG8gVGhyZWVEUG9pbnRTZXJpZXMtLT48ZyBpZD0ibGlua19JUG9pbnRTZXJpZXNfVGhyZWVEUG9pbnRTZXJpZXMiPjxwYXRoIGNvZGVMaW5lPSIxMDIiIGQ9Ik03MjUuMzgsMTA5LjQ0IEM3ODguOSwxNDUuMSA4NzcuNjUsMTk0LjkzIDkzNi40MiwyMjcuOTMgIiBmaWxsPSJub25lIiBpZD0iSVBvaW50U2VyaWVzLWJhY2t0by1UaHJlZURQb2ludFNlcmllcyIgc3R5bGU9InN0cm9rZTojMTgxODE4O3N0cm9rZS13aWR0aDoxLjA7c3Ryb2tlLWRhc2hhcnJheTo3LjAsNy4wOyIvPjxwb2x5Z29uIGZpbGw9Im5vbmUiIHBvaW50cz0iNzIxLjc4LDExNS40NSw3MDcuNzcsOTkuNTYsNzI4LjY0LDEwMy4yNCw3MjEuNzgsMTE1LjQ1IiBzdHlsZT0ic3Ryb2tlOiMxODE4MTg7c3Ryb2tlLXdpZHRoOjEuMDsiLz48L2c+PCEtLXJldmVyc2UgbGluayBJUG9pbnRTZXJpZXMgdG8gQ3VzdG9tUG9pbnRTZXJpZXMtLT48ZyBpZD0ibGlua19JUG9pbnRTZXJpZXNfQ3VzdG9tUG9pbnRTZXJpZXMiPjxwYXRoIGNvZGVMaW5lPSIxMDMiIGQ9Ik01NjEuODgsODYuOTggQzQ3NC4yOSwxMDkuNjIgMzM1LjUzLDE0OS4wOSAyMjEsMTk4IEMyMDEuMDgsMjA2LjUxIDE4MC4xNSwyMTcuNDYgMTYxLjY0LDIyNy45MiAiIGZpbGw9Im5vbmUiIGlkPSJJUG9pbnRTZXJpZXMtYmFja3RvLUN1c3RvbVBvaW50U2VyaWVzIiBzdHlsZT0ic3Ryb2tlOiMxODE4MTg7c3Ryb2tlLXdpZHRoOjEuMDtzdHJva2UtZGFzaGFycmF5OjcuMCw3LjA7Ii8+PHBvbHlnb24gZmlsbD0ibm9uZSIgcG9pbnRzPSI1NjAuMjcsODAuMTcsNTgxLjM4LDgyLDU2My43Myw5My43Myw1NjAuMjcsODAuMTciIHN0eWxlPSJzdHJva2U6IzE4MTgxODtzdHJva2Utd2lkdGg6MS4wOyIvPjwvZz48IS0tcmV2ZXJzZSBsaW5rIElPcGVyYXRpb24gdG8gSVVuYXJ5T3BlcmF0aW9uLS0+PGcgaWQ9ImxpbmtfSU9wZXJhdGlvbl9JVW5hcnlPcGVyYXRpb24iPjxwYXRoIGQ9Ik0xODQyLjUyLDUwMS44NSBDMTc2Ni4wNSw1MjIuMjkgMTY3Ni45Myw1NDYuMSAxNjAyLjg2LDU2NS44OSAiIGZpbGw9Im5vbmUiIGlkPSJJT3BlcmF0aW9uLWJhY2t0by1JVW5hcnlPcGVyYXRpb24iIHN0eWxlPSJzdHJva2U6IzE4MTgxODtzdHJva2Utd2lkdGg6MS4wOyIvPjxwb2x5Z29uIGZpbGw9Im5vbmUiIHBvaW50cz0iMTg0MS4wNiw0OTUsMTg2Mi4xOSw0OTYuNiwxODQ0LjY3LDUwOC41MiwxODQxLjA2LDQ5NSIgc3R5bGU9InN0cm9rZTojMTgxODE4O3N0cm9rZS13aWR0aDoxLjA7Ii8+PC9nPjwhLS1yZXZlcnNlIGxpbmsgSU9wZXJhdGlvbiB0byBJQmluYXJ5T3BlcmF0aW9uLS0+PGcgaWQ9ImxpbmtfSU9wZXJhdGlvbl9JQmluYXJ5T3BlcmF0aW9uIj48cGF0aCBkPSJNMjAxNiw1MTcgQzIwMTYsNTMzLjQ2IDIwMTYsNTUwLjg1IDIwMTYsNTY1LjkxICIgZmlsbD0ibm9uZSIgaWQ9IklPcGVyYXRpb24tYmFja3RvLUlCaW5hcnlPcGVyYXRpb24iIHN0eWxlPSJzdHJva2U6IzE4MTgxODtzdHJva2Utd2lkdGg6MS4wOyIvPjxwb2x5Z29uIGZpbGw9Im5vbmUiIHBvaW50cz0iMjAwOSw1MTYuOSwyMDE2LDQ5Ni45LDIwMjMsNTE2LjksMjAwOSw1MTYuOSIgc3R5bGU9InN0cm9rZTojMTgxODE4O3N0cm9rZS13aWR0aDoxLjA7Ii8+PC9nPjwhLS1yZXZlcnNlIGxpbmsgSU9wZXJhdGlvbiB0byBJQ3VzdG9tRXh0ZW5kT3BlcmF0aW9uLS0+PGcgaWQ9ImxpbmtfSU9wZXJhdGlvbl9JQ3VzdG9tRXh0ZW5kT3BlcmF0aW9uIj48cGF0aCBkPSJNMjE5My41OSw1MDEuNzMgQzIyNzIuMjgsNTIyLjIxIDIzNjQuMDksNTQ2LjExIDI0NDAuMzIsNTY1Ljk2ICIgZmlsbD0ibm9uZSIgaWQ9IklPcGVyYXRpb24tYmFja3RvLUlDdXN0b21FeHRlbmRPcGVyYXRpb24iIHN0eWxlPSJzdHJva2U6IzE4MTgxODtzdHJva2Utd2lkdGg6MS4wOyIvPjxwb2x5Z29uIGZpbGw9Im5vbmUiIHBvaW50cz0iMjE5MS40Nyw1MDguNDEsMjE3My44OCw0OTYuNiwyMTk1LDQ5NC44NiwyMTkxLjQ3LDUwOC40MSIgc3R5bGU9InN0cm9rZTojMTgxODE4O3N0cm9rZS13aWR0aDoxLjA7Ii8+PC9nPjwhLS1saW5rIENvcmVFbmdpbmUgdG8gSU9wZXJhdGlvbkNvbnRleHQtLT48ZyBpZD0ibGlua19Db3JlRW5naW5lX0lPcGVyYXRpb25Db250ZXh0Ij48cGF0aCBjb2RlTGluZT0iMTQ0IiBkPSJNMTk2NC4yNywxMTguNjYgQzE4MDUuOTEsMTU0LjggMTYwMS4yMSwyMDEuNTIgMTQ2OC43NywyMzEuNzQgIiBmaWxsPSJub25lIiBpZD0iQ29yZUVuZ2luZS10by1JT3BlcmF0aW9uQ29udGV4dCIgc3R5bGU9InN0cm9rZTojMTgxODE4O3N0cm9rZS13aWR0aDoxLjA7Ii8+PHBvbHlnb24gZmlsbD0iIzE4MTgxOCIgcG9pbnRzPSIxNDYzLjcsMjMyLjksMTQ3My4zNjUzLDIzNC43OTI1LDE0NjguNTc0MSwyMzEuNzg1MSwxNDcxLjU4MTUsMjI2Ljk5MzksMTQ2My43LDIzMi45IiBzdHlsZT0ic3Ryb2tlOiMxODE4MTg7c3Ryb2tlLXdpZHRoOjEuMDsiLz48dGV4dCBmaWxsPSIjMDAwMDAwIiBmb250LWZhbWlseT0ic2Fucy1zZXJpZiIgZm9udC1zaXplPSIxMyIgbGVuZ3RoQWRqdXN0PSJzcGFjaW5nIiB0ZXh0TGVuZ3RoPSI5NyIgeD0iMTc5MSIgeT0iMTY2LjI4OTEiPnVzZXMgJmd0OyBleGVjdXRlPC90ZXh0PjwvZz48IS0tbGluayBDb3JlRW5naW5lIHRvIE9wZXJhdGlvblJlc3VsdC0tPjxnIGlkPSJsaW5rX0NvcmVFbmdpbmVfT3BlcmF0aW9uUmVzdWx0Ij48cGF0aCBjb2RlTGluZT0iMTQ1IiBkPSJNMjI5OC43NCwxMjMuMSBDMjM1My41OSwxNTMuMjkgMjQxOS45NSwxODkuODIgMjQ3MC45NywyMTcuOSAiIGZpbGw9Im5vbmUiIGlkPSJDb3JlRW5naW5lLXRvLU9wZXJhdGlvblJlc3VsdCIgc3R5bGU9InN0cm9rZTojMTgxODE4O3N0cm9rZS13aWR0aDoxLjA7Ii8+PHBvbHlnb24gZmlsbD0iIzE4MTgxOCIgcG9pbnRzPSIyNDc1LjU1LDIyMC40MiwyNDY5LjU4NTgsMjEyLjU4MjQsMjQ3MS4xNjcxLDIxOC4wMTM3LDI0NjUuNzM1OCwyMTkuNTk1LDI0NzUuNTUsMjIwLjQyIiBzdHlsZT0ic3Ryb2tlOiMxODE4MTg7c3Ryb2tlLXdpZHRoOjEuMDsiLz48dGV4dCBmaWxsPSIjMDAwMDAwIiBmb250LWZhbWlseT0ic2Fucy1zZXJpZiIgZm9udC1zaXplPSIxMyIgbGVuZ3RoQWRqdXN0PSJzcGFjaW5nIiB0ZXh0TGVuZ3RoPSI5MCIgeD0iMjM3NCIgeT0iMTY2LjI4OTEiPnVzZXMgJmd0OyByZXR1cm48L3RleHQ+PC9nPjwhLS1saW5rIE9wZXJhdGlvblJlZ2lzdHJhbnQgdG8gSU9wZXJhdGlvbi0tPjxnIGlkPSJsaW5rX09wZXJhdGlvblJlZ2lzdHJhbnRfSU9wZXJhdGlvbiI+PHBhdGggY29kZUxpbmU9IjE0NiIgZD0iTTE5MzEuMjEsMzE0LjE2IEMxOTQ4LjksMzQzLjIzIDE5NzEuMDcsMzc5LjY2IDE5ODguMzEsNDA3Ljk5ICIgZmlsbD0ibm9uZSIgaWQ9Ik9wZXJhdGlvblJlZ2lzdHJhbnQtdG8tSU9wZXJhdGlvbiIgc3R5bGU9InN0cm9rZTojMTgxODE4O3N0cm9rZS13aWR0aDoxLjA7Ii8+PHBvbHlnb24gZmlsbD0iIzE4MTgxOCIgcG9pbnRzPSIxOTkxLjAzLDQxMi40NiwxOTg5Ljc2NzMsNDAyLjY5MjQsMTk4OC40MzAzLDQwOC4xODksMTk4Mi45MzM3LDQwNi44NTIsMTk5MS4wMyw0MTIuNDYiIHN0eWxlPSJzdHJva2U6IzE4MTgxODtzdHJva2Utd2lkdGg6MS4wOyIvPjx0ZXh0IGZpbGw9IiMwMDAwMDAiIGZvbnQtZmFtaWx5PSJzYW5zLXNlcmlmIiBmb250LXNpemU9IjEzIiBsZW5ndGhBZGp1c3Q9InNwYWNpbmciIHRleHRMZW5ndGg9IjU1IiB4PSIxOTY2IiB5PSIzNzIuMjg5MSI+cHJvdmlkZXM8L3RleHQ+PC9nPjwhLS1TUkM9W25MVFJSemlzNTd4TmhvMm1YcFlFUkkzMWkwVjM0QjJ3QUhPNFF1bDZKSC02bU0yZTR2azhINmVhdklSUmtqX1VHcjhOSWdPeERucXdGelpvdVJieXZ5Z1o0dDlaZGQ4a0RlYi11QUFhWVhRNHZMSGh5YlQyeUZFMmllVURhZk44YlpBTllkcE9TV0YtSEFlQ2JBVS1vOTdES0x6OU9MeEowaVdsYUVfMFM0UFJ5V3RfNHladkoteF9weU9lVmJTUHcwdi1KM3ViMEdXazNBWHhvazNfMFJCYjZIMzY1U2lYSUt4OGZRWUExRjJCbDJiMUtTRWJNM3NMM1JSdFdnZ2RZR1Yzay1UYmZPcWlCWHlEWUNwZ0YyNUJnVTFJUkJXMEdhTDZrRDU0R0t1RFA4SjllZkcyWEQ2OVp0XzB3d3JDWUpQZWNQNVlwR0stMldScFc2alNDbkxoc0sxeTFua2taUUIycDNsUzdSNkpLQTJodDJtZnNyZ0x6Y1UxQjVXTDR4SVBwVVR3SW5MYXd6QWVIUTM3b2dJZkt0Qk1PRGswa1FoMVpLeHR1UHFIVTBJNnVIdW5aM1N5OGgyaExrRklheVFkRlJKTTJhT2wyQ1R1Y2ljRk9YZnBBU1JjX0Y3SFRfZ3hxajhrMm94U2U5RWt1bE9XYVNNWUZLdEpFWHpkcmpiVUVPbjJ2OVJHeVJzYVhqaFpneFNJRFRzMHVnMzd3OVJGaklrV0ZRRHJzY01lQ01QV2NnN290eXZfN3NmdG5lXzQ2NDFxNlR5MUNyOGpVV2ZKTXlHVWkyX3BScUh5eUpxSFh5dHVSUllfMi1YODJWdXpjeUtCdkgxcEY0YzdrQnlLZThaQ1U1Z0xxcnVhWUVxbnd6cUgzSFFBSE5saGR2MWJUOWdxaFY5Nm1DakdrYXZUaUl1aktTejk3VDlDTGRTdmY2dE9OdmtqNHhFWDd4MnFEUkJ3QUJ6Mnp1R1NSUURaeE1uajVTMHBoM3QzUWlJd0p0UFdWUjVBM205T1ZUN01BYjB4NkRrakdkLV9sQXRMeGhTRmlkMXpLcDZpNjNvX2FwOWxvMExJdzBSZ1RsNk5ha2tGTldOUC1YcU1IZUhiY0R5T29ydlE4YW54cVJFTHRfaC1EVlZCV09rYmtJSnprM2F5QVZQbG9kNXR2U0o3cUFTR0h0LVMzQzIwNm1Ld0hGalZ1VmsxTERSb1BRc2M5cUlpS2x6eTdmRjd2MFNVMzZSU3FJdzQ3ZnB0SXRCWTQ1cHFZUDZUbjNqb251X29QNDhFN0x0eWt2RkhxUm5PcE1RcHo1YUVqeHFSNkdETVFOaDBNLXA3LXFlbUktc2Ntd2tRNFh5M3BNQk14aDMxVWVldzJiZWtVbExQQnZvTHU3ekt1MVJFcGZMd3J1cGttR1ZOc3BGU2kycTVMQ2lvQ2xsTi11SXFpQ0FMcjh1dm9SRjhsWFRKU1hnQVpsdEFfenhtZDlrZFBXZ0dVdG5CT1JZSHNaZE0zNkV4ZTBPMWlpVm1Bb3J6VUF1ZHYzT0RwYWhBSzF6czdSd2loNHM3UkZHMElCcjYzQlNyaVFtUXVlSmlRNXVYdERrLUdtZUFrT0ZIVElDUDdEZHpkNjl5a3FDdGJmckZ4LW14WXF0V2JmU3dOQmNkcXBJb0ZDejlQSnJGY3g0bmIxWUtNaVVsbTVIQTlCNW93YmoyYUxCOTdSd3B3U3kwXS0tPjwvZz48L3N2Zz4=;imageBorder=default;" parent="GsaM81ASL0noFZmj_fNP-11" vertex="1">
            <mxGeometry x="187.69436619718323" y="120" width="2844" height="656" as="geometry" />
          </mxCell>
        </UserObject>
      </root>
    </mxGraphModel>
  </diagram>
</mxfile>
